<svg xmlns="http://www.w3.org/2000/svg" width="20" height="18"><title>joystick</title><desc>Created with Sketch.</desc><g fill="none"><g><g><g><g><path id="Shape" stroke="#F34F30" d="M18 0s0 3-3.75 3c-4.5 0-4.48 3-4.48 3"/><path fill="#F34F30" d="M14.27 6.07c-2.06 0-2.46 2.24-4.52 2.24-2.06 0-2.46-2.23-4.52-2.23-2.06 0-5.07 3.72-5.07 8.4 0 1.46 1.1 3.48 2.34 3.48 2.46 0 2.93-3.77 7.25-3.77s4.8 3.77 7.25 3.77c1.23 0 2.34-2.02 2.34-3.48 0-4.68-3-8.4-5.07-8.4zM7.5 12H6v1.5H4.5V12H3v-1.5h1.5V9H6v1.5h1.5V12zm6.75-3.2c.52 0 .95.43.95.95s-.43.95-.95.95-.95-.43-.95-.95.43-.95.95-.95zm-2.45 2.45c0-.52.43-.95.95-.95s.95.43.95.95-.43.95-.95.95-.95-.43-.95-.95zm2.45 2.45c-.52 0-.95-.43-.95-.95s.43-.95.95-.95.95.43.95.95-.43.95-.95.95zm1.5-1.5c-.52 0-.95-.43-.95-.95s.43-.95.95-.95.95.43.95.95-.43.95-.95.95z"/></g></g></g></g></g></svg>