<svg xmlns="http://www.w3.org/2000/svg" width="18" height="21"><title>1438548400_water_jug</title><desc>Created with Sketch.</desc><g fill="none"><g fill="#F34F30"><g><g><g><path d="M17.1 5c-.02 0-.02 0-.02 0 0-.02-.02-.03-.02-.04-.04-.05-.07-.1-.1-.15-.02-.02-.04-.05-.06-.07-.04-.05-.07-.1-.1-.14-.04-.04-.06-.07-.1-.1-.02-.03-.06-.07-.1-.1-.03-.04-.07-.07-.1-.1s-.07-.07-.1-.1c-.05-.04-.1-.07-.16-.1-.02-.03-.04-.05-.06-.06-.8-.56-1.87-.73-2.86-.4-.22.1-.34.32-.26.54.08.22.18.44.4.37.64-.22 1.33-.15 1.9.16.05.05.1.1.17.13.02 0 .03.02.05.03.04.03.07.06.1.1.04 0 .06.03.08.05.03.04.05.06.08.08.03.03.05.06.08.1.02 0 .03.03.05.05.03.03.06.06.08.1.02.02.03.03.04.05.02.04.04.08.07.12.1.16.18.35.24.54.16.57.08 1.16-.22 1.66l-2.04 3.56c-.12.2-.04.46.16.57.07.04.15.1.23.1.15 0 .3-.07.37-.2L17.07 8c.42-.7.53-1.5.32-2.28-.08-.25-.2-.5-.3-.7zm-4.87-1.77v-.05c0-.7-.56-1.25-1.25-1.25h-2.9L2.77.15H1.32C.63.15.07.7.07 1.4c0 .27.1.53.26.75L2.14 4.9l-2 9.28-.02.1c0 1.27.4 2.55 1.16 3.78v.84c0 .7.56 1.25 1.25 1.25h8.93c.7 0 1.25-.56 1.25-1.25v-.84c.78-1.24 1.17-2.5 1.17-3.8v-.04l-2.04-9.38.4-1.6zM12.6 14c-.02 1.06-.36 2.12-1.03 3.16l-.06.1v1c0 .22-.16.4-.38.4h-8.3c-.2 0-.4-.18-.4-.4v-1l-.05-.1c-.67-1.03-1-2.1-1.02-3.16L3.3 5.1 1.4 2.25l-.02-.02C1.35 2.18 1.3 2.1 1.3 2c0-.23.17-.4.4-.4h1.23l4.92 1.65h2.83c.2 0 .36.16.38.35l-.4 1.57L12.6 14zM7.03 7.25c-1.6 0-2.92 1.12-2.92 2.5s1.3 2.5 2.92 2.5c1.6 0 2.92-1.12 2.92-2.5s-1.3-2.5-2.92-2.5zM5.14 9.8c0-.85.85-1.54 1.9-1.54 1.05 0 1.9.7 1.9 1.53 0 .82-.86 1.5-1.9 1.5-1.05 0-1.9-.68-1.9-1.5zm3.73 3.67H5.53c-.23 0-.4.23-.4.5 0 .3.17.52.4.52h3.34c.23 0 .42-.24.42-.52s-.2-.5-.43-.5z"/></g></g></g></g></g></svg>