<svg xmlns="http://www.w3.org/2000/svg" width="14" height="20"><title>fridge</title><desc>Created with Sketch.</desc><g fill="none"><g fill="#F34F30"><g><g><g><path d="M11.54 1.54c.42 0 .77.34.77.77v14.62c0 .43-.34.77-.76.77H2.3c-.42 0-.76-.35-.76-.78V2.32c0-.44.34-.78.77-.78h9.24zm0-1.54H2.3C1.04 0 0 1.03 0 2.3v14.62c0 1.28 1.03 2.3 2.3 2.3h9.24c1.27 0 2.3-1.02 2.3-2.3V2.32C13.85 1 12.82 0 11.55 0zM3.85 6.92c-.43 0-.77-.34-.77-.77V4.62c0-.43.34-.77.77-.77.42 0 .77.34.77.77v1.53c0 .43-.35.77-.77.77zM3.85 13.85c-.43 0-.77-.35-.77-.77v-2.3c0-.43.34-.78.77-.78.42 0 .77.35.77.77v2.3c0 .43-.35.78-.77.78zM2.3 20c-.42 0-.76-.34-.76-.77v-.36h2.3v.36c0 .43-.34.77-.76.77H2.3zM10.77 20c-.42 0-.77-.34-.77-.77v-.36h2.3v.36c0 .43-.34.77-.76.77h-.77z"/><path d="M.77 7.7h12.3v1.53H.78z"/></g></g></g></g></g></svg>