<svg xmlns="http://www.w3.org/2000/svg" width="43" height="37"><title>1440604222_bubble</title><desc>Created with Sketch.</desc><g fill="none"><g fill="#F34F30"><g><g><g><g><path d="M21.02 6.57c-7.83 0-14.45 4.2-14.45 9.2 0 .36.3.65.66.65.36 0 .65-.3.65-.65 0-4.2 6.14-7.9 13.14-7.9.36 0 .66-.28.66-.64 0-.37-.3-.66-.66-.66zM21.02 0C9.42 0 0 7.06 0 15.77c0 5.42 3.65 10.2 9.2 13.04 0 .04 0 .07 0 .1 0 2.36-1.76 4.9-2.54 6.23-.05.14-.1.3-.1.47 0 .66.54 1.2 1.2 1.2.12 0 .34-.04.34-.03 4.1-.67 7.97-4.44 8.87-5.54 1.3.2 2.66.3 4.05.3 11.6 0 21.03-7.06 21.03-15.76S32.63 0 21.02 0zm-3.86 29.36c-.13-.02-.27-.02-.4-.02-.82 0-1.24.7-1.77 1.34-.3.36-1.53 1.57-2.6 2.35-1.12.8-2.6 1.43-3.6 2.03.53-1.25 2.1-4.08 2.14-5.52 0-.1.02.24.02.13 0-1.05-.18-2.13-1.1-2.6-5.12-2.66-8.18-6.92-8.18-11.4 0-7.7 8.68-14 19.34-14 10.67 0 19.34 6.3 19.34 14S31.7 29.65 21.02 29.65c-1.26 0-2.56-.1-3.86-.3z"/></g></g></g></g></g></g></svg>