<svg xmlns="http://www.w3.org/2000/svg" width="38" height="38"><title>calendar_1_</title><desc>Created with Sketch.</desc><g fill="none"><g fill="#F34F30"><g><g><g><path d="M34.8 4.04h-5.1V1.2c0-.67-.54-1.2-1.2-1.2-.66 0-1.2.53-1.2 1.2v2.84h-7.1V1.2C20.2.52 19.65 0 19 0c-.66 0-1.2.53-1.2 1.2v2.84h-7.1V1.2c0-.67-.54-1.2-1.2-1.2-.66 0-1.2.53-1.2 1.2v2.84H3.03c-1.75 0-2.36.65-2.36 2.4V35.3c0 1.76.6 2.26 2.36 2.26H35.1c1.75 0 2.47-.5 2.47-2.25V6.45c0-1.75-.5-2.4-2.26-2.4h-.5zm.55 32.1H2.8c-.44 0-.8-.35-.8-.78V6.2c0-.42.36-.78.8-.78h5.5v2.9c0 .65.54 1.18 1.2 1.18.66 0 1.2-.53 1.2-1.2V5.43h7.1v2.9c0 .65.54 1.18 1.2 1.18.66 0 1.2-.53 1.2-1.2V5.43h7.1v2.9c0 .65.54 1.18 1.2 1.18.66 0 1.2-.53 1.2-1.2V5.43h5.65c.44 0 .8.36.8.8v29.14c0 .43-.36.8-.8.8z"/><path d="M8.3 14.25h4.76v3.56H8.3zM8.3 20.2h4.76v3.55H8.3zM8.3 26.13h4.76v3.56H8.3zM16.63 26.13h4.75v3.56h-4.75zM16.63 20.2h4.75v3.55h-4.75zM16.63 14.25h4.75v3.56h-4.75zM24.94 26.13h4.75v3.56h-4.76zM24.94 20.2h4.75v3.55h-4.76zM24.94 14.25h4.75v3.56h-4.76z"/></g></g></g></g></g></svg>