<svg xmlns="http://www.w3.org/2000/svg" width="38" height="43"><title>1438463771_valenticons-20</title><desc>Created with Sketch.</desc><g fill="none"><g fill="#F34F30"><g id="Group"><g><g><g><path d="M28.4 13.77h-1.8V9.5c0-.4-.13-.4-.53-.4H.47c-.4 0-.47 0-.47.4v31c0 1.14.73 1.94 1.93 1.94h22.75c1.13 0 1.93-.73 1.93-1.93v-5.38h1.6c5.06-.07 9.05-3.92 9.05-9.1v-3.07c0-5-3.86-9.18-8.85-9.18zM35.92 26c0 4.4-3.4 7.72-7.72 7.72h-2.13c-.4 0-.8.6-.8 1v5.8c0 .4-.2.6-.6.6H1.94c-.4 0-.6-.14-.6-.6V10.43h23.95v4.13c0 .4.46.53.8.53h2.32c4.26 0 7.52 3.6 7.52 7.92v3zM28.2 17.1h-1.73c-.4 0-.53.53-.53.93v12.9c0 .4.13.87.53.87h1.73c3.06 0 5.72-2.73 5.72-5.8V23.1c0-3.2-2.66-5.98-5.72-5.98zm4.4 8.84c0 2.4-2.07 4.46-4.4 4.46h-.93V18.43h.93c2.33 0 4.4 2.2 4.4 4.6v2.9zM16.76 19.62c-1.06 0-2.4.53-3.52 1.53-1.2-.93-2.46-1.53-3.53-1.53-.8 0-1.52.34-2.12.87-1.73 1.72-1.73 4.44-.06 6.17l5.25 5.4c.13.12.27.2.47.2.2 0 .33-.08.46-.2l5.26-5.4c1.66-1.73 1.66-4.52-.07-6.18-.6-.6-1.34-.88-2.14-.88zm1.2 6.12l-4.8 4.86-4.78-4.86c-1.06-1.2-1.06-3.12.13-4.32.35-.33.68-.47 1.15-.47.86 0 2.06.6 3.12 1.53.27.27.67.27.93 0 1-.93 2.2-1.53 3.13-1.53.46 0 .86.14 1.13.47 1.13 1.2 1.2 3.13 0 4.32zM9.98 7.78c.4 0 .66-.26.66-.66v-4c0-.4-.26-.66-.66-.66s-.67.27-.67.67v4c0 .32.28.65.68.65zM13.97 5.8c.4 0 .66-.28.66-.68v-4c0-.4-.26-.65-.66-.65s-.67.26-.67.66v4c0 .32.27.66.67.66zM17.96 7.12c.4 0 .66-.27.66-.67v-4c0-.4-.26-.65-.66-.65s-.67.26-.67.66v4c0 .32.26.66.66.66z"/></g></g></g></g></g></g></svg>