<svg xmlns="http://www.w3.org/2000/svg" width="38" height="38"><title>1440618997_More</title><desc>Created with Sketch.</desc><g fill="none"><g fill="#F34F30"><g id="Group"><g><g><g><path d="M19 0C8.5 0 0 8.5 0 19s8.5 19 19 19 19-8.5 19-19S29.5 0 19 0zm.06 36.04c-9.45 0-17.1-7.65-17.1-17.1 0-9.44 7.65-17.1 17.1-17.1 9.44 0 17.1 7.66 17.1 17.1 0 9.45-7.66 17.1-17.1 17.1zM20.25 17.67v-5.6c0-.36-.16-1.07-1.04-1.07h-.47c-.93 0-1 .93-1.02 1.17l.1 5.5h-5.66c-.96 0-1.04.75-1.05.96l-.1.68c0 .2.08.94 1.05.94h5.65v5.6c0 .96.74 1.04.95 1.05l.66-.02c.2 0 .94-.08.95-1.05v-5.6h5.56c.37 0 1.08-.17 1.08-1.05l.1-.5c0-.92-.93-1-1.17-1h-5.55z"/></g></g></g></g></g></g></svg>