<svg xmlns="http://www.w3.org/2000/svg" viewBox="0 0 87.08 49.89"><defs><style>.cls-adv_4-1{fill:#fff;}</style></defs><title>satellite</title><g id="Layer_2" data-name="Layer 2"><g id="Layer_1-2" data-name="Layer 1"><path class="cls-adv_4-1" d="M86.81,10l-8-8.29a1,1,0,0,0-1.07-.24L49.08,12.14,37.71.31a1,1,0,0,0-1-.26l-12,4-.05,0-.14.07-.11.08-.12.11a.81.81,0,0,0-.13.19.63.63,0,0,0-.1.27A.76.76,0,0,0,24,5V16a1,1,0,0,0,.28.69l2.57,2.67L.65,29.3a1,1,0,0,0-.37,1.63l8,8.29a1,1,0,0,0,.72.3,1.13,1.13,0,0,0,.36-.06l27-10.24,13,13.47A1,1,0,0,0,50,43a1.19,1.19,0,0,0,.32,0l3-1a1,1,0,0,0,.46-.32l.48,2.72A4.87,4.87,0,0,0,55,48.51v.08h0a1.05,1.05,0,0,0,.17.2,4.13,4.13,0,0,0,3,1.11,9.91,9.91,0,0,0,4.37-1.21,18.67,18.67,0,0,0,4.64-3.44c4.36-4.36,5.92-9.64,3.54-12l-.23-.2v0h0c-1.18-1-3-1.13-4.93-.55h0L63,32.16A.94.94,0,0,0,63,32V27h0a1.11,1.11,0,0,0,0-.19.19.19,0,0,0,0-.08s0,0,0,0l0-.05s0,0,0,0a1.1,1.1,0,0,0-.08-.15l-.1-.12,0-.06,0,0v0L58.57,22,86.44,11.6A1,1,0,0,0,86.81,10ZM9.25,37.36,2.77,30.63l25.58-9.7,2-.77,1.35-.51,6.48,6.72-1.36.52-2,.77ZM40.33,27.7a1,1,0,0,0,.62-.71,1,1,0,0,0-.25-.92l-8-8.29a1,1,0,0,0-1.08-.24l-2.77,1.05L26,15.6V7.48L49,31.4v8.12L38.35,28.45ZM65.82,43.83c-3.75,3.75-7.86,4.87-9.2,3.54s-.34-4.93,2.85-8.47h0l2.81,2.81a1,1,0,0,0,1.41-1.41l-2.81-2.81h0c2.52-2.28,5.11-3.39,6.84-3.39a1.92,1.92,0,0,1,2.16,2.17C69.89,38.16,68.56,41.09,65.82,43.83ZM63.56,33.24a18.17,18.17,0,0,0-4.81,3.52,17.7,17.7,0,0,0-3.85,5.53l-.6-3.38A5.2,5.2,0,0,1,60,32.84l3.57.4Zm-3.45-1.4a6.2,6.2,0,0,0-6.79,7.24l.19,1.06a1.06,1.06,0,0,0-.84-.09L51,40.61h0V31.72h0l10-3.33v3.55Zm.06-5.29-9.9,3.3L26.81,5.45l9.9-3.3Zm-2.91-6.19-6.48-6.72,27-10.1,6.48,6.72Z"/></g></g></svg>