<svg xmlns="http://www.w3.org/2000/svg" viewBox="0 0 48.93 51.38"><defs><style>.cls-adv_5-1{fill:#fff;}</style></defs><title>ca</title><g id="Layer_2" data-name="Layer 2"><g id="Layer_1-2" data-name="Layer 1"><path class="cls-adv_5-1" d="M48.93,22.45c0-.13-.08-.23-.18-.32L48.64,22l-.29-.37L47.89,21l-.6-.75-.72-.91-.83-1-.92-1.16-1-1.25-1-1.32-1.08-1.36-1.1-1.38-1.1-1.38L38.44,9.13l-1-1.32-1-1.25-.92-1.16-.83-1-.73-.91-.6-.76-.46-.58-.3-.38-.09-.12a.4.4,0,0,0-.28-.13H28.72c-.12,0-.23.19-.29.29a.9.9,0,0,0,0,.17,1,1,0,0,0-.06.21l-.17.55-.21.7-.25.84-.29,1-.33,1.09-.36,1.2-.39,1.29-.41,1.38-.44,1.45L25,13.12l-.47,1.57-.49,1.62L23.56,18l-.5,1.67-.51,1.69L22,23l-.5,1.68L21,26.35,20.55,28l-.48,1.59-.46,1.54-.44,1.47L18.74,34l-.4,1.32L18,36.52l-.34,1.12-.3,1-.26.88-.22.74-.18.6-.13.44-.08.27,0,.09-10-18.19L22.3,1.85c.1-.14,0-.35-.14-.44s-3.73-.06-3.73-.06A1.79,1.79,0,0,0,16.8,0a1.65,1.65,0,0,0-1.7,1.64,1.61,1.61,0,0,0,.34,1L3.62,17.68.1,22.18a.44.44,0,0,0,0,.48l2.59,4.87h0L13,47a2.68,2.68,0,1,0,3.17-.77L31,5.61,41.67,22a1.69,1.69,0,0,0,.18,2.72l-7,14.92-7,9.24a.65.65,0,0,0,0,.57c.08.15.23.35.4.35h5.89s.08-.09.11-.09a.51.51,0,0,0,.37-.25.66.66,0,0,0,.05-.12l.06-.11.18-.33.28-.53.38-.7L36,46.8l.54-1,.61-1.14.67-1.24.72-1.34.75-1.41L40,39.2l.8-1.5.82-1.52.82-1.52.81-1.51.79-1.47.76-1.42.73-1.35.68-1.27.62-1.16.56-1,.48-.9.4-.74.3-.57.2-.37a1.41,1.41,0,0,0,.13-.37ZM16.46,3.25a1.69,1.69,0,0,0,2-1.21h2.63L8.2,19.56ZM14.34,5.46,5.88,22.14,4.48,18ZM1,22.5l2.84-3.63,1.55,4.53L3.1,26.5Zm2.59,4.87,2.15-2.94L12.42,44ZM15.12,46h0a2.67,2.67,0,0,0-1,.18L7.89,28l8.17,14.85Zm4.32-11.28L29.09,2.61l1.34,2.06ZM30.82,3.59,29.77,2h1.64Zm.61,1,.67-1.84L38.78,15.9ZM42.72,25h0a1.69,1.69,0,0,0,.57-.1L44.4,27l-7,9.19Zm-13.65,24L33,43.8l-2.42,5.14Zm4.84,0H31.52l4.06-8.72,9.26-12.29.08.24ZM45,26.18l-.92-1.82a1.69,1.69,0,0,0-1.31-2.77h-.09L34.49,5.46l13.33,17Z"/></g></g></svg>