<svg xmlns="http://www.w3.org/2000/svg" viewBox="0 0 48.09 48"><defs><style>.cls-adv_8-1{fill:#fff;}</style></defs><title>multilang</title><g id="Layer_2" data-name="Layer 2"><g id="Layer_1-2" data-name="Layer 1"><path class="cls-adv_8-1" d="M46.31,33a23.71,23.71,0,0,1-12,12.68A23.57,23.57,0,0,1,25.5,48l-.26,0L25,48H24a23.92,23.92,0,0,1-7.57-1.22,22.86,22.86,0,0,1-6.63-3.45,26.52,26.52,0,0,1-5.18-5.16,22.55,22.55,0,0,1-3.45-6.61A23.9,23.9,0,0,1,0,24a23.54,23.54,0,0,1,1.9-9.33A23.84,23.84,0,0,1,7,7,24.3,24.3,0,0,1,14.72,1.9,23.54,23.54,0,0,1,24,0h1a2.19,2.19,0,0,1,.42,0,23.88,23.88,0,0,1,6,1.15,23.64,23.64,0,0,1,5.41,2.55,25,25,0,0,1,4.57,3.77A23.83,23.83,0,0,1,48.09,24,23.35,23.35,0,0,1,46.31,33ZM3,24a20.85,20.85,0,0,0,1.41,7.55,56.17,56.17,0,0,1,6.61-1A38,38,0,0,1,10.45,24q0-1.31.07-2.6t.26-2.55A50.23,50.23,0,0,1,4,17.67,20.75,20.75,0,0,0,3,24ZM14.53,5.25a20.89,20.89,0,0,0-9.47,9.61,48.54,48.54,0,0,0,6.28,1,30.31,30.31,0,0,1,2.23-6.54,21.82,21.82,0,0,1,3.3-5.09A24.83,24.83,0,0,0,14.53,5.25ZM10.45,40a20.27,20.27,0,0,0,6.42,3.7,21.91,21.91,0,0,1-3-4.55,29.62,29.62,0,0,1-2.18-5.77q-3.47.38-6,.89A21.4,21.4,0,0,0,10.45,40Zm3.47-9.8q4-.33,8.58-.37V19.45q-1.64,0-3.23,0t-2.93-.12l-2.6-.16q-.1.8-.16,1.59c0,.53-.09,1.07-.12,1.62s0,1.1,0,1.66A46,46,0,0,0,13.92,30.23ZM19.73,4.92q-3.84,3.56-5.48,11.2,3.84.33,8.25.38V3.23A8,8,0,0,0,19.73,4.92ZM14.58,33.19A31.85,31.85,0,0,0,16.22,38q2.63,5.63,6.28,6.8V32.86Q18.28,32.91,14.58,33.19ZM25.5,16.5l3.07-.09q1.48,0,2.74-.12l2.44-.16A28.8,28.8,0,0,0,31.8,10a17.83,17.83,0,0,0-2.86-4.52A7.39,7.39,0,0,0,25.5,3.19ZM34,30.23A37.3,37.3,0,0,0,34.55,24a37,37,0,0,0-.33-4.92q-4,.33-8.72.38V29.86Q30.14,29.91,34,30.23ZM30.14,40.95a24.44,24.44,0,0,0,3.28-7.76Q31.69,33,29.7,33l-4.2-.12v12A8.92,8.92,0,0,0,30.14,40.95ZM38.58,8.81a21.28,21.28,0,0,0-6.14-4.08q.56.84,1.1,1.78t1,2a24.08,24.08,0,0,1,.89,2.25q.4,1.17.73,2.44t.61,2.63q.89-.09,1.71-.21c.55-.08,1-.16,1.45-.23l1.15-.23L42,15l.59-.14.35-.09A20.72,20.72,0,0,0,38.58,8.81Zm3.7,25.64L41,34.17q-.68-.14-1.92-.33l-2.6-.37a31.32,31.32,0,0,1-1.71,5.44,23.86,23.86,0,0,1-2.37,4.36A20.47,20.47,0,0,0,42.28,34.45ZM44.72,28a21.16,21.16,0,0,0-1.22-12l.56,1.55-.8.26q-.52.16-2.25.49t-3.8.56a41.35,41.35,0,0,1,.33,5.2,44.87,44.87,0,0,1-.47,6.52,44.65,44.65,0,0,1,6.56,1.22A22.28,22.28,0,0,0,44.72,28Z"/></g></g></svg>