<svg xmlns="http://www.w3.org/2000/svg" viewBox="0 0 62 62"><title>close_btn</title><g data-name="Слой 2"><g data-name="Layer 1"><circle cx="31" cy="31" r="30" fill="none" stroke="#fff" stroke-miterlimit="10" stroke-width="2"/><path d="M37.66 26.24L32.87 31l4.79 4.79a1.19 1.19 0 0 1 .3.49 1 1 0 0 1 0 .58 1.18 1.18 0 0 1-.3.51 1.15 1.15 0 0 1-1.59 0l-4.79-4.79-4.79 4.79a1.15 1.15 0 0 1-1.59 0 1.17 1.17 0 0 1-.3-.51 1 1 0 0 1 0-.58 1.18 1.18 0 0 1 .3-.49L29.69 31l-4.79-4.76a1.12 1.12 0 0 1 1.59-1.59l4.79 4.79 4.79-4.79a1.12 1.12 0 0 1 1.59 1.59z" fill="#fff"/></g></g></svg>