<svg xmlns="http://www.w3.org/2000/svg" viewBox="0 0 127.87 49.76"><title>form_legs</title><g data-name="Слой 2"><g data-name="Layer 1" stroke="#fff" stroke-linecap="round" stroke-linejoin="round" stroke-width="4"><path d="M104.28 47.57c6.4-1.21 29.91-15.65 18.53-37.5-11.95-22.94-28 8.79-28.83 24.28a21.76 21.76 0 0 0 1 8A8.55 8.55 0 0 0 97 45.81a7.57 7.57 0 0 0 1.17.89 8.61 8.61 0 0 0 6.11.87z" fill="#4665bb"/><path fill="none" d="M96.94 45.76l-20-30"/><path d="M23.59 47.57c-6.4-1.21-29.91-15.65-18.53-37.5 11.94-22.95 28 8.78 28.84 24.28a21.76 21.76 0 0 1-1 8 8.55 8.55 0 0 1-2.05 3.42 7.57 7.57 0 0 1-1.17.89 8.61 8.61 0 0 1-6.09.91z" fill="#4665bb"/><path fill="none" d="M30.94 45.76l20-30"/></g></g></svg>