<svg xmlns="http://www.w3.org/2000/svg" viewBox="0 0 1156.44 522.71"><title>header_bg</title><g data-name="Ğ¡Ğ»Ğ¾Ğ¹ 2"><g data-name="Layer 1" fill="#4665bb"><path d="M314.62 514.81h-6.78v6.78a1.19 1.19 0 0 1-.14.56 1 1 0 0 1-.41.41 1.18 1.18 0 0 1-.57.15 1.15 1.15 0 0 1-1.12-1.12v-6.78h-6.78a1.15 1.15 0 0 1-1.12-1.12 1.17 1.17 0 0 1 .15-.57 1 1 0 0 1 .41-.41 1.18 1.18 0 0 1 .56-.14h6.78v-6.77a1.12 1.12 0 0 1 2.24 0v6.78h6.78a1.12 1.12 0 0 1 0 2.24zm583-497h-6.78v6.78a1.19 1.19 0 0 1-.14.56 1 1 0 0 1-.41.41 1.18 1.18 0 0 1-.57.15 1.15 1.15 0 0 1-1.12-1.12v-6.78h-6.78a1.15 1.15 0 0 1-1.12-1.12 1.17 1.17 0 0 1 .15-.57 1 1 0 0 1 .41-.41 1.18 1.18 0 0 1 .56-.14h6.78V8.8a1.12 1.12 0 0 1 2.24 0v6.78h6.78a1.12 1.12 0 0 1 0 2.24zM86.1 1.9l-4.79 4.79 4.79 4.79a1.19 1.19 0 0 1 .3.49 1 1 0 0 1 0 .58 1.18 1.18 0 0 1-.3.51 1.15 1.15 0 0 1-1.59 0l-4.79-4.78-4.79 4.79a1.15 1.15 0 0 1-1.59 0 1.17 1.17 0 0 1-.3-.51A1 1 0 0 1 73 12a1.18 1.18 0 0 1 .3-.49l4.79-4.79-4.75-4.82a1.08 1.08 0 0 1-.34-.79 1.12 1.12 0 0 1 1.9-.79l4.79 4.79L84.51.32a1.11 1.11 0 0 1 1.9.79 1.08 1.08 0 0 1-.31.79z"/><path d="M13.1 221.9l-4.79 4.79 4.79 4.79a1.19 1.19 0 0 1 .3.49 1 1 0 0 1 0 .58 1.18 1.18 0 0 1-.3.51 1.15 1.15 0 0 1-1.59 0l-4.79-4.79-4.79 4.79a1.08 1.08 0 0 1-.79.32 1.08 1.08 0 0 1-.79-.32 1.17 1.17 0 0 1-.3-.51A1 1 0 0 1 0 232a1.18 1.18 0 0 1 .3-.49l4.79-4.79-4.75-4.82a1.11 1.11 0 0 1 .79-1.9 1.08 1.08 0 0 1 .79.32l4.79 4.79 4.79-4.79a1.12 1.12 0 0 1 1.59 1.59zm1143-84l-4.79 4.79 4.79 4.79a1.19 1.19 0 0 1 .3.49 1 1 0 0 1 0 .58 1.18 1.18 0 0 1-.3.51 1.15 1.15 0 0 1-1.59 0l-4.79-4.79-4.79 4.79a1.15 1.15 0 0 1-1.59 0 1.17 1.17 0 0 1-.3-.51 1 1 0 0 1 0-.58 1.18 1.18 0 0 1 .3-.49l4.79-4.79-4.79-4.79a1.12 1.12 0 0 1 1.59-1.59l4.79 4.79 4.79-4.79a1.12 1.12 0 0 1 1.59 1.59z" opacity=".5"/></g></g></svg>