<svg xmlns="http://www.w3.org/2000/svg" viewBox="0 0 175.39 137"><title>ic_banner</title><g data-name="Слой 2"><g data-name="Слой 1"><g data-name="Layer 2"><g data-name="Layer 1-2"><g opacity=".5" fill="none" stroke="#cacaca" stroke-miterlimit="10" stroke-width="2"><path d="M33.28 102v-4.63"/><path stroke-dasharray="8.37 8.37" d="M33.28 89V42.97"/><path d="M33.28 38.78v-4.63M58.99 137v-4.63"/><path stroke-dasharray="8.64 8.64" d="M58.99 123.73V24.4"/><path d="M58.99 20.08v-4.63M87.66 97v-4.63"/><path stroke-dasharray="9.75 9.75" d="M87.66 82.62V9.5"/><path d="M87.66 4.63V0m23.73 117.58v-4.63"/><path stroke-dasharray="8.57 8.57" d="M111.39 104.38V22.92"/><path d="M111.39 18.63V14m30.66 87.76v-4.63"/><path stroke-dasharray="9.04 9.04" d="M142.05 88.09v-67.8"/><path d="M142.05 15.77v-4.63"/></g><rect x="2" y="35.54" width="171.33" height="65.93" rx="2" ry="2" fill="#fff" stroke="#2d58de" stroke-miterlimit="10" stroke-width="4"/><path fill="none" stroke="#2d58de" stroke-miterlimit="10" stroke-width="4" d="M78.33 101.46L116 35.51m-30.67 65.95L123 35.51m-29.67 65.95L131 35.51m-29.67 65.95L139 35.51m-29.67 65.95L147 35.51m-29.67 65.95L155 35.51m-29.67 65.95L163 35.51m-29.67 65.95L171 35.51m-29.67 65.95l32.33-55.96m-24.33 55.96l24.33-41.96m-16.33 41.96l16.33-27.96"/><path fill="none" stroke="#2d58de" stroke-linecap="round" stroke-linejoin="round" stroke-width="4" d="M165.33 101.46l7.33-12.96"/><rect x="111.08" y="58.54" width="50" height="20" rx="2" ry="2" fill="#2d58de" stroke="#fff" stroke-miterlimit="10" stroke-width="4"/><path fill="none" stroke="#2d58de" stroke-miterlimit="10" stroke-width="3.09" d="M17.83 56.92h38.58"/><path fill="none" stroke="#2d58de" stroke-miterlimit="10" stroke-width="1.54" d="M17.66 74.25h63m-63-5.84h56.81M17.66 80.08h48.55"/></g></g></g></g></svg>