<svg xmlns="http://www.w3.org/2000/svg" viewBox="0 0 175.33 187.23"><title>ic_web</title><g data-name="Слой 2"><g data-name="Слой 1"><g data-name="Layer 2"><g data-name="Layer 1-2" stroke-miterlimit="10"><g opacity=".5" fill="none" stroke="#cacaca" stroke-width="2"><path d="M21.7 152.18v-4.63"/><path stroke-dasharray="9.88 9.88" d="M21.7 137.67V83.35"/><path d="M21.7 78.42v-4.64m24.71 89.47v-4.63"/><path stroke-dasharray="8.97 8.97" d="M46.41 149.65v-85.2"/><path d="M46.41 59.97v-4.63m25.71 131.89v-4.63"/><path stroke-dasharray="9.77 9.77" d="M72.12 172.82V40.88"/><path d="M72.12 35.99v-4.63m28.68 128.2v-4.63"/><path stroke-dasharray="8.84 8.84" d="M100.8 146.09V9.05"/><path d="M100.8 4.63V0m23.73 162.33v-4.63"/><path stroke-dasharray="8.84 8.84" d="M124.53 148.85V11.82"/><path d="M124.53 7.4V2.77m30.65 139.27v-4.63"/><path stroke-dasharray="9.72 9.72" d="M155.18 127.68V35.32"/><path d="M155.18 30.46v-4.64"/></g><rect x="2" y="35.41" width="171.33" height="100.33" rx="4" ry="4" fill="#fff" stroke="#2d58de" stroke-width="4"/><rect x="9.72" y="43.13" width="155.89" height="84.89" rx=".77" ry=".77" fill="#fff" stroke="#2d58de" stroke-width="2"/><path fill="#fff" stroke="#2d58de" stroke-width="2" d="M9.72 43.13h155.89v9.26H9.72z"/><path fill="none" stroke="#2d58de" stroke-width="4" d="M9.66 110.61h156m-156 4h156m-156 4h156m-156 4h156m-156 4h156"/><path fill="#fff" stroke="#2d58de" stroke-width="2" d="M48.72 104.87h38.95v23.15H48.72z"/><path fill="#fff" stroke="#2d58de" stroke-width="2" d="M87.66 104.87h38.95v23.15H87.66z"/><path fill="none" stroke="#2d58de" stroke-width="3.09" d="M66.83 66.28h38.58"/><path fill="none" stroke="#2d58de" stroke-width="4" d="M22.07 47.76h7.71m3.09 0h7.72m3.08 0h7.72m3.09 0h7.72"/><path fill="none" stroke="#2d58de" stroke-width="1.54" d="M39.04 83.61h94.16m-89.53-5.84h84.9M49.85 89.44h72.54"/><circle cx="14.73" cy="47.76" r="1.93" fill="#2d58de" stroke="#fff" stroke-width="1.54"/><path fill="#fff" stroke="#2d58de" stroke-width="4" d="M68.37 135.74h37.04v23.15H68.37z"/><path d="M48.69 158.89h76.4a1.93 1.93 0 0 1 1.93 1.93v4.24H46.76v-4.24a1.93 1.93 0 0 1 1.93-1.93z" fill="#fff" stroke="#2d58de" stroke-width="4"/></g></g></g></g></svg>