<?xml version="1.0" encoding="iso-8859-1"?>
<!-- Generator: Adobe Illustrator 19.0.0, SVG Export Plug-In . SVG Version: 6.00 Build 0)  -->
<svg xmlns="http://www.w3.org/2000/svg" xmlns:xlink="http://www.w3.org/1999/xlink" version="1.1" id="Capa_1" x="0px" y="0px" viewBox="0 0 496 496" style="enable-background:new 0 0 496 496;" xml:space="preserve" width="70px" height="70px">
<g>
	<g>
		<path d="M248,200c-35.288,0-64,28.712-64,64c0,35.288,28.712,64,64,64c35.288,0,64-28.712,64-64C312,228.712,283.288,200,248,200z     M256,311.28V304h-16v7.28c-20.056-3.384-35.888-19.224-39.28-39.28H208v-16h-7.28c3.384-20.056,19.224-35.888,39.28-39.28V224h16    v-7.28c20.056,3.384,35.888,19.224,39.28,39.28H288v16h7.28C291.888,292.056,276.056,307.888,256,311.28z" fill="#f34f30"/>
	</g>
</g>
<g>
	<g>
		<path d="M489.376,326.648L434.96,280H376v-16.792c1.896,0.464,3.832,0.792,5.808,0.792h1.848C397.08,264,408,253.08,408,239.656    c0-7.248-3.192-14.072-8.76-18.704L267.264,110.984c-3.288-2.752-7.176-4.552-11.264-5.624V72h96V0H240v105.352    c-4.088,1.072-7.984,2.872-11.272,5.624L96.768,220.952C91.192,225.584,88,232.408,88,239.656C88,253.08,98.92,264,112.344,264    h1.848c1.976,0,3.912-0.32,5.808-0.792V280H61.04L6.616,326.648C2.416,330.256,0,335.504,0,341.04C0,351.496,8.504,360,18.96,360    H24v136h96h8h72h96h72h8h96V360h5.04c10.456,0,18.96-8.504,18.96-18.96C496,335.504,493.584,330.256,489.376,326.648z M256,16h80    v40h-80V16z M120,480H40V360h64v-16H18.96c-1.632,0-2.96-1.328-2.96-2.96c0-0.856,0.376-1.68,1.032-2.248L66.96,296H120V480z     M240,480h-24v-56h24V480z M280,480h-24v-56h24V480z M360,480h-64v-72h-96v72h-64V253.312l112-91.008l112,91.016V480z     M248,141.696L119.448,246.144c-1.472,1.192-3.336,1.856-5.256,1.856h-1.848c-4.6,0-8.344-3.744-8.344-8.344    c0-2.488,1.096-4.824,3.008-6.408l131.968-109.984c5.048-4.2,12.992-4.208,18.04,0.008L389,233.248c1.904,1.584,3,3.92,3,6.408    c0,4.6-3.744,8.344-8.344,8.344h-1.848c-1.912,0-3.792-0.664-5.264-1.864L248,141.696z M477.04,344H392v16h64v120h-80V296h53.04    l49.92,42.792c0.664,0.568,1.04,1.384,1.04,2.248C480,342.672,478.672,344,477.04,344z" fill="#f34f30"/>
	</g>
</g>
<g>
	<g>
		<rect x="392" y="376" width="16" height="16" fill="#f34f30"/>
	</g>
</g>
<g>
	<g>
		<rect x="424" y="376" width="16" height="16" fill="#f34f30"/>
	</g>
</g>
<g>
	<g>
		<rect x="288" y="360" width="16" height="16" fill="#f34f30"/>
	</g>
</g>
<g>
	<g>
		<rect x="320" y="360" width="16" height="16" fill="#f34f30"/>
	</g>
</g>
<g>
	<g>
		<rect x="160" y="360" width="16" height="16" fill="#f34f30"/>
	</g>
</g>
<g>
	<g>
		<rect x="192" y="360" width="16" height="16" fill="#f34f30"/>
	</g>
</g>
<g>
	<g>
		<rect x="392" y="408" width="16" height="16" fill="#f34f30"/>
	</g>
</g>
<g>
	<g>
		<rect x="424" y="408" width="16" height="16" fill="#f34f30"/>
	</g>
</g>
<g>
	<g>
		<rect x="88" y="376" width="16" height="16" fill="#f34f30"/>
	</g>
</g>
<g>
	<g>
		<rect x="56" y="376" width="16" height="16" fill="#f34f30"/>
	</g>
</g>
<g>
	<g>
		<rect x="88" y="408" width="16" height="16" fill="#f34f30"/>
	</g>
</g>
<g>
	<g>
		<rect x="56" y="408" width="16" height="16" fill="#f34f30"/>
	</g>
</g>
<g>
	<g>
		<path d="M224,344v48h48v-48H224z M256,376h-16v-16h16V376z" fill="#f34f30"/>
	</g>
</g>
<g>
	<g>
		<polygon points="256,256 256,240 240,240 240,272 272,272 272,256   " fill="#f34f30"/>
	</g>
</g>
</svg>
