<svg xmlns="http://www.w3.org/2000/svg" viewBox="0 0 175.39 137"><title>ic_banner</title><g id="Слой_2" data-name="Слой 2"><g id="Слой_1-2" data-name="Слой 1"><g id="Layer_2" data-name="Layer 2"><g id="Layer_1-2" data-name="Layer 1-2"><g opacity="0.5"><line x1="33.28" y1="102" x2="33.28" y2="97.37" fill="none" stroke="#cacaca" stroke-miterlimit="10" stroke-width="2"/><line x1="33.28" y1="89" x2="33.28" y2="42.97" fill="none" stroke="#cacaca" stroke-miterlimit="10" stroke-width="2" stroke-dasharray="8.37 8.37"/><line x1="33.28" y1="38.78" x2="33.28" y2="34.15" fill="none" stroke="#cacaca" stroke-miterlimit="10" stroke-width="2"/><line x1="58.99" y1="137" x2="58.99" y2="132.37" fill="none" stroke="#cacaca" stroke-miterlimit="10" stroke-width="2"/><line x1="58.99" y1="123.73" x2="58.99" y2="24.4" fill="none" stroke="#cacaca" stroke-miterlimit="10" stroke-width="2" stroke-dasharray="8.64 8.64"/><line x1="58.99" y1="20.08" x2="58.99" y2="15.45" fill="none" stroke="#cacaca" stroke-miterlimit="10" stroke-width="2"/><line x1="87.66" y1="97" x2="87.66" y2="92.37" fill="none" stroke="#cacaca" stroke-miterlimit="10" stroke-width="2"/><line x1="87.66" y1="82.62" x2="87.66" y2="9.5" fill="none" stroke="#cacaca" stroke-miterlimit="10" stroke-width="2" stroke-dasharray="9.75 9.75"/><line x1="87.66" y1="4.63" x2="87.66" fill="none" stroke="#cacaca" stroke-miterlimit="10" stroke-width="2"/><line x1="111.39" y1="117.58" x2="111.39" y2="112.95" fill="none" stroke="#cacaca" stroke-miterlimit="10" stroke-width="2"/><line x1="111.39" y1="104.38" x2="111.39" y2="22.92" fill="none" stroke="#cacaca" stroke-miterlimit="10" stroke-width="2" stroke-dasharray="8.57 8.57"/><line x1="111.39" y1="18.63" x2="111.39" y2="14" fill="none" stroke="#cacaca" stroke-miterlimit="10" stroke-width="2"/><line x1="142.05" y1="101.76" x2="142.05" y2="97.13" fill="none" stroke="#cacaca" stroke-miterlimit="10" stroke-width="2"/><line x1="142.05" y1="88.09" x2="142.05" y2="20.29" fill="none" stroke="#cacaca" stroke-miterlimit="10" stroke-width="2" stroke-dasharray="9.04 9.04"/><line x1="142.05" y1="15.77" x2="142.05" y2="11.14" fill="none" stroke="#cacaca" stroke-miterlimit="10" stroke-width="2"/></g><rect x="2" y="35.54" width="171.33" height="65.93" rx="2" ry="2" fill="#fff" stroke="#2d58de" stroke-miterlimit="10" stroke-width="4"/><line x1="78.33" y1="101.46" x2="116" y2="35.51" fill="none" stroke="#2d58de" stroke-miterlimit="10" stroke-width="4"/><line x1="85.33" y1="101.46" x2="123" y2="35.51" fill="none" stroke="#2d58de" stroke-miterlimit="10" stroke-width="4"/><line x1="93.33" y1="101.46" x2="131" y2="35.51" fill="none" stroke="#2d58de" stroke-miterlimit="10" stroke-width="4"/><line x1="101.33" y1="101.46" x2="139" y2="35.51" fill="none" stroke="#2d58de" stroke-miterlimit="10" stroke-width="4"/><line x1="109.33" y1="101.46" x2="147" y2="35.51" fill="none" stroke="#2d58de" stroke-miterlimit="10" stroke-width="4"/><line x1="117.33" y1="101.46" x2="155" y2="35.51" fill="none" stroke="#2d58de" stroke-miterlimit="10" stroke-width="4"/><line x1="125.33" y1="101.46" x2="163" y2="35.51" fill="none" stroke="#2d58de" stroke-miterlimit="10" stroke-width="4"/><line x1="133.33" y1="101.46" x2="171" y2="35.51" fill="none" stroke="#2d58de" stroke-miterlimit="10" stroke-width="4"/><line x1="141.33" y1="101.46" x2="173.66" y2="45.5" fill="none" stroke="#2d58de" stroke-miterlimit="10" stroke-width="4"/><line x1="149.33" y1="101.46" x2="173.66" y2="59.5" fill="none" stroke="#2d58de" stroke-miterlimit="10" stroke-width="4"/><line x1="157.33" y1="101.46" x2="173.66" y2="73.5" fill="none" stroke="#2d58de" stroke-miterlimit="10" stroke-width="4"/><line x1="165.33" y1="101.46" x2="172.66" y2="88.5" fill="none" stroke="#2d58de" stroke-linecap="round" stroke-linejoin="round" stroke-width="4"/><rect x="111.08" y="58.54" width="50" height="20" rx="2" ry="2" fill="#2d58de" stroke="#fff" stroke-miterlimit="10" stroke-width="4"/><line x1="17.83" y1="56.92" x2="56.41" y2="56.92" fill="none" stroke="#2d58de" stroke-miterlimit="10" stroke-width="3.09"/><line x1="17.66" y1="74.25" x2="80.66" y2="74.25" fill="none" stroke="#2d58de" stroke-miterlimit="10" stroke-width="1.54"/><line x1="17.66" y1="68.41" x2="74.47" y2="68.41" fill="none" stroke="#2d58de" stroke-miterlimit="10" stroke-width="1.54"/><line x1="17.66" y1="80.08" x2="66.21" y2="80.08" fill="none" stroke="#2d58de" stroke-miterlimit="10" stroke-width="1.54"/></g></g></g></g></svg>