<svg xmlns="http://www.w3.org/2000/svg" viewBox="0 0 135.48 187.23"><title>ic_mobile</title><g id="Слой_2" data-name="Слой 2"><g id="Слой_1-2" data-name="Слой 1"><g id="Layer_2" data-name="Layer 2"><g id="Layer_1-2" data-name="Layer 1-2"><g opacity="0.5"><line x1="1" y1="152.18" x2="1" y2="147.55" fill="none" stroke="#cacaca" stroke-miterlimit="10" stroke-width="2"/><line x1="1" y1="137.67" x2="1" y2="83.35" fill="none" stroke="#cacaca" stroke-miterlimit="10" stroke-width="2" stroke-dasharray="9.88 9.88"/><line x1="1" y1="78.42" x2="1" y2="73.78" fill="none" stroke="#cacaca" stroke-miterlimit="10" stroke-width="2"/><line x1="25.72" y1="163.25" x2="25.72" y2="158.62" fill="none" stroke="#cacaca" stroke-miterlimit="10" stroke-width="2"/><line x1="25.72" y1="149.65" x2="25.72" y2="64.45" fill="none" stroke="#cacaca" stroke-miterlimit="10" stroke-width="2" stroke-dasharray="8.97 8.97"/><line x1="25.72" y1="59.97" x2="25.72" y2="55.34" fill="none" stroke="#cacaca" stroke-miterlimit="10" stroke-width="2"/><line x1="51.43" y1="187.23" x2="51.43" y2="182.6" fill="none" stroke="#cacaca" stroke-miterlimit="10" stroke-width="2"/><line x1="51.43" y1="172.82" x2="51.43" y2="40.88" fill="none" stroke="#cacaca" stroke-miterlimit="10" stroke-width="2" stroke-dasharray="9.77 9.77"/><line x1="51.43" y1="35.99" x2="51.43" y2="31.36" fill="none" stroke="#cacaca" stroke-miterlimit="10" stroke-width="2"/><line x1="80.1" y1="179.61" x2="80.1" y2="174.98" fill="none" stroke="#cacaca" stroke-miterlimit="10" stroke-width="2"/><line x1="80.1" y1="166.02" x2="80.1" y2="9.11" fill="none" stroke="#cacaca" stroke-miterlimit="10" stroke-width="2" stroke-dasharray="8.97 8.97"/><line x1="80.1" y1="4.63" x2="80.1" fill="none" stroke="#cacaca" stroke-miterlimit="10" stroke-width="2"/><line x1="103.83" y1="162.33" x2="103.83" y2="157.7" fill="none" stroke="#cacaca" stroke-miterlimit="10" stroke-width="2"/><line x1="103.83" y1="148.85" x2="103.83" y2="11.82" fill="none" stroke="#cacaca" stroke-miterlimit="10" stroke-width="2" stroke-dasharray="8.84 8.84"/><line x1="103.83" y1="7.4" x2="103.83" y2="2.77" fill="none" stroke="#cacaca" stroke-miterlimit="10" stroke-width="2"/><line x1="134.48" y1="142.04" x2="134.48" y2="137.41" fill="none" stroke="#cacaca" stroke-miterlimit="10" stroke-width="2"/><line x1="134.48" y1="127.68" x2="134.48" y2="35.32" fill="none" stroke="#cacaca" stroke-miterlimit="10" stroke-width="2" stroke-dasharray="9.72 9.72"/><line x1="134.48" y1="30.46" x2="134.48" y2="25.82" fill="none" stroke="#cacaca" stroke-miterlimit="10" stroke-width="2"/></g><rect x="21.96" y="13.61" width="90" height="160" rx="4" ry="4" fill="#fff" stroke="#2d58de" stroke-miterlimit="10" stroke-width="4"/><rect x="28.89" y="20.83" width="76.15" height="128.79" rx="2" ry="2" fill="#fff" stroke="#2d58de" stroke-miterlimit="10" stroke-width="2"/><line x1="29.29" y1="130.61" x2="104.65" y2="130.61" fill="none" stroke="#2d58de" stroke-miterlimit="10" stroke-width="2"/><line x1="39.16" y1="88.28" x2="61.62" y2="88.28" fill="none" stroke="#2d58de" stroke-miterlimit="10" stroke-width="3.09"/><line x1="33.24" y1="25.76" x2="40.16" y2="25.76" fill="none" stroke="#2d58de" stroke-miterlimit="10" stroke-width="2"/><line x1="42.93" y1="25.76" x2="49.86" y2="25.76" fill="none" stroke="#2d58de" stroke-miterlimit="10" stroke-width="2"/><line x1="92.82" y1="25.76" x2="99.74" y2="25.76" fill="none" stroke="#2d58de" stroke-miterlimit="10" stroke-width="2"/><line x1="39.16" y1="105.61" x2="93.96" y2="105.61" fill="none" stroke="#2d58de" stroke-miterlimit="10" stroke-width="1.54"/><line x1="39.16" y1="99.77" x2="88.57" y2="99.77" fill="none" stroke="#2d58de" stroke-miterlimit="10" stroke-width="1.54"/><line x1="39.16" y1="111.44" x2="81.38" y2="111.44" fill="none" stroke="#2d58de" stroke-miterlimit="10" stroke-width="1.54"/><line x1="104.97" y1="30.61" x2="28.97" y2="30.61" fill="none" stroke="#2d58de" stroke-miterlimit="10" stroke-width="1.54"/><line x1="104.97" y1="76.61" x2="28.97" y2="76.61" fill="none" stroke="#2d58de" stroke-miterlimit="10" stroke-width="1.54"/><circle cx="66.97" cy="162.11" r="7.5" fill="#fff" stroke="#2d58de" stroke-miterlimit="10" stroke-width="2"/><circle cx="39.72" cy="140.11" r="5" fill="#fff" stroke="#2d58de" stroke-miterlimit="10"/><circle cx="57.89" cy="140.11" r="5" fill="#2d58de" stroke="#2d58de" stroke-miterlimit="10"/><circle cx="76.05" cy="140.11" r="5" fill="#fff" stroke="#2d58de" stroke-miterlimit="10"/><circle cx="94.22" cy="140.11" r="5" fill="#fff" stroke="#2d58de" stroke-miterlimit="10"/><polyline points="47.97 76.61 47.97 66.61 55.97 66.61 48.47 57.11 52.97 57.11 47.72 49.86 49.97 49.86 46.47 44.61 42.97 49.86 45.22 49.86 39.97 57.11 44.47 57.11 36.97 66.61 44.97 66.61 44.97 76.61" fill="none" stroke="#2d58de" stroke-linecap="round" stroke-linejoin="round"/><circle cx="91.47" cy="45.11" r="3.75" fill="none" stroke="#2d58de" stroke-linecap="round" stroke-linejoin="round"/><line x1="91.47" y1="39.49" x2="91.47" y2="37.61" fill="none" stroke="#2d58de" stroke-linecap="round" stroke-linejoin="round"/><line x1="91.47" y1="52.61" x2="91.47" y2="50.74" fill="none" stroke="#2d58de" stroke-linecap="round" stroke-linejoin="round"/><line x1="87.49" y1="41.14" x2="86.17" y2="39.81" fill="none" stroke="#2d58de" stroke-linecap="round" stroke-linejoin="round"/><line x1="96.77" y1="50.42" x2="95.45" y2="49.09" fill="none" stroke="#2d58de" stroke-linecap="round" stroke-linejoin="round"/><line x1="85.84" y1="45.11" x2="83.97" y2="45.11" fill="none" stroke="#2d58de" stroke-linecap="round" stroke-linejoin="round"/><line x1="98.97" y1="45.11" x2="97.09" y2="45.11" fill="none" stroke="#2d58de" stroke-linecap="round" stroke-linejoin="round"/><line x1="87.49" y1="49.09" x2="86.17" y2="50.42" fill="none" stroke="#2d58de" stroke-linecap="round" stroke-linejoin="round"/><line x1="96.77" y1="39.81" x2="95.45" y2="41.14" fill="none" stroke="#2d58de" stroke-linecap="round" stroke-linejoin="round"/><polyline points="50.92 54.29 57.97 54.29 67.13 63.45 70.97 59.61 82.97 59.61 93.47 70.11 97.47 66.11 103.97 66.11" fill="none" stroke="#2d58de" stroke-linecap="round" stroke-linejoin="round"/><line x1="42.01" y1="54.29" x2="29.97" y2="54.29" fill="none" stroke="#2d58de" stroke-linecap="round" stroke-linejoin="round"/></g></g></g></g></svg>