<svg xmlns="http://www.w3.org/2000/svg" viewBox="0 0 118.35 121.46"><title>ic_startups</title><g id="Слой_2" data-name="Слой 2"><g id="Слой_1-2" data-name="Слой 1"><g id="Layer_2" data-name="Layer 2"><g id="Layer_1-2" data-name="Layer 1-2"><g opacity="0.5"><line x1="20.41" y1="116.57" x2="20.41" y2="111.94" fill="none" stroke="#cacaca" stroke-miterlimit="10" stroke-width="2"/><line x1="20.41" y1="102.07" x2="20.41" y2="47.76" fill="none" stroke="#cacaca" stroke-miterlimit="10" stroke-width="2" stroke-dasharray="9.87 9.87"/><line x1="20.41" y1="42.82" x2="20.41" y2="38.19" fill="none" stroke="#cacaca" stroke-miterlimit="10" stroke-width="2"/><line x1="46.12" y1="119.99" x2="46.12" y2="115.36" fill="none" stroke="#cacaca" stroke-miterlimit="10" stroke-width="2"/><line x1="46.12" y1="105.91" x2="46.12" y2="16.12" fill="none" stroke="#cacaca" stroke-miterlimit="10" stroke-width="2" stroke-dasharray="9.45 9.45"/><line x1="46.12" y1="11.4" x2="46.12" y2="6.77" fill="none" stroke="#cacaca" stroke-miterlimit="10" stroke-width="2"/><line x1="74.92" y1="82.89" x2="74.9" y2="78.26" fill="none" stroke="#cacaca" stroke-miterlimit="10" stroke-width="2"/><line x1="74.86" y1="69.33" x2="74.71" y2="38.08" fill="none" stroke="#cacaca" stroke-miterlimit="10" stroke-width="2" stroke-dasharray="8.93 8.93"/><line x1="74.68" y1="33.62" x2="74.66" y2="28.99" fill="none" stroke="#cacaca" stroke-miterlimit="10" stroke-width="2"/><line x1="98.52" y1="115.9" x2="98.52" y2="111.27" fill="none" stroke="#cacaca" stroke-miterlimit="10" stroke-width="2"/><line x1="98.52" y1="101.58" x2="98.52" y2="9.48" fill="none" stroke="#cacaca" stroke-miterlimit="10" stroke-width="2" stroke-dasharray="9.69 9.69"/><line x1="98.52" y1="4.63" x2="98.52" fill="none" stroke="#cacaca" stroke-miterlimit="10" stroke-width="2"/></g><path d="M59.19,15.64a33.5,33.5,0,1,0-5.47,51.8l51.43,51.43a2,2,0,0,0,2.83,0h0L115,111.8a2,2,0,0,0,0-2.83h0l-2.83-2.83,3.54-3.54a2,2,0,0,0,0-2.83h0l-4.95-4.95a2,2,0,0,0-2.83,0h0l-3.54,3.54-4.95-4.95,9.9-9.9a2,2,0,0,0,0-2.83h0l-4.95-4.95a2,2,0,0,0-2.83,0h0l-9.9,9.9-4.95-4.95,3.54-3.54a2,2,0,0,0,0-2.83h0l-4.95-4.95a2,2,0,0,0-2.83,0h0L79,72.91,63.62,57.54A33.51,33.51,0,0,0,59.19,15.64Zm-39.6,39.6a22.5,22.5,0,1,1,31.82,0,22.5,22.5,0,0,1-31.82,0Z" fill="#fff" stroke="#2d58de" stroke-miterlimit="10" stroke-width="4"/></g></g></g></g></svg>