<svg xmlns="http://www.w3.org/2000/svg" viewBox="0 0 40 40"><defs><style>.cls-1{fill:#2d58de;}</style></defs><title>icDewelop</title><g id="Layer_2" data-name="Layer 2"><g id="Layer_1-2" data-name="Layer 1"><path class="cls-1" d="M39.14,17.89,35,13.75a7.28,7.28,0,0,0,2.89-1.82,6.91,6.91,0,0,0,1-1.35A6.13,6.13,0,0,0,39.55,9a7.49,7.49,0,0,0,.21-1.78,6.74,6.74,0,0,0-.55-2.66,6.91,6.91,0,0,0-1.46-2.21A7,7,0,0,0,35.57.86,6.7,6.7,0,0,0,32.89.31a6.6,6.6,0,0,0-4.06,1.35,6.76,6.76,0,0,0-2.46,3.46L22.11.82a3.18,3.18,0,0,0-1-.61,3.09,3.09,0,0,0-2.27,0,3.16,3.16,0,0,0-1,.61L12.07,6.68a1.1,1.1,0,0,0-.23,1.45,1.15,1.15,0,0,0,1.33.66,4.46,4.46,0,0,1,.9-.12A4.62,4.62,0,0,1,16,9.06a4.49,4.49,0,0,1,1.5,1.07,5.38,5.38,0,0,1,1,1.58,5,5,0,0,1,.37,1.91,5,5,0,0,1-1.37,3.57,4.46,4.46,0,0,1-3.4,1.46A4.77,4.77,0,0,1,11.58,18a5,5,0,0,1-1.82-1.84,5,5,0,0,1-.66-2.52c0-.13,0-.27,0-.41a2.62,2.62,0,0,1,.1-.49A1.13,1.13,0,0,0,9.1,12a1.36,1.36,0,0,0-.55-.57,1.1,1.1,0,0,0-.76-.12,1.29,1.29,0,0,0-.68.35L.86,17.89a3,3,0,0,0,0,4.18l17,17.07a1.59,1.59,0,0,0,.23.2l.23.18a1,1,0,0,0,.25.16l.25.12.25.1.29.06.29,0L20,40a3,3,0,0,0,2.11-.86l17-17.07a3,3,0,0,0,0-4.18ZM37.5,20.12a.5.5,0,0,1-.12.2l-17,17.07a.47.47,0,0,1-.7,0l-17-17.07a.4.4,0,0,1,0-.66l4.22-4.22a6.81,6.81,0,0,0,.29,1,6,6,0,0,0,.43.88q.25.43.55.84a7.17,7.17,0,0,0,.63.76,5.61,5.61,0,0,0,.72.64q.39.29.8.55a8.73,8.73,0,0,0,.86.47,5.68,5.68,0,0,0,.94.35,8.24,8.24,0,0,0,1,.21,6.58,6.58,0,0,0,1,.08,7.23,7.23,0,0,0,3.73-1,6.65,6.65,0,0,0,1.45-1.19,8.46,8.46,0,0,0,1.11-1.52,7.33,7.33,0,0,0,.72-1.8,7.89,7.89,0,0,0,.25-2A7.53,7.53,0,0,0,19.82,9a6.76,6.76,0,0,0-4-2.6l3.79-3.79a.61.61,0,0,1,.16-.12l.14-.06a.19.19,0,0,1,.12,0l.14.06a.65.65,0,0,1,.16.12l6.13,6.13A1.12,1.12,0,0,0,27.89,9a1.36,1.36,0,0,0,.41-.31,1.18,1.18,0,0,0,.25-.45,1.07,1.07,0,0,0,0-.49l0-.23a1.65,1.65,0,0,1,0-.31,4.23,4.23,0,0,1,.35-1.68,4.31,4.31,0,0,1,2.34-2.34A4.32,4.32,0,0,1,36,4.1a4.27,4.27,0,0,1,1.27,3.11,4.33,4.33,0,0,1-4.37,4.36h-.27l0,0h-.2a1.11,1.11,0,0,0-1.25.68,1.14,1.14,0,0,0,.23,1.43l6,6a.5.5,0,0,1,.12.21A.43.43,0,0,1,37.5,20.12Z"/></g></g></svg>