<svg xmlns="http://www.w3.org/2000/svg" viewBox="0 0 175.33 187.23"><title>slider_icon1</title><g id="Слой_2" data-name="Слой 2"><g id="Layer_1" data-name="Layer 1"><g opacity="0.5"><line x1="21.7" y1="152.18" x2="21.7" y2="147.55" fill="none" stroke="#cacaca" stroke-miterlimit="10" stroke-width="2"/><line x1="21.7" y1="137.67" x2="21.7" y2="83.35" fill="none" stroke="#cacaca" stroke-miterlimit="10" stroke-width="2" stroke-dasharray="9.88 9.88"/><line x1="21.7" y1="78.42" x2="21.7" y2="73.78" fill="none" stroke="#cacaca" stroke-miterlimit="10" stroke-width="2"/><line x1="46.41" y1="163.25" x2="46.41" y2="158.62" fill="none" stroke="#cacaca" stroke-miterlimit="10" stroke-width="2"/><line x1="46.41" y1="149.65" x2="46.41" y2="64.45" fill="none" stroke="#cacaca" stroke-miterlimit="10" stroke-width="2" stroke-dasharray="8.97 8.97"/><line x1="46.41" y1="59.97" x2="46.41" y2="55.34" fill="none" stroke="#cacaca" stroke-miterlimit="10" stroke-width="2"/><line x1="72.12" y1="187.23" x2="72.12" y2="182.6" fill="none" stroke="#cacaca" stroke-miterlimit="10" stroke-width="2"/><line x1="72.12" y1="172.82" x2="72.12" y2="40.88" fill="none" stroke="#cacaca" stroke-miterlimit="10" stroke-width="2" stroke-dasharray="9.77 9.77"/><line x1="72.12" y1="35.99" x2="72.12" y2="31.36" fill="none" stroke="#cacaca" stroke-miterlimit="10" stroke-width="2"/><line x1="100.8" y1="159.56" x2="100.8" y2="154.93" fill="none" stroke="#cacaca" stroke-miterlimit="10" stroke-width="2"/><line x1="100.8" y1="146.09" x2="100.8" y2="9.05" fill="none" stroke="#cacaca" stroke-miterlimit="10" stroke-width="2" stroke-dasharray="8.84 8.84"/><line x1="100.8" y1="4.63" x2="100.8" fill="none" stroke="#cacaca" stroke-miterlimit="10" stroke-width="2"/><line x1="124.53" y1="162.33" x2="124.53" y2="157.7" fill="none" stroke="#cacaca" stroke-miterlimit="10" stroke-width="2"/><line x1="124.53" y1="148.85" x2="124.53" y2="11.82" fill="none" stroke="#cacaca" stroke-miterlimit="10" stroke-width="2" stroke-dasharray="8.84 8.84"/><line x1="124.53" y1="7.4" x2="124.53" y2="2.77" fill="none" stroke="#cacaca" stroke-miterlimit="10" stroke-width="2"/><line x1="155.18" y1="142.04" x2="155.18" y2="137.41" fill="none" stroke="#cacaca" stroke-miterlimit="10" stroke-width="2"/><line x1="155.18" y1="127.68" x2="155.18" y2="35.32" fill="none" stroke="#cacaca" stroke-miterlimit="10" stroke-width="2" stroke-dasharray="9.72 9.72"/><line x1="155.18" y1="30.46" x2="155.18" y2="25.82" fill="none" stroke="#cacaca" stroke-miterlimit="10" stroke-width="2"/></g><rect x="2" y="35.41" width="171.33" height="100.33" rx="3.86" ry="3.86" fill="#fff" stroke="#2d58de" stroke-miterlimit="10" stroke-width="4"/><rect x="9.72" y="43.13" width="155.89" height="84.89" rx="0.77" ry="0.77" fill="#fff" stroke="#2d58de" stroke-miterlimit="10" stroke-width="2"/><rect x="9.72" y="43.13" width="155.89" height="9.26" fill="#fff" stroke="#2d58de" stroke-miterlimit="10" stroke-width="2"/><rect x="9.77" y="104.87" width="38.95" height="23.15" fill="#fff" stroke="#2d58de" stroke-miterlimit="10" stroke-width="2"/><rect x="48.72" y="104.87" width="38.95" height="23.15" fill="#fff" stroke="#2d58de" stroke-miterlimit="10" stroke-width="2"/><rect x="87.66" y="104.87" width="38.95" height="23.15" fill="#fff" stroke="#2d58de" stroke-miterlimit="10" stroke-width="2"/><rect x="126.61" y="104.87" width="38.95" height="23.15" fill="#fff" stroke="#2d58de" stroke-miterlimit="10" stroke-width="2"/><line x1="66.83" y1="66.28" x2="105.41" y2="66.28" fill="#fff" stroke="#2d58de" stroke-miterlimit="10" stroke-width="3.09"/><line x1="22.07" y1="47.76" x2="29.78" y2="47.76" fill="#fff" stroke="#2d58de" stroke-miterlimit="10" stroke-width="4"/><line x1="32.87" y1="47.76" x2="40.59" y2="47.76" fill="#fff" stroke="#2d58de" stroke-miterlimit="10" stroke-width="4"/><line x1="43.67" y1="47.76" x2="51.39" y2="47.76" fill="#fff" stroke="#2d58de" stroke-miterlimit="10" stroke-width="4"/><line x1="54.48" y1="47.76" x2="62.2" y2="47.76" fill="#fff" stroke="#2d58de" stroke-miterlimit="10" stroke-width="4"/><line x1="39.04" y1="83.61" x2="133.2" y2="83.61" fill="#fff" stroke="#2d58de" stroke-miterlimit="10" stroke-width="1.54"/><line x1="43.67" y1="77.77" x2="128.57" y2="77.77" fill="#fff" stroke="#2d58de" stroke-miterlimit="10" stroke-width="1.54"/><line x1="49.85" y1="89.44" x2="122.39" y2="89.44" fill="#fff" stroke="#2d58de" stroke-miterlimit="10" stroke-width="1.54"/><circle cx="14.73" cy="47.76" r="1.93" fill="#2d58de" stroke="#fff" stroke-miterlimit="10" stroke-width="1.54"/><rect x="68.37" y="135.74" width="37.04" height="23.15" fill="#fff" stroke="#2d58de" stroke-miterlimit="10" stroke-width="4"/><path d="M48.69,158.89h76.4a1.93,1.93,0,0,1,1.93,1.93v4.24a0,0,0,0,1,0,0H46.76a0,0,0,0,1,0,0v-4.24A1.93,1.93,0,0,1,48.69,158.89Z" fill="#fff" stroke="#2d58de" stroke-miterlimit="10" stroke-width="4"/></g></g></svg>