<?xml version="1.0" encoding="iso-8859-1"?>
<!-- Generator: Adobe Illustrator 19.0.0, SVG Export Plug-In . SVG Version: 6.00 Build 0)  -->
<svg xmlns="http://www.w3.org/2000/svg" xmlns:xlink="http://www.w3.org/1999/xlink" version="1.1" id="Capa_1" x="0px" y="0px" viewBox="0 0 512.002 512.002" style="enable-background:new 0 0 512.002 512.002;" xml:space="preserve" width="70px" height="70px">
<g>
	<g>
		<path d="M510.784,499.077c-10.374-15.76-24.725-28.501-41.602-36.936l-0.023-0.572c-1.917-38.167-5.233-76.217-9.875-113.092    c-3.392-27.442-7.742-56.075-12.958-85.15c-5.192-28.15-11.4-57.1-18.45-86.05c-4.827-19.985-10.304-40.513-16.129-60.703    c39.55-16.311,85.748,21.355,86.254,21.786c2.843,2.37,6.889,2.637,10.019,0.662s4.63-5.743,3.714-9.329    c-17.117-66.808-63.659-73.092-80.525-73.092c-0.108,0-0.208,0-0.317,0.009c-0.008-0.284,0-0.567,0.025-0.85    c1.084-10.6,23.208-29.258,38.575-39.125c3.047-1.954,4.53-5.617,3.7-9.14s-3.793-6.139-7.391-6.526    c-73.308-7.925-96.575,34.867-103.317,54.409c-18.497-5.652-38.56-2.602-54.542,8.292c-34.475,25.05-34.875,84.45-34.875,86.966    c-0.002,4.039,2.83,7.524,6.783,8.35c0.575,0.122,1.162,0.184,1.75,0.183c3.386-0.002,6.451-2.002,7.817-5.1    c15.242-34.716,45.56-36.892,69.454-32.034c3.222,17.294,6.214,35.003,9.096,53.992c4.292,28.742,7.775,57.292,10.358,84.883    c1.587,16.693,2.876,33.466,3.915,49.987c-40.32,15.204-83.154,22.636-126.239,21.904c-43.087,0.732-85.922-6.701-126.244-21.906    c1.045-16.544,2.333-33.309,3.927-50.003c2.575-27.575,6.059-56.125,10.342-84.842c2.89-19.011,5.882-36.723,9.104-54.016    c23.89-4.86,54.211-2.685,69.454,32.033c1.366,3.098,4.431,5.098,7.817,5.1c0.588,0,1.175-0.061,1.75-0.183    c3.953-0.826,6.785-4.312,6.784-8.35c0-2.517-0.4-61.917-34.875-86.967c-15.981-10.896-36.045-13.946-54.542-8.292    c-6.75-19.533-30.117-62.292-103.317-54.409c-3.598,0.388-6.56,3.004-7.39,6.527c-0.83,3.523,0.652,7.186,3.698,9.14    c15.367,9.85,37.492,28.492,38.575,39.125c0.025,0.283,0.033,0.566,0.025,0.85c-0.108-0.009-0.208-0.009-0.317-0.009    c-16.875,0-63.408,6.292-80.525,73.092c-0.916,3.586,0.584,7.354,3.714,9.329c3.13,1.975,7.176,1.708,10.019-0.662    c0.5-0.424,46.725-38.1,86.248-21.796c-5.88,20.439-11.325,40.853-16.123,60.704c-7,28.758-13.209,57.741-18.45,86.159    c-5.05,27.7-9.408,56.317-12.958,85.033c-4.642,36.892-7.958,74.942-9.875,113.183l-0.021,0.496    c-16.878,8.435-31.23,21.177-41.604,36.938c-1.583,2.636-1.625,5.92-0.111,8.596c1.515,2.676,4.352,4.33,7.427,4.329h162.133    c3.281,0,6.272-1.88,7.693-4.837c1.422-2.957,1.022-6.467-1.027-9.03c-13.561-15.766-30.459-28.318-49.47-36.747    c-0.675-19.269-1.055-38.192-1.055-56.22c0-10.255,0.094-20.059,0.282-29.583c17.354,32.928,53.529,68.149,128.91,68.149    s111.558-35.223,128.911-68.151c0.185,9.512,0.28,19.322,0.28,29.584c0,17.94-0.379,36.794-1.054,56.219    c-19.011,8.43-35.909,20.982-49.471,36.747c-2.049,2.562-2.448,6.073-1.027,9.03c1.422,2.957,4.412,4.837,7.694,4.837h162.133    c3.075,0.001,5.912-1.653,7.427-4.329C512.41,504.997,512.368,501.713,510.784,499.077z M451.71,455.615    c-8.163-2.215-16.584-3.34-25.043-3.347c-8.533,0.034-17.029,1.13-25.292,3.263c0.544-17.218,0.883-34.174,0.883-50.363    c0-18.254-0.305-35.105-0.891-51.248c13.97-0.55,27.959,0.442,41.711,2.96C447.006,389.206,449.9,422.351,451.71,455.615z     M430.526,272.361c3.99,22.731,7.385,45.076,10.252,66.854c-13.253-2.118-26.685-2.902-40.094-2.341    c-0.16-3.669-0.285-7.335-0.474-11.006l-0.516-9.854l-0.001-0.028l-0.009-0.152c-0.921-15.617-2.154-31.476-3.569-47.286    C407.667,268.927,419.172,270.202,430.526,272.361z M412.563,186.848c5.449,22.733,10.291,45.338,14.583,67.571    c-10.806-1.776-21.727-2.763-32.676-2.954c-2.2-22.234-4.979-44.991-8.269-67.974    C395.046,184.102,403.847,185.222,412.563,186.848z M294.359,118.818c2.913-16.088,11.262-30.688,23.65-41.358    c7.197-5.091,15.846-7.721,24.658-7.5c7.869,0.142,15.667,1.52,23.108,4.083c2.392,0.778,5.005,0.461,7.141-0.866    c2.136-1.327,3.579-3.528,3.942-6.017c0.308-2.083,7.408-45.692,63.025-49.792c-11.942,10.142-24.625,23.75-25.941,36.658    c-0.748,6.503,1.622,12.976,6.391,17.458c1.914,1.876,4.602,2.738,7.25,2.325c1.758-0.292,38.117-5.225,59.058,36.625    c-23.883-13.1-62.892-26.475-96.9-1.008c-2.33,1.758-5.382,2.242-8.142,1.292C366.868,105.46,324.501,93.693,294.359,118.818z     M25.418,110.41c20.9-41.4,57.259-36.858,59-36.6c2.648,0.411,5.335-0.45,7.25-2.325c4.77-4.482,7.14-10.956,6.391-17.458    c-1.317-12.892-13.967-26.492-25.9-36.625c55.15,4.225,62.658,47.708,62.983,49.758c0.363,2.489,1.806,4.69,3.942,6.017    c2.136,1.327,4.749,1.644,7.141,0.866c19.692-6.425,35.783-5.275,47.767,3.417c12.388,10.67,20.737,25.27,23.65,41.358    c-13.195-10.526-29.704-16.014-46.575-15.483c-13.868,0.198-27.607,2.693-40.658,7.383c-2.762,0.959-5.82,0.474-8.15-1.292    C88.293,84.001,49.318,97.318,25.418,110.41z M99.445,186.819c8.713-1.612,17.512-2.724,26.352-3.33    c-3.285,22.98-6.065,45.743-8.26,67.979c-10.943,0.19-21.858,1.168-32.66,2.925C89.199,232.007,94.037,209.398,99.445,186.819z     M81.486,272.333c11.354-2.146,22.856-3.411,34.405-3.785c-1.42,15.818-2.655,31.681-3.582,47.336l-0.517,9.992    c-0.19,3.692-0.313,7.329-0.473,10.998c-13.41-0.56-26.842,0.216-40.098,2.318C74.189,316.614,77.597,294.21,81.486,272.333z     M68.922,356.856c13.754-2.507,27.743-3.491,41.713-2.934c-0.587,16.205-0.892,33.03-0.892,51.246    c0,16.26,0.341,33.25,0.884,50.364c-8.263-2.134-16.759-3.23-25.293-3.264c-8.458,0.006-16.877,1.131-25.04,3.346    C62.107,422.311,65.001,389.177,68.922,356.856z M149.751,494.935h-30.283H26.293c15.376-16.214,36.697-25.459,59.042-25.6    C109.115,470.19,131.87,479.233,149.751,494.935z M103.897,168.753c3.602-14.305,7.497-28.848,11.683-43.627    c5.916,3.154,12.835,3.854,19.263,1.948c-2.285,12.657-4.454,25.666-6.567,39.232    C120.112,166.692,111.975,167.509,103.897,168.753z M256.001,426.668c-99.063,0-121.552-65.466-126.633-97.63    c40.675,14.268,83.531,21.318,126.633,20.83c43.105,0.488,85.963-6.562,126.64-20.832    C377.555,361.204,355.055,426.668,256.001,426.668z M383.724,166.306c-2.11-13.559-4.279-26.57-6.565-39.232    c6.424,1.916,13.345,1.217,19.256-1.945c4.183,14.668,8.081,29.214,11.692,43.639C400.029,167.516,391.89,166.694,383.724,166.306    z M460.801,494.935h-98.625c17.89-15.735,40.681-24.782,64.492-25.6c22.345,0.141,43.667,9.386,59.042,25.6H460.801z" fill="#f34f30"/>
	</g>
</g>
</svg>