<?xml version="1.0" encoding="utf-8"?>
<!-- Generator: Adobe Illustrator 22.0.1, SVG Export Plug-In . SVG Version: 6.00 Build 0)  -->
<svg version="1.1" id="Layer_1" xmlns="http://www.w3.org/2000/svg" xmlns:xlink="http://www.w3.org/1999/xlink" x="0px" y="0px"
	 viewBox="0 0 600 1000" style="enable-background:new 0 0 600 1000;" xml:space="preserve">
<g>
	<g>
		<g>
			<path d="M69,15.1h-5.1l2.5-8L69,15.1z M70.3,18.9l1.1,3.3h4.8L68.9,2.6h-5l-7,19.6h4.8l1.1-3.3H70.3z M9.8,18.3V6.1h3.8V2.4H9.8
				H5.1H1v3.7h4.1v12.2H1V22h12.6v-3.7H9.8z M181,22.1L181,22.1v-4.2V2h-4.2v15.8h-8.6V2h-4.2v15.8V22v0.1H181z M130,2.4h-4.5v11.1
				c0,3-1.4,4.9-3.6,4.9H121c-2.4,0-3.8-1.9-3.8-4.9V2.4h-4.5v11.4c0,5.6,3.1,8.7,8.3,8.7h0.8c5,0,8.1-3.1,8.1-8.7V2.4z M141.4,12.4
				V6.5h8.4c1.7,0,2.7,1.1,2.7,2.9c0,1.9-1,3.1-2.7,3.1H141.4z M136.7,22h4.8v-5.6h8l3,5.6h5.4l-3.6-6.7c2.1-1.2,3.3-3.4,3.3-6.1
				c0-4.1-2.9-6.9-7.7-6.9h-13.2V22z M105.7,22.2v-2.7V18v-3.4v-1.4v-2.1H92.9v3.5h8.3V18H86.6V6.7h19.1V2.6H87.4h-5.3H82v19.6h0.1
				h5.3H105.7z M50.7,22V10.6c0-5.6-3.1-8.7-8.3-8.7h-0.8c-2.5,0-4.6,0.8-6,2.3C34.1,2.8,32,2,29.4,2h-0.8c-5,0-8.1,3.1-8.1,8.7V22
				H25V10.9c0-3,1.4-4.9,3.6-4.9h0.8c2.4,0,3.8,1.9,3.8,4.9V22h0.1h4.3h0.1V10.9c0-3,1.4-4.9,3.6-4.9h0.8c2.4,0,3.8,1.9,3.8,4.9V22
				H50.7z"/>
		</g>
	</g>
</g>
</svg>
