<?xml version="1.0" encoding="utf-8"?>
<!-- Generator: Adobe Illustrator 22.0.1, SVG Export Plug-In . SVG Version: 6.00 Build 0)  -->
<svg version="1.1" id="Слой_1" xmlns="http://www.w3.org/2000/svg" xmlns:xlink="http://www.w3.org/1999/xlink" x="0px" y="0px"
	 viewBox="0 0 180 20" style="enable-background:new 0 0 180 20;" xml:space="preserve">
<style type="text/css">
	.st0{fill:#FFFFFF;}
</style>
<g>
	<g>
		<g>
			<path class="st0" d="M68.2,13.1h-5.1l2.5-8L68.2,13.1z M69.5,16.9l1.1,3.3h4.8L68.1,0.6h-5l-7,19.6h4.8l1.1-3.3
				C62,16.9,69.5,16.9,69.5,16.9z M9,16.3V4.1h3.8V0.4H9H4.3H0.2v3.7h4.1v12.2H0.2V20h12.6v-3.7H9z M180.2,20.1L180.2,20.1v-4.2V0
				H176v15.8h-8.6V0h-4.2v15.8V20v0.1H180.2z M129.2,0.4h-4.5v11.1c0,3-1.4,4.9-3.6,4.9h-0.9c-2.4,0-3.8-1.9-3.8-4.9V0.4h-4.5v11.4
				c0,5.6,3.1,8.7,8.3,8.7h0.8c5,0,8.1-3.1,8.1-8.7L129.2,0.4L129.2,0.4z M140.6,10.4V4.5h8.4c1.7,0,2.7,1.1,2.7,2.9
				c0,1.9-1,3.1-2.7,3.1h-8.4V10.4z M135.9,20h4.8v-5.6h8l3,5.6h5.4l-3.6-6.7c2.1-1.2,3.3-3.4,3.3-6.1c0-4.1-2.9-6.9-7.7-6.9h-13.2
				V20z M104.9,20.2v-2.7V16v-3.4v-1.4V9.1H92.1v3.5h8.3V16H85.8V4.7h19.1V0.6H86.6h-5.3h-0.1v19.6h0.1h5.3H104.9z M49.9,20V8.6
				c0-5.6-3.1-8.7-8.3-8.7h-0.8c-2.5,0-4.6,0.8-6,2.3C33.3,0.8,31.2,0,28.6,0h-0.8c-5,0-8.1,3.1-8.1,8.7V20h4.5V8.9
				c0-3,1.4-4.9,3.6-4.9h0.8c2.4,0,3.8,1.9,3.8,4.9V20h0.1h4.3h0.1V8.9c0-3,1.4-4.9,3.6-4.9h0.8c2.4,0,3.8,1.9,3.8,4.9V20H49.9z"/>
		</g>
	</g>
</g>
</svg>
