<?xml version="1.0" encoding="iso-8859-1"?>
<!-- Generator: Adobe Illustrator 19.0.0, SVG Export Plug-In . SVG Version: 6.00 Build 0)  -->
<svg xmlns="http://www.w3.org/2000/svg" xmlns:xlink="http://www.w3.org/1999/xlink" version="1.1" id="Capa_1" x="0px" y="0px" viewBox="0 0 496.32 496.32" style="enable-background:new 0 0 496.32 496.32;" xml:space="preserve" width="70px" height="70px">
<g>
	<g>
		<path d="M432.16,352c-17.648,0-32,14.352-32,32s14.352,32,32,32s32-14.352,32-32S449.808,352,432.16,352z M432.16,400    c-8.824,0-16-7.176-16-16c0-8.824,7.176-16,16-16c8.824,0,16,7.176,16,16C448.16,392.824,440.984,400,432.16,400z" fill="#f34f30"/>
	</g>
</g>
<g>
	<g>
		<path d="M104.712,95.008l15.872,1.976C124.072,69.064,147.968,48,176.16,48V32C139.912,32,109.192,59.088,104.712,95.008z" fill="#f34f30"/>
	</g>
</g>
<g>
	<g>
		<path d="M400.16,192c0,17.648-14.352,32-32,32v16c26.472,0,48-21.528,48-48H400.16z" fill="#f34f30"/>
	</g>
</g>
<g>
	<g>
		<path d="M32.16,184h16c0-22.056,17.944-40,40-40v-16C57.288,128,32.16,153.12,32.16,184z" fill="#f34f30"/>
	</g>
</g>
<g>
	<g>
		<path d="M495.848,377.704C492.6,331.888,454.08,296,408.16,296c-36.648,0-68.888,22.272-81.992,56h-14.536    c0.32-4.152,0.528-8.32,0.528-12.48V272h56c44.112,0,80-35.888,80-80c0-41.536-31.824-75.784-72.36-79.64    C371.944,71.824,337.696,40,296.16,40c-11.352,0-22.592,2.456-32.936,7.144C244.096,17.88,211.408,0,176.16,0    C121.152,0,75.976,42.936,72.408,97.408C30.76,104.864,0.16,140.928,0.16,184c0,42.976,30.488,78.944,72,86.504v69.008    c0,72.136,48.448,136.352,117.808,156.168l2.192,0.64l2.192-0.632c42.256-12.072,77.768-41.04,98.464-79.688h33.344    c13.104,33.728,45.344,56,81.992,56c45.92,0,84.44-35.888,87.672-81.448c0.224-2.152,0.336-4.344,0.336-6.552    S496.048,379.6,495.848,377.704z M72.16,224v30.16c-32.464-7.296-56-36.008-56-70.16c0-37.176,27.856-67.976,64.816-71.64    l7.184-1.112V104c0-48.52,39.48-88,88-88c32.024,0,61.552,17.448,77.072,45.536l3.944,7.144l7.064-4.088    C273.968,58.976,285,56,296.16,56c35.288,0,64,28.712,64,64v8h8c35.288,0,64,28.712,64,64c0,35.288-28.712,64-64,64h-56v-32h-8    c-30.168,0-60.376-7.128-87.352-20.624l-24.648-12.32l-24.648,12.328C140.536,216.872,110.328,224,80.16,224H72.16z     M192.16,479.664c-61.352-18.584-104-75.88-104-140.144v-99.672c29.952-1.16,59.704-8.752,86.504-22.16l17.496-8.744l17.496,8.744    c26.808,13.4,56.552,21,86.504,22.16v99.672c0,4.16-0.248,8.328-0.6,12.48h-71.4v-10.096c14.912-10.416,24-27.6,24-45.904    c0-30.88-25.128-56-56-56s-56,25.12-56,56c0,18.304,9.088,35.488,24,45.904V352v64v32h64v-32h50.336    C255.808,446.424,226.52,469.256,192.16,479.664z M172.168,330.608c-12.344-7.152-20.008-20.416-20.008-34.608    c0-22.056,17.944-40,40-40c22.056,0,40,17.944,40,40c0,14.192-7.664,27.456-20.008,34.608l-3.992,2.312V352h-32v-19.08    L172.168,330.608z M176.16,416h32v16h-32V416z M479.896,389.16C477.232,426.64,445.72,456,408.16,456    c-31.616,0-59.224-20.256-68.696-50.4l-1.76-5.6H176.16v-32h161.544l1.76-5.6c9.472-30.144,37.08-50.4,68.696-50.4    c37.56,0,69.072,29.36,71.752,67.096c0.168,1.616,0.248,3.248,0.248,4.904S480.08,387.288,479.896,389.16z" fill="#f34f30"/>
	</g>
</g>
</svg>
