<svg xmlns="http://www.w3.org/2000/svg" viewBox="0 0 48 48"><defs><style>.cls-adv_6-1{fill:#fff;}</style></defs><title>price</title><g id="Layer_2" data-name="Layer 2"><g id="Layer_1-2" data-name="Layer 1"><path class="cls-adv_6-1" d="M48,19.73q0,2.67-1,3.66L23.3,47.11a2.94,2.94,0,0,1-2.16.89A2.79,2.79,0,0,1,19,47.11L.89,29a3.09,3.09,0,0,1-.66-1A2.83,2.83,0,0,1,0,26.86,2.94,2.94,0,0,1,.89,24.7L24.61,1q1-1,3.56-1H44.34a3.52,3.52,0,0,1,2.58,1.08A3.52,3.52,0,0,1,48,3.66V19.73Zm-3-.19V3.66A.64.64,0,0,0,44.34,3H27.68l-.3,0-.28,0-.23,0a.29.29,0,0,0-.14.07L3,26.86,21.14,45,44.86,21.28A5.48,5.48,0,0,0,45,19.55ZM39,6.8A5.85,5.85,0,0,1,41.2,9a6,6,0,0,1,.8,3,5.78,5.78,0,0,1-1.76,4.24A5.78,5.78,0,0,1,36,18a5.94,5.94,0,0,1-3-.8A5.84,5.84,0,0,1,30.8,15a5.94,5.94,0,0,1-.8-3,5.78,5.78,0,0,1,1.76-4.24A5.78,5.78,0,0,1,36,6,6,6,0,0,1,39,6.8ZM39,12a3,3,0,0,0-3-3,3,3,0,0,0-2.13.87,3,3,0,0,0,0,4.27A3,3,0,0,0,36,15a3,3,0,0,0,3-3Z"/></g></g></svg>