<svg xmlns="http://www.w3.org/2000/svg" viewBox="0 0 20.17 20.17"><title>facebook_ic</title><g id="Слой_2" data-name="Слой 2"><g id="Layer_1" data-name="Layer 1"><path d="M20.17,10.11c0,3,0,5.93,0,8.89a1.12,1.12,0,0,1-.39.93.86.86,0,0,1-.6.23h-4c-.41,0-.43,0-.43-.46,0-1.71,0-3.43,0-5.14,0-.61,0-1.23,0-1.84s0-.63.65-.63h2c.4,0,.39,0,.41-.41,0-.69.08-1.37.1-2.06,0-.4,0-.41-.4-.41H15.32c-.53,0-.54,0-.54-.51s0-1.19,0-1.79a1.05,1.05,0,0,1,1.17-1.18c.47,0,.93,0,1.4,0s.44,0,.46-.42c0-.59.08-1.19.1-1.78,0-.41,0-.46-.45-.46a20.28,20.28,0,0,0-2.29,0,3.47,3.47,0,0,0-3.39,3.52c0,.73,0,1.45,0,2.18,0,.42,0,.43-.45.44H10c-.23,0-.34.08-.34.32q0,1.12,0,2.24c0,.24.1.33.33.33h1.23c.56,0,.56,0,.56.55q0,2,0,3.91c0,1,0,2.09,0,3.13,0,.47,0,.48-.46.48-3.39,0-6.78,0-10.17,0A1.18,1.18,0,0,1,0,19c0-.76,0-1.53,0-2.29Q0,9.15,0,1.54A4.2,4.2,0,0,1,0,1.1,1.13,1.13,0,0,1,1.09,0a3.24,3.24,0,0,1,.39,0H19.09a1,1,0,0,1,1.08,1.1c0,1,0,2.09,0,3.13Q20.17,7.17,20.17,10.11Z" fill="#f9f9f9"/></g></g></svg>