<svg xmlns="http://www.w3.org/2000/svg" viewBox="0 0 82.7 76.76"><title>form_face</title><g id="Слой_2" data-name="Слой 2"><g id="Layer_1" data-name="Layer 1"><path d="M2,74.76a98.22,98.22,0,0,1,78.7-.61" fill="none" stroke="#fff" stroke-linecap="round" stroke-linejoin="round" stroke-width="4"/><path d="M32.35,12.93c-1.63-5-5-8.53-8.9-9.49a8.42,8.42,0,0,0-8,2.27c-2.41,2.36-3.95,6.24-4.73,10.1-1.8,8.85.38,18.75,5.87,22.16a8.92,8.92,0,0,0,9.23,0C33.37,33.73,35.23,21.71,32.35,12.93Z" fill="none" stroke="#fff" stroke-linecap="round" stroke-linejoin="round" stroke-width="4"/><path d="M20.42,16.75l-.6-.05-.43,2.75a1,1,0,0,0,1.89.1c.49-.93.07-2.36-.7-2.36" fill="none" stroke="#fff" stroke-linecap="round" stroke-linejoin="round" stroke-width="4"/><path d="M64.52,11.74c-1.63-5-5-8.53-8.9-9.49a8.42,8.42,0,0,0-8,2.27c-2.41,2.36-3.95,6.24-4.73,10.1-1.8,8.85.38,18.75,5.87,22.16a8.92,8.92,0,0,0,9.23,0C65.54,32.54,67.4,20.52,64.52,11.74Z" fill="none" stroke="#fff" stroke-linecap="round" stroke-linejoin="round" stroke-width="4"/><path d="M52.59,15.56l-.6-.05-.43,2.75a1,1,0,0,0,1.89.1c.49-.93.07-2.36-.7-2.36" fill="none" stroke="#fff" stroke-linecap="round" stroke-linejoin="round" stroke-width="4"/></g></g></svg>