<svg xmlns="http://www.w3.org/2000/svg" viewBox="0 0 127.87 49.76"><title>form_legs</title><g id="Слой_2" data-name="Слой 2"><g id="Layer_1" data-name="Layer 1"><path d="M104.28,47.57c6.4-1.21,29.91-15.65,18.53-37.5-11.95-22.94-28,8.79-28.83,24.28a21.76,21.76,0,0,0,1,8A8.55,8.55,0,0,0,97,45.81a7.57,7.57,0,0,0,1.17.89A8.61,8.61,0,0,0,104.28,47.57Z" fill="#4665bb" stroke="#fff" stroke-linecap="round" stroke-linejoin="round" stroke-width="4"/><line x1="96.94" y1="45.76" x2="76.94" y2="15.76" fill="none" stroke="#fff" stroke-linecap="round" stroke-linejoin="round" stroke-width="4"/><path d="M23.59,47.57c-6.4-1.21-29.91-15.65-18.53-37.5C17-12.88,33.06,18.85,33.9,34.35a21.76,21.76,0,0,1-1,8,8.55,8.55,0,0,1-2.05,3.42,7.57,7.57,0,0,1-1.17.89A8.61,8.61,0,0,1,23.59,47.57Z" fill="#4665bb" stroke="#fff" stroke-linecap="round" stroke-linejoin="round" stroke-width="4"/><line x1="30.94" y1="45.76" x2="50.94" y2="15.76" fill="none" stroke="#fff" stroke-linecap="round" stroke-linejoin="round" stroke-width="4"/></g></g></svg>