<svg xmlns="http://www.w3.org/2000/svg" viewBox="0 0 85.35 149.08"><title>ic_logo</title><g id="Слой_2" data-name="Слой 2"><g id="Слой_1-2" data-name="Слой 1"><g id="Layer_2" data-name="Layer 2"><g id="Layer_1-2" data-name="Layer 1-2"><g opacity="0.5"><line x1="13.95" y1="136.5" x2="13.95" y2="131.87" fill="none" stroke="#cacaca" stroke-miterlimit="10" stroke-width="2"/><line x1="13.95" y1="123.39" x2="13.95" y2="42.87" fill="none" stroke="#cacaca" stroke-miterlimit="10" stroke-width="2" stroke-dasharray="8.48 8.48"/><line x1="13.95" y1="38.63" x2="13.95" y2="34" fill="none" stroke="#cacaca" stroke-miterlimit="10" stroke-width="2"/><line x1="42.62" y1="97" x2="42.62" y2="92.37" fill="none" stroke="#cacaca" stroke-miterlimit="10" stroke-width="2"/><line x1="42.62" y1="82.62" x2="42.62" y2="9.5" fill="none" stroke="#cacaca" stroke-miterlimit="10" stroke-width="2" stroke-dasharray="9.75 9.75"/><line x1="42.62" y1="4.63" x2="42.62" fill="none" stroke="#cacaca" stroke-miterlimit="10" stroke-width="2"/><line x1="66.35" y1="149.08" x2="66.35" y2="144.45" fill="none" stroke="#cacaca" stroke-miterlimit="10" stroke-width="2"/><line x1="66.35" y1="135.88" x2="66.35" y2="54.42" fill="none" stroke="#cacaca" stroke-miterlimit="10" stroke-width="2" stroke-dasharray="8.57 8.57"/><line x1="66.35" y1="50.13" x2="66.35" y2="45.5" fill="none" stroke="#cacaca" stroke-miterlimit="10" stroke-width="2"/></g><path d="M65.56,47.1A41,41,0,1,0,83.35,88.65,32.79,32.79,0,0,1,65.56,47.1Z" fill="#fff" stroke="#2d58de" stroke-linecap="round" stroke-linejoin="round" stroke-width="4"/><path d="M38.5,35A27.55,27.55,0,0,0,17.07,13.59,22,22,0,0,0,38.5,35Z" fill="#fff" stroke="#2d58de" stroke-linecap="round" stroke-linejoin="round" stroke-width="4"/><path d="M21.1,57.22a13.92,13.92,0,0,0,12.8-8.44A11.11,11.11,0,0,0,21.1,57.22Z" fill="#2d58de"/></g></g></g></g></svg>