<svg xmlns="http://www.w3.org/2000/svg" viewBox="0 0 33.83 40"><defs><style>.cls-1{fill:#2d58de;}</style></defs><title>icManag</title><g id="Layer_2" data-name="Layer 2"><g id="Layer_1-2" data-name="Layer 1"><path class="cls-1" d="M32.73,1.09A3.62,3.62,0,0,0,30.08,0H5.16A2.65,2.65,0,0,0,3.69.39a2.23,2.23,0,0,0-.86,1,3,3,0,0,0-.25,1.23v5H1.21a1.14,1.14,0,0,0-.86.37A1.24,1.24,0,0,0,0,8.79a1.27,1.27,0,0,0,.16.61,1.06,1.06,0,0,0,.45.45,1.27,1.27,0,0,0,.61.16H2.58v5H1.33a1.28,1.28,0,0,0-.61.16,1.07,1.07,0,0,0-.45.45,1.27,1.27,0,0,0-.16.61,1.17,1.17,0,0,0,.35.86,1.17,1.17,0,0,0,.86.35H2.58v5.08H1.29a1.08,1.08,0,0,0-.45.1,1.57,1.57,0,0,0-.39.25,1.05,1.05,0,0,0-.27.39,1.21,1.21,0,0,0,.27,1.35,1.16,1.16,0,0,0,.84.37H2.58v5H1.29A1.31,1.31,0,0,0,1,30a1.16,1.16,0,0,0-.29.12,1.24,1.24,0,0,0-.45.45,1.12,1.12,0,0,0-.12.29,1.27,1.27,0,0,0,0,.31,1.2,1.2,0,0,0,.37.88,1.16,1.16,0,0,0,.84.37H2.58v5a2.2,2.2,0,0,0,.8,1.93A3,3,0,0,0,5.12,40h25a3.73,3.73,0,0,0,3.75-3.75V3.75A3.62,3.62,0,0,0,32.73,1.09ZM25.08,37.5h-20v-5H6.37a1.27,1.27,0,0,0,1.25-1.25,1.22,1.22,0,0,0-.1-.47,1.06,1.06,0,0,0-.27-.39,1.59,1.59,0,0,0-.39-.25,1.18,1.18,0,0,0-.49-.1H5.08V25H6.37A1.13,1.13,0,0,0,7,24.82a1.48,1.48,0,0,0,.45-.45,1.13,1.13,0,0,0,.18-.62,1.14,1.14,0,0,0-.37-.86,1.24,1.24,0,0,0-.88-.35H5.08V17.46H6.41A1.23,1.23,0,0,0,7,17.3a1.13,1.13,0,0,0,.43-.43,1.24,1.24,0,0,0,.16-.62,1.48,1.48,0,0,0-.08-.47.89.89,0,0,0-.25-.39,1.59,1.59,0,0,0-.39-.25,1.18,1.18,0,0,0-.49-.1H5.08V10H6.29A1.2,1.2,0,0,0,7.5,8.79a1.24,1.24,0,0,0-.35-.88,1.14,1.14,0,0,0-.86-.37H5.08v-5h20Zm6.25-1.25a1.27,1.27,0,0,1-1.25,1.25h-2.5V2.5h2.5a1.27,1.27,0,0,1,1.25,1.25Z"/></g></g></svg>