<svg xmlns="http://www.w3.org/2000/svg" viewBox="0 0 312.32 101.57"><title>st_logo</title><g id="Слой_2" data-name="Слой 2"><g id="Layer_1" data-name="Layer 1"><g id="Layer_2" data-name="Layer 2"><g id="Layer_1-2" data-name="Layer 1-2"><path d="M152.11,42.11A5.7,5.7,0,0,1,154,46.25a8.37,8.37,0,0,1-2.15,6.2c-1.43,1.41-3.74,2.12-6.9,2.12a10.6,10.6,0,0,1-6.19-1.63,8.51,8.51,0,0,1-3.24-5.08l-.3-1.18,3.63-1.56.4,1.63A4.91,4.91,0,0,0,141,49.81a7.25,7.25,0,0,0,3.91.87,6.71,6.71,0,0,0,4.08-1c.8-.65,1.08-2.27,1.08-3.45a2,2,0,0,0-.91-1.6,11.67,11.67,0,0,0-3.07-1.78Q144,42,142,41.15a12.82,12.82,0,0,1-3.85-2.51,5.62,5.62,0,0,1-1.85-4.14c0-2.67.73-4.67,2.19-5.92s3.56-1.94,6.47-1.94a7.85,7.85,0,0,1,5.24,1.78,9.43,9.43,0,0,1,2.82,5l.65,2.5-4.33-1.4-.18-.55a4.89,4.89,0,0,0-1.6-2.68,4.52,4.52,0,0,0-2.59-.69,12.11,12.11,0,0,0-2.1.15,5.33,5.33,0,0,0-1.5.54,1.78,1.78,0,0,0-.8.93,5.85,5.85,0,0,0-.37,2.28,2,2,0,0,0,.89,1.63,11.74,11.74,0,0,0,3.06,1.78l4.07,1.71h0A12.83,12.83,0,0,1,152.11,42.11ZM180.88,27H160.61V30.9h8.19V54.23h3.89V30.9h8.19Zm15.58,8.61,5.33,14.73H193v3.89h14.34l-10.91-30-10.91,30h4.14Zm31.21,5.62a6.9,6.9,0,0,0,3.65-6.36A7,7,0,0,0,228.4,29c-1.78-1.3-4.41-2-7.77-2H215V54.22h3.89V30.9h1.78c6,0,6.8,2.12,6.8,4a3.05,3.05,0,0,1-1.69,3l-3,1.72,5.5,14.67h4l-4.72-12.91ZM238.14,30.9h8.19V54.23h3.89V30.9h8.19V27H238.14Zm43.21,11.44a19.35,19.35,0,0,1-.44,4.52,5.41,5.41,0,0,1-1.12,2.37,4.14,4.14,0,0,1-1.6,1.13,8.69,8.69,0,0,1-4.89,0,4.14,4.14,0,0,1-1.63-1.11,5.39,5.39,0,0,1-1.12-2.37,19.22,19.22,0,0,1-.45-4.52V27H266.2V42.33c0,4,.73,7,2.19,9s4,3.21,7.35,3.21,5.79-1.08,7.35-3.21,2.19-5,2.19-9V27h-3.89Zm28-13.36h0c-1.78-1.3-4.41-2-7.77-2h-5.68V54.24h3.89V30.9h1.78c6,0,6.8,2.12,6.8,4a3.05,3.05,0,0,1-1.69,3l-3.17,1.82L305.5,43l3.17-1.81a6.9,6.9,0,0,0,3.65-6.36A7,7,0,0,0,309.4,29ZM139.24,66.26h-3.89V93.49h17.4V89.6H139.26Zm21.61,27.23h3.89V66.26h-3.89Zm14.91,0h3.89V70.13H194V66.24H175.79Zm5.58-12.75h9.77V76.85h-9.77Zm20.54,12.75h17.4V89.6H205.78V70.13H220.1V66.24H201.9Zm15.34-12.77V76.83h-9.77v3.89Z" fill="#fff"/><path d="M84.26,40.92,80,31.25,80,31.14l-1.44-1L99.73,0,68.52,23.08l-1.82-3.4L64.21,4.6,49.72,15.48l-15.9,6.46L3.9,62.48l-.23.13L0,81.09,2.63,91.92l8.62,9.64H70.08l-6.51-16-4.14-24h6.7l10.44,6.63L77,74.85,84,77.41h6.48l6.46-11.63-.44-4.92Zm6,18.54L83.49,60.7,75.2,47.51l8.54,1.27Zm-10.58-18,1,2.24-3.2-.48L77.37,40l.93-1.62Zm3.85-25.31L74.83,27.52,72.61,26ZM68.41,30.78H48.74l9.53-8.29ZM44.28,66.06l7.43-8.39,3,2.75L58,79.6ZM57,85,42.55,89,43,71.15Zm-5.46-39.5L49.37,37l13.45,5.74ZM61.41,12l1.05,6.06L59,19,55.4,16Zm-11.27,8.1,1.95,2-6.85,5.65-5.82-3.76ZM46.69,44.71,36.31,41l7.78-6.39ZM36.29,27.42l5.28,3.41-6.65,5.46ZM34,45l14,5,1,3.87L33.86,71Zm4.4,27.67-.27,11.13-3.73-6.61Zm-1.65,17.9L18.59,95.08,31.26,80.77ZM17.62,89.37,29.46,55.44l-.14,20.72ZM30.78,33.71,29.69,40.6,19.47,49ZM6.43,89.41l-2-9.19L6.3,71l3.14,21.9Zm1.9-25.32.25-.35h0L27,48.65,12.52,90.24ZM28.79,97.24l11.28-2.81,9.33,2.23Zm31.26-8.32,3,7.36-15.54-3.9Zm4.86-31.87H57.63l-4.05-3.8-.9-3.34L67,46.36ZM57,35.31H74.85L73.9,37l-8.46.12,3.78,3.43ZM73.39,39.4l-.5,2.49-2.21-.72L70.31,41Zm6,25.21L69.3,58.21,71,49.33l8.8,14Zm9.56,8.19-.18.1H84.95l-3.27-1.18,1.88-5.33L90,70ZM89,64.29l3.46-.63.14,2.66Z" fill="#fff"/></g></g></g></g></svg>