<?xml version="1.0" encoding="UTF-8"?> <svg xmlns="http://www.w3.org/2000/svg" width="102" height="99" viewBox="0 0 102 99" fill="none"> <path d="M100 90.2162L92.1429 82.4324M100 90.2162L92.1429 98M100 90.2162H81.6667M8.85714 2V90.2162C8.85714 90.2162 16.3736 90.2162 28.2381 90.2162M8.85714 2L1 9.78378M8.85714 2L16.7143 9.78378M81.6667 90.2162V35.7297H72.2381V90.2162M81.6667 90.2162H72.2381M72.2381 90.2162C72.2381 90.2162 69.0456 90.2162 67 90.2162M67 90.2162C67 74.6121 67 60.6378 67 60.6378H58.0952V90.2162M67 90.2162C64.3407 90.2162 58.0952 90.2162 58.0952 90.2162M58.0952 90.2162H52.8571M52.8571 90.2162V54.9297H43.4286V90.2162M52.8571 90.2162H43.4286M43.4286 90.2162H37.6667M37.6667 90.2162V65.827H28.2381C28.2381 65.827 28.2381 76.6386 28.2381 90.2162M37.6667 90.2162C37.6667 90.2162 32.7384 90.2162 28.2381 90.2162" stroke="black" stroke-width="1.8"></path> </svg> 