<svg xmlns="http://www.w3.org/2000/svg" width="23" height="23"><title>collaboration</title><desc>Created with Sketch.</desc><g fill="none"><g><g><g id="Group"><g transform="translate(0 1)"><g id="Group" fill="#F34F30"><path id="Shape" d="M12.33 20.6v-.8c0-1 1.68-1.96 3.5-2.3 0 0 .56-.27.43-.8-.58-.64-.7-1.34-.7-1.34-.1-.04-.25-.12-.33-.23-.2-.26-.4-.82-.36-1.2.05-.42.16-.3.18-.35-.37-.88-.2-1.96.28-2.74.94-1.58 3-1.17 3.26-.42 1.93-.34 1.87 2.38 1.6 3.14 0 0 .18.03.14.72-.04.7-.66 1.15-.66 1.15-.02.2-.27.77-.67 1.28-.32.66.37.8.37.8 1.83.34 3.5 1.3 3.5 2.3v.8c0 .7-2.77 1.37-5.27 1.37-2.5 0-5.27-.24-5.27-1.36z"/></g><g fill="#F34F30"><path id="Shape" d="M0 20.6v-.8c0-1 1.7-1.96 3.52-2.3 0 0 .55-.27.42-.8-.58-.64-.7-1.34-.7-1.34-.1-.04-.25-.12-.33-.23-.2-.26-.4-.82-.35-1.2.05-.42.16-.3.18-.35-.37-.88-.2-1.96.28-2.74.95-1.58 3-1.17 3.27-.42 1.94-.34 1.88 2.38 1.6 3.14 0 0 .2.03.15.72-.04.7-.66 1.15-.66 1.15-.02.2-.27.77-.67 1.28-.34.66.35.8.35.8 1.83.34 3.5 1.3 3.5 2.3v.8c0 .7-2.77 1.37-5.27 1.37-2.5 0-5.27-.24-5.27-1.36z"/></g><path stroke="#F34F30" d="M7.48 7.92c2.12 0 4.84-1.2 4.84-3.98C12.32 1.76 10.47 0 7.48 0c-3.5 0-4.84 2.3-4.84 4.03 0 2.74 2.72 3.9 4.84 3.9zM9.86 7.43c.98.94 2.5 1.37 3.78 1.37 2.12 0 4.84-1.2 4.84-3.98 0-2.18-1.85-3.94-4.84-3.94-.96 0-1.76.17-2.4.46"/><ellipse id="Oval" cx=".88" cy="12.32" fill="#F34F30" rx=".88" ry=".88"/><ellipse id="Oval" cx="1.32" cy="8.36" fill="#F34F30" rx="1.32" ry="1.32"/><ellipse id="Oval" cx="22" cy="11.44" fill="#F34F30" rx=".88" ry=".88"/><ellipse cx="21.56" cy="7.48" fill="#F34F30" rx="1.32" ry="1.32"/></g></g></g></g></g></svg>