<svg xmlns="http://www.w3.org/2000/svg" width="18" height="18"><title>broom</title><desc>Created with Sketch.</desc><g fill="none"><g><g><g><g transform="translate(0 0)"><path id="Shape" fill="#F34F30" d="M15.58 7.14c-.23-.1-2.36-1.05-2.6-1.15-1.06-.5-2.32 0-2.8 1.07l6.48 2.88c.48-1.08 0-2.33-1.08-2.8zM17.14.14c-.35-.16-.73-.12-.85.1l-2.68 5 2.1.94L17.63.84c.1-.23-.14-.54-.5-.7z"/><path id="Shape" stroke="#F34F30" stroke-width="2" d="M15.6 10.86C14.3 14.9 12.57 17 12.57 17s-5.92-.22-9.76-4.96c.8.06 5.74-.37 7.44-3.65"/><path fill="#F34F30" d="M5.36 14.04s1.6-.06 2.62-1.1c-.8 1.46-1.5 1.84-1.5 1.84l-1.12-.74zM8.14 15.3s1.07.42 3.58-1.9c-.9 2.07-1.74 2.77-1.74 2.77l-1.84-.87z"/><ellipse id="Oval" cx="1.02" cy="3.74" fill="#F34F30" rx="1.02" ry="1.02"/><circle id="Oval" cx="4.08" cy="4.08" r=".68" fill="#F34F30"/><circle cx="3.74" cy="7.82" r="1.7" fill="#F34F30"/></g></g></g></g></g></svg>