<svg xmlns="http://www.w3.org/2000/svg" width="14" height="16"><title>cafe</title><desc>Created with Sketch.</desc><g fill="none"><g><g><g><g><path id="Shape" fill="#F34F30" d="M9.85 15.38c0 .34-.28.62-.62.62H.63c-.35 0-.63-.28-.63-.62V4.92c0-.34.28-.6.62-.6h8.6c.35 0 .63.26.63.6v10.46z"/><path id="Shape" stroke="#F34F30" d="M9.23 7.34s.75-.57 1.85-.57c1.5 0 1.84 1.23 1.84 1.85 0 2.72-3.7 2.94-3.7 4.9"/><path fill="#F34F30" d="M7.38 3.64C6.9 1.84 9.74 2.34 8 .48c.67 1.9-2.34 1.4-.62 3.16zM4.92 3.64C4.44 1.6 7.28 2.16 5.54.07 6.2 2.2 3.2 1.64 4.92 3.64zM2.46 3.64c-.48-1.8 2.36-1.3.62-3.16.67 1.9-2.34 1.4-.62 3.16z"/></g></g></g></g></g></svg>