<svg xmlns="http://www.w3.org/2000/svg" width="17" height="16"><title>office_lamp</title><desc>Created with Sketch.</desc><g fill="none"><g><g><g><g transform="translate(0 0)"><path id="Shape" fill="#F34F30" d="M14.95 15.38c0-.68-.56-1.23-1.25-1.23H7.47c-.68 0-1.24.55-1.24 1.23V16h8.72v-.62zM4.98 3.1s0 0 0-.02V1.23C4.98.55 4.42 0 3.74 0 3.04 0 2.5.55 2.5 1.23v1.85s0 .02 0 .03C1.03 3.77 0 5.48 0 7.1c0 0 .8.92 3.74.92 2.94 0 3.73-.92 3.73-.92 0-1.6-1.04-3.32-2.5-3.97z"/><path stroke="#F34F30" stroke-width="2" d="M10.6 14.77l4.28-7.44-4.92-5.48-6.22.6"/><ellipse id="Oval" cx="14.945" cy="7.385" fill="#F34F30" rx="1.245" ry="1.231"/><ellipse cx="9.963" cy="1.846" fill="#F34F30" rx="1.245" ry="1.231"/></g></g></g></g></g></svg>