<svg xmlns="http://www.w3.org/2000/svg" viewBox="0 0 54.99 52.5"><defs><style>.cls-adv_7-1{fill:#fff}</style></defs><title>tigr</title><g id="Layer_2" data-name="Layer 2"><path class="cls-adv_7-1" d="M22.71 24.74a2.36 2.36 0 0 0 .17-.88 1.28 1.28 0 0 0-.38-1 1.45 1.45 0 0 0-1-.33 2.88 2.88 0 0 0-1.28.3 6.58 6.58 0 0 0-1.29.86l-1.3-1.54a8.41 8.41 0 0 1 1.38-1 5 5 0 0 1 1.2-.45 6.1 6.1 0 0 1 1.45-.16 4.3 4.3 0 0 1 1.87.39A3 3 0 0 1 24.8 22a2.88 2.88 0 0 1 .45 1.59A3.91 3.91 0 0 1 25 25a5.64 5.64 0 0 1-.85 1.4 20.9 20.9 0 0 1-2 2l-1.45 1.37V30h4.93v2h-7.9v-1.68l2.84-2.87q1.26-1.29 1.65-1.79a4 4 0 0 0 .49-.92zM31.17 32v-2.36h-4.83V28l5-7.3h2.2v7.11h1.36v1.86h-1.4V32zm0-4.2v-3.32q0-.91.06-1.06h-.06a8.67 8.67 0 0 1-.69 1.24l-2.07 3.13zm19.63 1.93A1.5 1.5 0 0 0 49 30.9a23.22 23.22 0 0 1-.73 2.72 1.5 1.5 0 1 0 2.85.95A26.07 26.07 0 0 0 52 31.5a1.5 1.5 0 0 0-1.2-1.77zm-12 16.07a23.13 23.13 0 0 1-4.68 2.32 1.5 1.5 0 0 0 1 2.82 26.23 26.23 0 0 0 5.29-2.62 1.5 1.5 0 1 0-1.63-2.52zm9.32-7.93a1.5 1.5 0 0 0-2.06.5 23.42 23.42 0 0 1-3.21 4.13A1.5 1.5 0 0 0 45 44.59a26.44 26.44 0 0 0 3.62-4.66 1.5 1.5 0 0 0-.46-2.06zM29.07 49.33A23.25 23.25 0 1 1 26.25 3a23.36 23.36 0 0 1 19.83 11.14l-5.57 1.44L51 26.25l4-14.41-5.88 1.52A26.25 26.25 0 1 0 26.25 52.5a26.59 26.59 0 0 0 3.18-.19 1.5 1.5 0 0 0-.36-3z" id="Layer_1-2" data-name="Layer 1"/></g></svg>