<svg xmlns="http://www.w3.org/2000/svg" viewBox="0 0 85.35 149.08"><title>ic_logo</title><g data-name="Слой 2"><g data-name="Слой 1"><g data-name="Layer 2"><g data-name="Layer 1-2"><g opacity=".5" fill="none" stroke="#cacaca" stroke-miterlimit="10" stroke-width="2"><path d="M13.95 136.5v-4.63"/><path stroke-dasharray="8.48 8.48" d="M13.95 123.39V42.87"/><path d="M13.95 38.63V34m28.67 63v-4.63"/><path stroke-dasharray="9.75 9.75" d="M42.62 82.62V9.5"/><path d="M42.62 4.63V0m23.73 149.08v-4.63"/><path stroke-dasharray="8.57 8.57" d="M66.35 135.88V54.42"/><path d="M66.35 50.13V45.5"/></g><path d="M65.56 47.1a41 41 0 1 0 17.79 41.55A32.79 32.79 0 0 1 65.56 47.1zM38.5 35a27.55 27.55 0 0 0-21.43-21.41A22 22 0 0 0 38.5 35z" fill="#fff" stroke="#2d58de" stroke-linecap="round" stroke-linejoin="round" stroke-width="4"/><path d="M21.1 57.22a13.92 13.92 0 0 0 12.8-8.44 11.11 11.11 0 0 0-12.8 8.44z" fill="#2d58de"/></g></g></g></g></svg>