<svg xmlns="http://www.w3.org/2000/svg" viewBox="0 0 135.48 187.23"><title>ic_mobile</title><g data-name="Слой 2"><g data-name="Слой 1"><g data-name="Layer 2"><g data-name="Layer 1-2"><g opacity=".5" fill="none" stroke="#cacaca" stroke-miterlimit="10" stroke-width="2"><path d="M1 152.18v-4.63"/><path stroke-dasharray="9.88 9.88" d="M1 137.67V83.35"/><path d="M1 78.42v-4.64m24.72 89.47v-4.63"/><path stroke-dasharray="8.97 8.97" d="M25.72 149.65v-85.2"/><path d="M25.72 59.97v-4.63m25.71 131.89v-4.63"/><path stroke-dasharray="9.77 9.77" d="M51.43 172.82V40.88"/><path d="M51.43 35.99v-4.63M80.1 179.61v-4.63"/><path stroke-dasharray="8.97 8.97" d="M80.1 166.02V9.11"/><path d="M80.1 4.63V0m23.73 162.33v-4.63"/><path stroke-dasharray="8.84 8.84" d="M103.83 148.85V11.82"/><path d="M103.83 7.4V2.77m30.65 139.27v-4.63"/><path stroke-dasharray="9.72 9.72" d="M134.48 127.68V35.32"/><path d="M134.48 30.46v-4.64"/></g><rect x="21.96" y="13.61" width="90" height="160" rx="4" ry="4" fill="#fff" stroke="#2d58de" stroke-miterlimit="10" stroke-width="4"/><rect x="28.89" y="20.83" width="76.15" height="128.79" rx="2" ry="2" fill="#fff" stroke="#2d58de" stroke-miterlimit="10" stroke-width="2"/><path fill="none" stroke="#2d58de" stroke-miterlimit="10" stroke-width="2" d="M29.29 130.61h75.36"/><path fill="none" stroke="#2d58de" stroke-miterlimit="10" stroke-width="3.09" d="M39.16 88.28h22.46"/><path fill="none" stroke="#2d58de" stroke-miterlimit="10" stroke-width="2" d="M33.24 25.76h6.92m2.77 0h6.93m42.96 0h6.92"/><path fill="none" stroke="#2d58de" stroke-miterlimit="10" stroke-width="1.54" d="M39.16 105.61h54.8m-54.8-5.84h49.41m-49.41 11.67h42.22m23.59-80.83h-76m76 46h-76"/><circle cx="66.97" cy="162.11" r="7.5" fill="#fff" stroke="#2d58de" stroke-miterlimit="10" stroke-width="2"/><circle cx="39.72" cy="140.11" r="5" fill="#fff" stroke="#2d58de" stroke-miterlimit="10"/><circle cx="57.89" cy="140.11" r="5" fill="#2d58de" stroke="#2d58de" stroke-miterlimit="10"/><circle cx="76.05" cy="140.11" r="5" fill="#fff" stroke="#2d58de" stroke-miterlimit="10"/><circle cx="94.22" cy="140.11" r="5" fill="#fff" stroke="#2d58de" stroke-miterlimit="10"/><path fill="none" stroke="#2d58de" stroke-linecap="round" stroke-linejoin="round" d="M47.97 76.61v-10h8l-7.5-9.5h4.5l-5.25-7.25h2.25l-3.5-5.25-3.5 5.25h2.25l-5.25 7.25h4.5l-7.5 9.5h8v10"/><circle cx="91.47" cy="45.11" r="3.75" fill="none" stroke="#2d58de" stroke-linecap="round" stroke-linejoin="round"/><path fill="none" stroke="#2d58de" stroke-linecap="round" stroke-linejoin="round" d="M91.47 39.49v-1.88m0 15v-1.87m-3.98-9.6l-1.32-1.33m10.6 10.61l-1.32-1.33m-9.61-3.98h-1.87m15 0h-1.88m-9.6 3.98l-1.32 1.33m10.6-10.61l-1.32 1.33M50.92 54.29h7.05l9.16 9.16 3.84-3.84h12l10.5 10.5 4-4h6.5M42.01 54.29H29.97"/></g></g></g></g></svg>