<svg xmlns="http://www.w3.org/2000/svg" viewBox="0 0 118.35 121.46"><title>ic_startups</title><g data-name="Слой 2"><g data-name="Слой 1"><g data-name="Layer 2"><g data-name="Layer 1-2" stroke-miterlimit="10"><g opacity=".5" fill="none" stroke="#cacaca" stroke-width="2"><path d="M20.41 116.57v-4.63"/><path stroke-dasharray="9.87 9.87" d="M20.41 102.07V47.76"/><path d="M20.41 42.82v-4.63m25.71 81.8v-4.63"/><path stroke-dasharray="9.45 9.45" d="M46.12 105.91V16.12"/><path d="M46.12 11.4V6.77m28.8 76.12l-.02-4.63"/><path stroke-dasharray="8.93 8.93" d="M74.86 69.33l-.15-31.25"/><path d="M74.68 33.62l-.02-4.63m23.86 86.91v-4.63"/><path stroke-dasharray="9.69 9.69" d="M98.52 101.58V9.48"/><path d="M98.52 4.63V0"/></g><path d="M59.19 15.64a33.5 33.5 0 1 0-5.47 51.8l51.43 51.43a2 2 0 0 0 2.83 0l7.02-7.07a2 2 0 0 0 0-2.83l-2.83-2.83 3.54-3.54a2 2 0 0 0 0-2.83l-4.95-4.95a2 2 0 0 0-2.83 0l-3.54 3.54-4.95-4.95 9.9-9.9a2 2 0 0 0 0-2.83l-4.95-4.95a2 2 0 0 0-2.83 0l-9.9 9.9-4.95-4.95 3.54-3.54a2 2 0 0 0 0-2.83l-4.95-4.95a2 2 0 0 0-2.83 0L79 72.91 63.62 57.54a33.51 33.51 0 0 0-4.43-41.9zm-39.6 39.6a22.5 22.5 0 1 1 31.82 0 22.5 22.5 0 0 1-31.82 0z" fill="#fff" stroke="#2d58de" stroke-width="4"/></g></g></g></g></svg>