<svg xmlns="http://www.w3.org/2000/svg" viewBox="0 0 32.5 40.02"><defs><style>.cls-1{fill:#2d58de}</style></defs><title>icDesign</title><g id="Layer_2" data-name="Layer 2"><path class="cls-1" d="M12.44 15.74a2.09 2.09 0 0 1 .06.51 2.53 2.53 0 0 1-2.5 2.5 2.49 2.49 0 0 1-1.76-4.26 2.4 2.4 0 0 1 1.76-.74 2.09 2.09 0 0 1 .51.06A3.38 3.38 0 0 1 11 14a2.32 2.32 0 0 1 .43.23 2.53 2.53 0 0 1 .64.64 2.32 2.32 0 0 1 .23.43 3.38 3.38 0 0 1 .14.44zm11.84-1.27a2.47 2.47 0 0 0-.8-.53 2.53 2.53 0 0 0-2.23.14 2.39 2.39 0 0 0-.92.92 2.53 2.53 0 0 0-.14 2.23 2.38 2.38 0 0 0 1.33 1.33 2.5 2.5 0 0 0 1 .2 2.53 2.53 0 0 0 2.5-2.5 2.52 2.52 0 0 0-.2-1 2.47 2.47 0 0 0-.54-.79zm8.22 2.91v21.37a1.15 1.15 0 0 1-.23.7 1.47 1.47 0 0 1-.59.47 1.12 1.12 0 0 1-.74.06 1.09 1.09 0 0 1-.62-.41l-4.62-5.16-3.7 5.08a1.39 1.39 0 0 1-.27.27 1.12 1.12 0 0 1-.35.18 1.36 1.36 0 0 1-.39.06 1.12 1.12 0 0 1-1-.51l-3.67-5-3.67 5a1.54 1.54 0 0 1-.45.37 1.18 1.18 0 0 1-.57.14 1.22 1.22 0 0 1-1-.51l-3.72-5.11-4.72 5.23a1.2 1.2 0 0 1-.94.39 1.15 1.15 0 0 1-.43-.08 1.47 1.47 0 0 1-.59-.47 1.15 1.15 0 0 1-.23-.7V17.38a17.94 17.94 0 0 1 2.19-8.71 16.75 16.75 0 0 1 5.92-6.35A15.11 15.11 0 0 1 16.25 0a14.47 14.47 0 0 1 2.11.16 15.48 15.48 0 0 1 9.92 5.54 17.56 17.56 0 0 1 4.22 11.68zm-2.5 0a15.47 15.47 0 0 0-1.86-7.46 14.33 14.33 0 0 0-5-5.43 12.86 12.86 0 0 0-13.75 0 14.32 14.32 0 0 0-5 5.43 15.46 15.46 0 0 0-1.89 7.46v18.13l3.59-3.95a1.16 1.16 0 0 1 .9-.39h.31a.62.62 0 0 1 .21.08l.18.12.18.14a.51.51 0 0 1 .14.16l3.59 5 3.71-5a1.22 1.22 0 0 1 1-.51 1.12 1.12 0 0 1 1 .51l3.63 5 3.67-5a1.12 1.12 0 0 1 .41-.37 1.1 1.1 0 0 1 .53-.14 1.12 1.12 0 0 1 1 .43L30 35.47z" id="Layer_1-2" data-name="Layer 1"/></g></svg>