<svg xmlns="http://www.w3.org/2000/svg" viewBox="0 0 312.32 101.57"><title>st_logo</title><g data-name="Слой 2"><g data-name="Layer 1"><g data-name="Layer 2"><path d="M152.11 42.11a5.7 5.7 0 0 1 1.89 4.14 8.37 8.37 0 0 1-2.15 6.2c-1.43 1.41-3.74 2.12-6.9 2.12a10.6 10.6 0 0 1-6.19-1.63 8.51 8.51 0 0 1-3.24-5.08l-.3-1.18 3.63-1.56.4 1.63a4.91 4.91 0 0 0 1.75 3.06 7.25 7.25 0 0 0 3.91.87 6.71 6.71 0 0 0 4.08-1c.8-.65 1.08-2.27 1.08-3.45a2 2 0 0 0-.91-1.6 11.67 11.67 0 0 0-3.07-1.78Q144 42 142 41.15a12.82 12.82 0 0 1-3.85-2.51 5.62 5.62 0 0 1-1.85-4.14c0-2.67.73-4.67 2.19-5.92s3.56-1.94 6.47-1.94a7.85 7.85 0 0 1 5.24 1.78 9.43 9.43 0 0 1 2.82 5l.65 2.5-4.33-1.4-.18-.55a4.89 4.89 0 0 0-1.6-2.68 4.52 4.52 0 0 0-2.59-.69 12.11 12.11 0 0 0-2.1.15 5.33 5.33 0 0 0-1.5.54 1.78 1.78 0 0 0-.8.93 5.85 5.85 0 0 0-.37 2.28 2 2 0 0 0 .89 1.63 11.74 11.74 0 0 0 3.06 1.78l4.07 1.71a12.83 12.83 0 0 1 3.89 2.49zM180.88 27h-20.27v3.9h8.19v23.33h3.89V30.9h8.19zm15.58 8.61l5.33 14.73H193v3.89h14.34l-10.91-30-10.91 30h4.14zm31.21 5.62a6.9 6.9 0 0 0 3.65-6.36A7 7 0 0 0 228.4 29c-1.78-1.3-4.41-2-7.77-2H215v27.22h3.89V30.9h1.78c6 0 6.8 2.12 6.8 4a3.05 3.05 0 0 1-1.69 3l-3 1.72 5.5 14.67h4l-4.72-12.91zm10.47-10.33h8.19v23.33h3.89V30.9h8.19V27h-20.27zm43.21 11.44a19.35 19.35 0 0 1-.44 4.52 5.41 5.41 0 0 1-1.12 2.37 4.14 4.14 0 0 1-1.6 1.13 8.69 8.69 0 0 1-4.89 0 4.14 4.14 0 0 1-1.63-1.11 5.39 5.39 0 0 1-1.12-2.37 19.22 19.22 0 0 1-.45-4.52V27h-3.9v15.33c0 4 .73 7 2.19 9s4 3.21 7.35 3.21 5.79-1.08 7.35-3.21 2.19-5 2.19-9V27h-3.89zm28-13.36c-1.78-1.3-4.41-2-7.77-2h-5.68v27.26h3.89V30.9h1.78c6 0 6.8 2.12 6.8 4a3.05 3.05 0 0 1-1.69 3l-3.17 1.82L305.5 43l3.17-1.81a6.9 6.9 0 0 0 3.65-6.36A7 7 0 0 0 309.4 29zM139.24 66.26h-3.89v27.23h17.4V89.6h-13.49zm21.61 27.23h3.89V66.26h-3.89zm14.91 0h3.89V70.13H194v-3.89h-18.21zm5.58-12.75h9.77v-3.89h-9.77zm20.54 12.75h17.4V89.6h-13.5V70.13h14.32v-3.89h-18.2zm15.34-12.77v-3.89h-9.77v3.89zM84.26 40.92L80 31.25v-.11l-1.44-1L99.73 0 68.52 23.08l-1.82-3.4L64.21 4.6 49.72 15.48l-15.9 6.46L3.9 62.48l-.23.13L0 81.09l2.63 10.83 8.62 9.64h58.83l-6.51-16-4.14-24h6.7l10.44 6.63.43 6.66 7 2.56h6.48l6.46-11.63-.44-4.92zm6 18.54l-6.77 1.24-8.29-13.19 8.54 1.27zm-10.58-18l1 2.24-3.2-.48-.11-3.22.93-1.62zm3.85-25.31l-8.7 11.37L72.61 26zM68.41 30.78H48.74l9.53-8.29zM44.28 66.06l7.43-8.39 3 2.75L58 79.6zM57 85l-14.45 4L43 71.15zm-5.46-39.5L49.37 37l13.45 5.74zM61.41 12l1.05 6.06L59 19l-3.6-3zm-11.27 8.1l1.95 2-6.85 5.65-5.82-3.76zm-3.45 24.61L36.31 41l7.78-6.39zm-10.4-17.29l5.28 3.41-6.65 5.46zM34 45l14 5 1 3.87L33.86 71zm4.4 27.67l-.27 11.13-3.73-6.61zm-1.65 17.9l-18.16 4.51 12.67-14.31zm-19.13-1.2l11.84-33.93-.14 20.72zm13.16-55.66l-1.09 6.89L19.47 49zM6.43 89.41l-2-9.19L6.3 71l3.14 21.9zm1.9-25.32l.25-.35L27 48.65 12.52 90.24zm20.46 33.15l11.28-2.81 9.33 2.23zm31.26-8.32l3 7.36-15.54-3.9zm4.86-31.87h-7.28l-4.05-3.8-.9-3.34L67 46.36zM57 35.31h17.85L73.9 37l-8.46.12 3.78 3.43zm16.39 4.09l-.5 2.49-2.21-.72-.37-.17zm6 25.21l-10.09-6.4 1.7-8.88 8.8 14zm9.56 8.19l-.18.1h-3.82l-3.27-1.18 1.88-5.33L90 70zm.05-8.51l3.46-.63.14 2.66z" data-name="Layer 1-2" fill="#fff"/></g></g></g></svg>