<svg xmlns="http://www.w3.org/2000/svg" viewBox="0 0 41.25 58.61"><title>Ресурс 20</title><g id="Слой_2" data-name="Слой 2"><g id="Слой_1-2" data-name="Слой 1"><path d="M20.76,58.61c-6.88,0-9.48-1.38-9.59-1.44L10.8,57v-6.8a9.26,9.26,0,0,1,5.06-8.08,8,8,0,0,1-3.74-6.64c0-4.45,3.88-8.07,8.64-8.07S29.4,31,29.4,35.44a8,8,0,0,1-3.74,6.64,9.26,9.26,0,0,1,5.06,8.08V57l-.47.17A29.63,29.63,0,0,1,20.76,58.61Zm-8.53-2.54c.9.34,3.49,1.11,8.53,1.11A30.39,30.39,0,0,0,29.29,56V50.16a8,8,0,0,0-5.5-7.35L22,42.2l1.7-.72a6.66,6.66,0,0,0,4.22-6,7,7,0,0,0-7.21-6.64,7,7,0,0,0-7.21,6.64,6.66,6.66,0,0,0,4.22,6l1.7.72-1.74.61a8,8,0,0,0-5.5,7.35ZM30,56.54h0Z"/><path d="M32.21,54.55H32a.71.71,0,0,1,0-1.43h.17a14.13,14.13,0,0,0,7.61-2.22V45.53A7.1,7.1,0,0,0,34.91,39l-1.74-.61,1.7-.72a5.93,5.93,0,0,0,3.76-5.37,6.19,6.19,0,0,0-6.42-5.91,6.85,6.85,0,0,0-3.08.72h0l-.4.22A.71.71,0,0,1,28,26.08l.49-.27h0a8.29,8.29,0,0,1,3.72-.88,7.62,7.62,0,0,1,7.85,7.34,7.22,7.22,0,0,1-3.3,6,8.4,8.4,0,0,1,4.49,7.28v6.1l-.27.21A15.16,15.16,0,0,1,32.21,54.55Z"/><path d="M9.21,54.55H9A15.16,15.16,0,0,1,.27,51.84L0,51.62v-6.1a8.4,8.4,0,0,1,4.49-7.28,7.22,7.22,0,0,1-3.3-6A7.62,7.62,0,0,1,9,24.93a8.29,8.29,0,0,1,3.72.88h0l.49.27a.71.71,0,1,1-.73,1.23l-.4-.22h0A6.85,6.85,0,0,0,9,26.36a6.19,6.19,0,0,0-6.42,5.91,5.93,5.93,0,0,0,3.76,5.37l1.7.72L6.33,39a7.1,7.1,0,0,0-4.91,6.55V50.9A14.21,14.21,0,0,0,9,53.13h.17a.71.71,0,1,1,0,1.43Z"/><path d="M22.14,20.3a.71.71,0,0,1-.24-1.38c1.29-.47,4-1.45,4.64-2.83l.4-.86.71.63a6.21,6.21,0,0,0,2.21,1.25.71.71,0,1,1-.44,1.36,7.66,7.66,0,0,1-2.07-1c-1.08,1.32-3.1,2.14-5,2.82A.72.72,0,0,1,22.14,20.3Zm-3.41,0a.71.71,0,0,1-.25,0,9.89,9.89,0,0,1-4.33-2.75,7.68,7.68,0,0,1-4.23,2,.71.71,0,1,1-.2-1.41,6.2,6.2,0,0,0,4-2.2l.72-.89.48,1c.49,1.06,1.86,2,4.08,2.88a.71.71,0,0,1-.25,1.38ZM6.23,19.11a.72.72,0,0,1-.25,0,7.06,7.06,0,0,1-4.72-6.55A7.33,7.33,0,0,1,8.81,5.44a7.93,7.93,0,0,1,2,.25A9.09,9.09,0,0,1,19.37,0,9.15,9.15,0,0,1,28,5.73a8,8,0,0,1,3.89-1,7.33,7.33,0,0,1,7.55,7.07,7.08,7.08,0,0,1-4.29,6.37.71.71,0,0,1-.58-1.3A5.58,5.58,0,0,0,38,11.79a5.9,5.9,0,0,0-6.13-5.64A6.39,6.39,0,0,0,28,7.42l-.87.66L26.88,7a7.61,7.61,0,0,0-7.51-5.58,7.59,7.59,0,0,0-7.44,5.34l-.2.74L11,7.25a6.55,6.55,0,0,0-2.19-.38,5.9,5.9,0,0,0-6.13,5.64,5.64,5.64,0,0,0,3.8,5.22.71.71,0,0,1-.25,1.38Z"/><path d="M9.61,22.19a.71.71,0,0,1-.5-.2l-3-3a.71.71,0,0,1,1-1l3,3a.71.71,0,0,1-.5,1.22Z"/><path d="M9.61,22.19H9.55a.72.72,0,0,1-.65-.77l.21-2.65a.71.71,0,1,1,1.42.12l-.21,2.65A.71.71,0,0,1,9.61,22.19Z"/><path d="M31.13,22.35a.71.71,0,0,1-.54-1.18L34.2,17a.71.71,0,0,1,1.08.94L31.67,22.1A.71.71,0,0,1,31.13,22.35Z"/><path d="M31.13,22.35a.71.71,0,0,1-.69-.52l-1-3.71a.71.71,0,0,1,1.38-.38l1,3.71a.71.71,0,0,1-.5.88Z"/><path d="M20.66,24.7a.71.71,0,0,1-.65-.43l-1.92-4.39a.71.71,0,1,1,1.31-.57l1.92,4.39a.71.71,0,0,1-.37.94A.71.71,0,0,1,20.66,24.7Z"/><path d="M20.66,24.7a.72.72,0,0,1-.23,0,.71.71,0,0,1-.45-.91l1.48-4.39a.71.71,0,0,1,1.35.46l-1.48,4.39A.71.71,0,0,1,20.66,24.7Z"/></g></g></svg>