<?xml version="1.0" encoding="iso-8859-1"?>
<!-- Generator: Adobe Illustrator 21.0.0, SVG Export Plug-In . SVG Version: 6.00 Build 0)  -->
<svg version="1.1" id="Layer_1" xmlns="http://www.w3.org/2000/svg" xmlns:xlink="http://www.w3.org/1999/xlink" x="0px" y="0px"
	 viewBox="0 0 100.354 100.352" style="enable-background:new 0 0 100.354 100.352; fill:#F2F2F2;" xml:space="preserve">
<g>
	<path d="M72.396,15.004V6.536H26.689v8.468H9.498l0.056,1.554c0.01,0.27,0.267,6.691,2.63,14.13
		c3.152,9.919,8.604,16.868,15.771,20.122c2.37,7.98,7.873,14.257,14.781,16.786v0.288c0,8.333-6.309,14.86-14.363,14.86h-1.5
		v11.467h45.521V82.745h-1.5c-8.193,0-14.859-6.666-14.859-14.86v-0.182c7.116-2.475,12.789-8.905,15.158-17.108
		c6.944-3.338,12.237-10.196,15.323-19.906c2.364-7.439,2.621-13.86,2.631-14.13l0.057-1.554H72.396z M12.67,18.004h14.019v24.037
		c0,1.684,0.14,3.329,0.395,4.928C15.649,40.048,13.169,23.208,12.67,18.004z M69.395,85.683v5.529H29.873v-5.529
		c8.835-0.744,15.581-8.02,15.838-17.257c1.247,0.248,2.526,0.384,3.832,0.384c1.197,0,2.373-0.11,3.521-0.319
		C53.371,77.557,60.446,84.936,69.395,85.683z M49.543,65.81c-10.948,0-19.854-10.663-19.854-23.769V9.536h39.708v32.505
		C69.396,55.147,60.49,65.81,49.543,65.81z M72.043,46.698c0.228-1.514,0.353-3.068,0.353-4.657V18.004h13.636
		C85.544,23.14,83.129,39.614,72.043,46.698z"/>
	<path d="M64.019,27.476l-8.226-1.196l-3.679-7.454c-0.418-0.845-1.263-1.37-2.206-1.371c0,0,0,0,0,0
		c-0.943,0-1.789,0.525-2.207,1.371l-3.679,7.455l-8.224,1.196c-0.934,0.135-1.696,0.776-1.987,1.674
		c-0.292,0.898-0.053,1.865,0.623,2.522l5.952,5.802l-1.412,8.229c-0.158,0.923,0.211,1.841,0.964,2.396
		c0.433,0.32,0.944,0.482,1.458,0.482c0.379,0,0.76-0.088,1.113-0.268l7.57-3.831l7.185,3.777c0.836,0.438,1.828,0.367,2.591-0.188
		s1.138-1.476,0.979-2.407l-1.405-8.192l5.952-5.802c0.676-0.659,0.914-1.625,0.622-2.523
		C65.712,28.252,64.951,27.611,64.019,27.476z M56.207,36.426l1.486,8.67l-7.587-3.989l-7.994,4.046l1.497-8.726l-6.298-6.139
		l8.704-1.265l3.894-7.889l3.893,7.888l8.704,1.265L56.207,36.426z"/>
</g>
<g id="Layer_1_1_">
</g>
</svg>
