<?xml version="1.0" encoding="iso-8859-1"?>
<!-- Generator: Adobe Illustrator 21.0.0, SVG Export Plug-In . SVG Version: 6.00 Build 0)  -->
<svg version="1.1" id="Layer_1" xmlns="http://www.w3.org/2000/svg" xmlns:xlink="http://www.w3.org/1999/xlink" x="0px" y="0px"
	 viewBox="0 0 100.353 100.352" style="enable-background:new 0 0 100.353 100.352; fill:#F2F2F2;" xml:space="preserve">
<path d="M68.294,13.442C61.506,7.848,52.57,5.621,43.782,7.333C31.951,9.636,22.449,19.623,20.675,31.62
	c-1.447,9.79,2.031,19.567,9.304,26.155c3.277,2.968,5.254,7.243,5.568,12.039l0.042-0.003v16.796h2.995
	c0.609,4.359,3.813,7.697,7.672,7.697h6.81c3.859,0,7.062-3.338,7.671-7.697h2.995V69.819h0.001c0-4.462,2.026-8.771,5.706-12.133
	c6.062-5.538,9.538-13.414,9.538-21.61C78.978,27.287,75.084,19.037,68.294,13.442z M44.357,41.91h-2.305
	c-1.271,0-2.305-1.034-2.305-2.305s1.034-2.305,2.305-2.305s2.305,1.034,2.305,2.305V41.91z M54.966,39.605
	c0-1.271,1.034-2.305,2.306-2.305c1.271,0,2.305,1.034,2.305,2.305s-1.034,2.305-2.305,2.305h-2.303L54.966,39.605z M60.732,71.211
	v12.396H38.59V71.211H60.732z M47.357,68.211V44.91h4.617l0.034,23.301H47.357z M53.066,91.304h-6.81
	c-2.238,0-4.117-2.004-4.637-4.697h16.083C57.183,89.3,55.304,91.304,53.066,91.304z M67.416,55.471
	c-3.872,3.537-6.164,8.013-6.593,12.74h-5.816L54.974,44.91h2.298c2.925,0,5.305-2.38,5.305-5.305c0-2.925-2.38-5.305-5.305-5.305
	c-2.926,0-5.306,2.38-5.306,5.307l0.003,2.303h-4.612v-2.305c0-2.925-2.38-5.305-5.305-5.305c-2.925,0-5.305,2.38-5.305,5.305
	c0,2.925,2.38,5.305,5.305,5.305h2.305v23.301h-5.972c-0.636-5.005-2.864-9.465-6.393-12.66c-6.528-5.914-9.65-14.696-8.35-23.493
	c1.591-10.76,10.108-19.716,20.712-21.781c7.908-1.538,15.938,0.458,22.03,5.48c6.096,5.023,9.592,12.429,9.592,20.319
	C75.978,43.431,72.857,50.5,67.416,55.471z"/>
<g id="Layer_1_1_">
</g>
</svg>
