<svg width="32" height="39" viewBox="0 0 32 39" version="1.1" xmlns="http://www.w3.org/2000/svg" xmlns:xlink="http://www.w3.org/1999/xlink">
<title>Vector</title>
<desc>Created using Figma</desc>
<g id="Canvas" transform="translate(-1509 774)">
<g id="Vector">
<use xlink:href="#path0_fill" transform="translate(1509 -774)" fill="#9F8937"/>
</g>
</g>
<defs>
<path id="path0_fill" d="M 30.6426 5.9121C 30.8742 5.8533 31.0858 5.73246 31.2552 5.5623C 31.4246 5.39213 31.5456 5.17893 31.6053 4.94512C 31.6651 4.7113 31.6615 4.46552 31.5948 4.23361C 31.5282 4.0017 31.401 3.79225 31.2266 3.62728C 31.0523 3.46231 30.8372 3.34792 30.604 3.29614C 30.3708 3.24437 30.1281 3.25712 29.9015 3.33305C 29.6749 3.40899 29.4726 3.5453 29.3161 3.72765C 29.1596 3.91001 29.0545 4.13166 29.012 4.3693L 26.1612 4.64037L 25.9617 2.37376C 25.9573 2.32424 25.9428 2.27617 25.9193 2.23252C 25.8958 2.18887 25.8636 2.15057 25.8249 2.11999C 25.7852 2.08825 25.7389 2.06604 25.6895 2.05505C 25.6402 2.04406 25.5889 2.04457 25.5398 2.05655L 20.4056 3.08316L 20.4056 2.70251C 20.7419 2.67974 21.0569 2.52799 21.2863 2.27824C 21.5157 2.0285 21.6422 1.6996 21.64 1.35869C 21.649 1.00764 21.5199 0.667323 21.2809 0.412605C 21.0419 0.157886 20.7127 0.00963056 20.3657 0.000452809C 20.0187 -0.00872494 19.6822 0.121927 19.4304 0.363666C 19.1786 0.605406 19.0321 0.938431 19.023 1.28948L 0.216656 7.10884L 0.15394 7.1348L 0.128283 7.15498L 0.0997759 7.17229C 0.0661633 7.20034 0.0381113 7.23459 0.0171044 7.27322C 0.0160312 7.28183 0.0160312 7.29055 0.0171044 7.29917L 1.0195e-09 7.33377C 1.0195e-09 7.33377 1.0195e-09 7.35396 1.0195e-09 7.36261L 1.0195e-09 7.4001L 1.92995 34.8676C 1.49753 34.9852 1.11679 35.2466 0.84895 35.6095C 0.581111 35.9725 0.441746 36.4161 0.453268 36.8689C 0.444529 37.1432 0.489923 37.4165 0.586796 37.6728C 0.68367 37.9291 0.830079 38.1633 1.01747 38.3617C 1.20485 38.5601 1.42946 38.7188 1.67815 38.8284C 1.92685 38.938 2.19465 38.9963 2.46589 39C 2.97298 38.9939 3.45999 38.7986 3.83352 38.4516C 4.20704 38.1046 4.44078 37.6304 4.48992 37.1198L 21.2494 36.2922C 21.3405 36.2862 21.4255 36.2441 21.4858 36.1749C 21.5462 36.1057 21.577 36.0152 21.5716 35.9231L 21.5345 34.9945L 28.4504 34.1871C 28.5407 34.1762 28.6232 34.1299 28.6803 34.0582C 28.7373 33.9865 28.7643 33.8951 28.7554 33.8035L 28.5787 31.7849L 31.7145 31.1361C 31.7977 31.1202 31.8724 31.0743 31.9248 31.007C 31.9773 30.9397 32.0038 30.8554 31.9996 30.7698L 30.6426 5.9121ZM 25.3146 2.82939L 25.4771 4.7067L 20.4769 5.17963L 20.4284 3.80121L 25.3146 2.82939ZM 25.5398 5.42475L 27.8204 31.2226L 21.4319 32.5491L 20.4997 5.89191L 25.5398 5.42475ZM 19.787 5.24595L 7.20382 6.43982L 19.7471 3.93963L 19.787 5.24595ZM 19.1627 1.98734C 19.284 2.21993 19.4691 2.41218 19.6958 2.54102L 19.7186 3.21869L 6.97861 5.75926L 19.1627 1.98734ZM 19.8126 5.95824L 20.7363 32.6817L 4.30747 36.0932C 4.16733 35.7184 3.92395 35.3921 3.60616 35.1529C 3.28837 34.9138 2.90948 34.7717 2.51435 34.7436L 0.684178 7.7721L 19.8126 5.95824ZM 20.7847 34.3601L 10.2085 35.5914L 20.7562 33.3998L 20.7847 34.3601ZM 12.9623 35.9865L 20.8104 35.0724L 20.8275 35.5972L 12.9623 35.9865ZM 28.0028 33.5209L 21.4718 34.2793L 21.4376 33.2585L 27.8631 31.9233L 28.0028 33.5209ZM 28.4818 31.0697L 26.2268 5.34977L 29.0776 5.0787C 29.1483 5.27768 29.2648 5.45678 29.4174 5.6012C 29.5701 5.74561 29.7546 5.85119 29.9556 5.90921L 31.2527 30.4988L 28.4818 31.0697Z"/>
</defs>
</svg>
