<?xml version="1.0" encoding="iso-8859-1"?>
<!-- Generator: Adobe Illustrator 19.0.0, SVG Export Plug-In . SVG Version: 6.00 Build 0)  -->
<svg version="1.1" id="Layer_1" xmlns="http://www.w3.org/2000/svg" xmlns:xlink="http://www.w3.org/1999/xlink" x="0px" y="0px"
	 viewBox="0 0 512 512" style="enable-background:new 0 0 512 512;fill:#F2F2F2" xml:space="preserve">
<g>
	<g>
		<path d="M256,0C157.277,0,76.96,80.317,76.96,179.04c0,36.285,9.242,74.554,27.471,113.744
			c14.455,31.078,34.574,62.823,59.798,94.353c42.82,53.525,84.989,87.483,86.763,88.901c1.464,1.172,3.236,1.757,5.008,1.757
			c1.772,0,3.543-0.586,5.008-1.757c1.774-1.419,43.943-35.376,86.763-88.901c25.224-31.53,45.342-63.275,59.798-94.353
			c18.229-39.19,27.471-77.459,27.471-113.744C435.04,80.317,354.723,0,256,0z M393.11,285.852
			c-13.88,29.884-33.275,60.503-57.647,91.003c-33.314,41.693-67.022,71.848-79.464,82.477
			c-12.443-10.628-46.149-40.784-79.464-82.477c-24.372-30.501-43.767-61.119-57.646-91.003
			c-17.184-36.995-25.896-72.933-25.896-106.812c0-89.882,73.124-163.006,163.006-163.006S419.006,89.157,419.006,179.04
			C419.006,212.919,410.294,248.857,393.11,285.852z"/>
	</g>
</g>
<g>
	<g>
		<path d="M256,42.756c-75.147,0-136.284,61.136-136.284,136.284S180.853,315.324,256,315.324
			c75.148,0,136.284-61.136,136.284-136.284S331.147,42.756,256,42.756z M256,299.29c-66.307,0-120.251-53.944-120.251-120.251
			S189.693,58.789,256,58.789s120.251,53.944,120.251,120.251S322.307,299.29,256,299.29z"/>
	</g>
</g>
<g>
	<g>
		<path d="M315.858,495.967H196.142c-4.427,0-8.017,3.588-8.017,8.017c0,4.428,3.589,8.017,8.017,8.017h119.716
			c4.427,0,8.017-3.588,8.017-8.017C323.875,499.555,320.285,495.967,315.858,495.967z"/>
	</g>
</g>
</svg>
