<?xml version="1.0" encoding="iso-8859-1"?>
<!-- Generator: Adobe Illustrator 21.0.0, SVG Export Plug-In . SVG Version: 6.00 Build 0)  -->
<svg version="1.1" id="Layer_1" xmlns="http://www.w3.org/2000/svg" xmlns:xlink="http://www.w3.org/1999/xlink" x="0px" y="0px"
	 viewBox="0 0 100.353 100.353" style="enable-background:new 0 0 100.353 100.353; fill:#F2F2F2;" xml:space="preserve">
<g>
	<path d="M94.216,45.741c0-3.676-1.658-7.121-4.485-9.414c0.123-0.588,0.184-1.152,0.184-1.706c0-4.579-3.387-8.382-7.786-9.036
		c0.1-0.527,0.149-1.042,0.149-1.556c0-4.956-3.97-8.995-8.896-9.124v-0.012c-0.041,0-0.08,0.006-0.121,0.006
		c-0.041-0.001-0.08-0.006-0.121-0.006c-0.458,0-0.918,0.041-1.406,0.127c-0.845-4.485-4.751-7.825-9.436-7.825
		c-5.311,0-9.632,4.321-9.632,9.632v65.918c0,6.723,5.47,12.191,12.192,12.191c4.46,0,8.509-2.413,10.646-6.246
		c0.481,0.104,0.942,0.169,1.401,0.198c2.92,0.188,5.73-0.768,7.926-2.693c2.196-1.927,3.51-4.594,3.7-7.51
		c0.079-1.215-0.057-2.435-0.403-3.638c3.797-2.693,6.028-6.953,6.028-11.621c0-3.385-1.219-6.636-3.446-9.224
		C92.949,51.934,94.216,48.901,94.216,45.741z M91.157,63.427c0,3.465-1.569,6.645-4.257,8.784
		c-1.992-3.318-5.593-5.399-9.532-5.399v3c3.223,0,6.141,1.907,7.438,4.857l0.133,0.327c0.473,1.16,0.674,2.337,0.599,3.496
		c-0.138,2.115-1.091,4.051-2.685,5.449c-1.594,1.397-3.627,2.099-5.754,1.954c-0.587-0.038-1.201-0.166-1.932-0.403l-1.308-0.425
		l-0.537,1.266c-1.443,3.404-4.766,5.604-8.464,5.604c-5.068,0-9.192-4.123-9.192-9.191V16.827c0-3.657,2.975-6.632,6.632-6.632
		c3.399,0,6.195,2.563,6.557,5.908c-2.75,1.577-4.61,4.535-4.61,7.926h3c0-3.343,2.688-6.065,6.015-6.13
		c3.328,0.065,6.016,2.788,6.016,6.13c0,0.618-0.118,1.263-0.36,1.972l-0.09,0.264l0.011,0.279c0.001,0.03,0.003,0.058,0.006,0.085
		l-0.532,2.036l2.073-0.134c0.106-0.007,0.209-0.02,0.394-0.046c3.383,0,6.136,2.752,6.136,6.136c0,0.572-0.103,1.16-0.322,1.851
		l-0.34,1.071l0.932,0.628c2.436,1.641,3.911,4.337,4.013,7.254h-0.001c0,5.03-4.093,9.123-9.123,9.123s-9.123-4.093-9.123-9.123h-3
		c0,6.685,5.438,12.123,12.123,12.123c2.228,0,4.311-0.615,6.107-1.668C90.097,57.967,91.157,60.64,91.157,63.427z"/>
	<path d="M38.398,7.195c-4.684,0-8.591,3.34-9.436,7.825c-0.488-0.086-0.949-0.127-1.406-0.127c-0.041,0-0.08,0.006-0.121,0.006
		c-0.041-0.001-0.08-0.006-0.121-0.006v0.012c-4.925,0.129-8.895,4.168-8.895,9.124c0,0.513,0.049,1.029,0.149,1.556
		c-4.4,0.654-7.786,4.457-7.786,9.036c0,0.555,0.061,1.119,0.183,1.706c-2.827,2.293-4.485,5.738-4.485,9.414
		c0,3.16,1.267,6.193,3.505,8.462c-2.227,2.588-3.446,5.839-3.446,9.224c0,4.668,2.231,8.929,6.028,11.621
		c-0.347,1.203-0.482,2.423-0.402,3.639c0.189,2.915,1.503,5.582,3.699,7.509c2.195,1.926,5.008,2.882,7.924,2.693
		c0.459-0.029,0.92-0.095,1.403-0.198c2.137,3.833,6.185,6.246,10.646,6.246c6.723,0,12.192-5.469,12.192-12.191V16.827
		C48.03,11.516,43.709,7.195,38.398,7.195z M45.03,82.745c0,5.068-4.124,9.191-9.192,9.191c-3.698,0-7.02-2.2-8.464-5.604
		l-0.537-1.265l-1.307,0.424c-0.732,0.237-1.347,0.366-1.935,0.403c-2.113,0.143-4.158-0.556-5.751-1.954s-2.547-3.334-2.685-5.449
		c-0.075-1.16,0.126-2.336,0.599-3.495l0.154-0.378c1.26-2.857,4.239-4.766,7.525-4.766v-3c-4.062,0-7.686,2.05-9.659,5.34
		c-2.675-2.139-4.237-5.31-4.237-8.766c0-2.787,1.059-5.46,2.978-7.548c1.796,1.053,3.879,1.668,6.107,1.668
		c6.685,0,12.123-5.438,12.123-12.123h-3c0,5.03-4.093,9.123-9.123,9.123s-9.123-4.093-9.123-9.123H9.501
		c0.102-2.917,1.577-5.612,4.013-7.254l0.933-0.628l-0.341-1.071c-0.216-0.679-0.322-1.285-0.322-1.85
		c0-3.376,2.74-6.124,6.195-6.124c0.007,0,0.015,0,0.022,0c0.103,0.014,0.207,0.027,0.312,0.034l2.073,0.134l-0.53-2.03l0.014-0.37
		l-0.09-0.264c-0.242-0.708-0.359-1.353-0.359-1.972c0-3.343,2.688-6.065,6.016-6.13c3.327,0.065,6.016,2.788,6.016,6.13h3
		c0-3.391-1.861-6.35-4.612-7.926c0.363-3.346,3.16-5.908,6.558-5.908c3.657,0,6.632,2.975,6.632,6.632V82.745z"/>
</g>
<g id="Layer_1_1_">
</g>
</svg>
