<svg xmlns="http://www.w3.org/2000/svg" viewBox="0 0 663.45 293"><defs><style>.cls-1{fill:#fff;}</style></defs><title>Canvas</title><g id="Layer_2" data-name="Layer 2"><g id="Layer_1-2" data-name="Layer 1"><g id="Canvas"><g id="Vector"><path id="path0_fill" data-name="path0 fill" class="cls-1" d="M77.52,78.67A32.76,32.76,0,0,1,72.29,97a34.54,34.54,0,0,1-15.06,12.42q-9.84,4.4-23.09,4.39a95.72,95.72,0,0,1-18.55-1.51A70.6,70.6,0,0,1,0,106.84V80.18a90.75,90.75,0,0,0,17.79,6.9,67.49,67.49,0,0,0,17,2.42q6.66,0,9.76-2.27a7.21,7.21,0,0,0,3.11-6,6.24,6.24,0,0,0-1.29-3.94,13.77,13.77,0,0,0-4-3.49q-2.73-1.74-14.69-7.11Q16.8,61.79,11.36,57.17a29.92,29.92,0,0,1-8-10.6A35.59,35.59,0,0,1,.76,32.41q0-15.3,11.13-23.85T42.47,0Q59.65,0,77.52,8L68.36,31q-15.53-7.11-26.8-7.11c-3.89,0-6.71.68-8.48,2A6.21,6.21,0,0,0,30.43,31c0,2.17,1.11,4.12,3.33,5.83s8.38,4.85,18.32,9.39q14.31,6.43,19.84,13.86T77.52,78.67Z"/><path id="path1_fill" data-name="path1 fill" class="cls-1" d="M154,112.29l-3.71-10.68h-1.74a24.29,24.29,0,0,1-10.38,9.09,36,36,0,0,1-15.51,3.1q-14.16,0-22-8.17T92.73,82.38V26.5h29.6V73.37q0,8.4,2.35,12.72t7.87,4.32q7.65,0,10.91-6t3.25-20.37V26.5h29.6v85.79Z"/><path id="path2_fill" data-name="path2 fill" class="cls-1" d="M302.05,112.29V65.65q0-8.72-2.42-13a7.92,7.92,0,0,0-7.5-4.39,10.61,10.61,0,0,0-10,5.83Q279,59.9,279,72.31v40H249.29V65.65q0-8.72-2.28-13a7.68,7.68,0,0,0-7.34-4.39,10.63,10.63,0,0,0-10.14,6.21q-3.18,6.21-3.18,20.29v37.56h-29.6V26.5h22.33l3.71,10.6h1.74a22.14,22.14,0,0,1,9.84-9A33.87,33.87,0,0,1,249.13,25q18.56,0,26,11.28h2.35A24,24,0,0,1,287.59,28a33.49,33.49,0,0,1,14.31-3q15.21,0,22.48,7.8t7.27,23.7v55.8Z"/><path id="path3_fill" data-name="path3 fill" class="cls-1" d="M457.09,112.29V65.65q0-8.72-2.43-13a7.9,7.9,0,0,0-7.49-4.39,10.61,10.61,0,0,0-10,5.83Q434,59.9,434,72.31v40H404.32V65.65q0-8.72-2.27-13a7.68,7.68,0,0,0-7.34-4.39,10.65,10.65,0,0,0-10.15,6.21q-3.17,6.21-3.17,20.29v37.56h-29.6V26.5h22.33l3.71,10.6h1.74a22.14,22.14,0,0,1,9.84-9A33.87,33.87,0,0,1,404.17,25q18.56,0,26,11.28h2.35A24,24,0,0,1,442.63,28a33.48,33.48,0,0,1,14.3-3q15.22,0,22.49,7.8t7.27,23.7v55.8Z"/><path id="path4_fill" data-name="path4 fill" class="cls-1" d="M548.23,113.8q-21.42,0-33.31-11.35T503.11,70q0-21.72,11-33.31T545.43,25q19.38,0,29.9,10.14t10.6,29.08V77.38H533q.3,7.2,5.22,11.29t13.55,4.08a67,67,0,0,0,14.31-1.43,73,73,0,0,0,14.23-5.08v21.28A52.35,52.35,0,0,1,566,112.44,99.54,99.54,0,0,1,548.23,113.8Zm-1.74-68.67a12.36,12.36,0,0,0-8.78,3.33q-3.48,3.26-4.09,10.3h25.44q-.15-6.21-3.56-9.92A11.47,11.47,0,0,0,546.49,45.13Z"/><path id="path5_fill" data-name="path5 fill" class="cls-1" d="M654.44,25a43.2,43.2,0,0,1,7.34.6l1.67.31L660.8,53.84a43.29,43.29,0,0,0-10.07-.91q-9.69,0-14.08,4.46t-4.39,12.72v42.18h-29.6V26.5h22l4.62,13.71h1.44a29.32,29.32,0,0,1,10.29-11A24.73,24.73,0,0,1,654.44,25Z"/><path id="path6_fill" data-name="path6 fill" class="cls-1" d="M54.43,153.42a19,19,0,0,0-16.65,8.79q-6,8.7-6,24.07,0,32,24.3,32a49.93,49.93,0,0,0,14.24-2.05,141,141,0,0,0,13.85-4.92v25.29q-13.86,6.13-31.34,6.13-25.06,0-38.46-14.54t-13.32-42q0-17.19,6.43-30.21a46.36,46.36,0,0,1,18.63-20q12.18-7,28.61-7a78.76,78.76,0,0,1,34.3,7.8l-9.16,23.55a102.37,102.37,0,0,0-12.27-4.85A42.94,42.94,0,0,0,54.43,153.42Z"/><path id="path7_fill" data-name="path7 fill" class="cls-1" d="M160,241.18l-5.67-11.36h-.61q-6,7.43-12.19,10.15t-16,2.72q-12.11,0-19.07-7.27t-7-20.44q0-13.71,9.54-20.37T136.64,187l14.31-.45v-1.22q0-10.59-10.45-10.6-9.39,0-23.84,6.36L108.1,161.6q15-7.72,37.85-7.72,16.52,0,25.51,8.17t9.09,22.87v56.26Zm-21.95-19.39a13.21,13.21,0,0,0,9.16-3.4,11.28,11.28,0,0,0,3.86-8.86v-6.66l-6.81.3q-14.61.53-14.61,10.75Q129.68,221.8,138.08,221.79Z"/><path id="path8_fill" data-name="path8 fill" class="cls-1" d="M306,241.18V194.54q0-8.72-2.43-13a7.9,7.9,0,0,0-7.49-4.39,10.61,10.61,0,0,0-10,5.83q-3.18,5.84-3.18,18.25v40H253.22V194.54q0-8.72-2.27-13a7.68,7.68,0,0,0-7.34-4.39,10.64,10.64,0,0,0-10.15,6.21q-3.18,6.21-3.18,20.29v37.56h-29.6V155.39H223l3.71,10.6h1.74a22.14,22.14,0,0,1,9.84-9,33.87,33.87,0,0,1,14.76-3.1q18.54,0,26,11.28h2.35a24,24,0,0,1,10.07-8.26,33.48,33.48,0,0,1,14.3-3q15.23,0,22.49,7.8t7.26,23.69v55.81Z"/><path id="path9_fill" data-name="path9 fill" class="cls-1" d="M407.2,242.69a26.42,26.42,0,0,1-21.88-9.92H384A108.39,108.39,0,0,1,385.32,244v49h-29.6V155.39H379.8l4.16,10.9h1.36q8.25-12.42,22.79-12.41,14.24,0,22.33,11.81t8.1,32.41q0,20.75-8.48,32.7T407.2,242.69Zm-9.92-65.57q-6.51,0-9.16,4.7t-2.8,13.78v2.34q0,11.06,2.95,16t9.31,4.92a8.69,8.69,0,0,0,8.26-4.84q2.57-4.94,2.57-16.21,0-11.06-2.57-15.82T397.28,177.12Z"/><path id="path10_fill" data-name="path10 fill" class="cls-1" d="M521.73,214.83q0,13.78-9.38,20.82t-27,7a112.43,112.43,0,0,1-16.58-1.06,68,68,0,0,1-14.38-3.71v-23.7a88.94,88.94,0,0,0,15.06,5,64.28,64.28,0,0,0,14.69,2q9.62,0,9.61-4.39c0-1.52-.91-2.85-2.72-4s-7-3.53-15.6-7q-11.81-4.84-16.5-11t-4.69-15.67q0-12,9.23-18.63t26.12-6.66a64.28,64.28,0,0,1,15.9,1.89,90.77,90.77,0,0,1,15.51,5.38l-8,19.08a86.52,86.52,0,0,0-12.49-4.47,40.82,40.82,0,0,0-10.75-1.89q-7.28,0-7.27,3.55c0,1.47.84,2.73,2.5,3.79s6.61,3.1,14.69,6.28q9,3.72,13.4,7.27a21.44,21.44,0,0,1,6.51,8.41A28.73,28.73,0,0,1,521.73,214.83Z"/></g></g></g></g></svg>