<svg width="61" height="60" viewBox="0 0 61 60" version="1.1" xmlns="http://www.w3.org/2000/svg" xmlns:xlink="http://www.w3.org/1999/xlink">
<title>Soc_tweet</title>
<desc>Created using Figma</desc>
<g id="Canvas" transform="translate(-2506 -5587)">
<g id="Soc_tweet">
<use xlink:href="#path0_fill" transform="translate(2506 5587)" fill="#40434A"/>
</g>
</g>
<defs>
<path id="path0_fill" d="M 60.0025 30C 60.0025 46.5669 46.5694 60 30.0013 60C 13.4331 60 -6.77326e-09 46.5669 -6.77326e-09 30C -6.77326e-09 13.4293 13.4331 -6.77325e-09 30.0013 -6.77325e-09C 46.5694 -6.77325e-09 60.0025 13.4293 60.0025 30ZM 47.7159 15.322C 46.2298 16.2058 44.5833 16.8472 42.8295 17.1919C 41.428 15.6944 39.428 14.7601 37.2045 14.7601C 32.9571 14.7601 29.5114 18.2058 29.5114 22.4558C 29.5114 23.0593 29.5795 23.6439 29.7083 24.2083C 23.3157 23.8864 17.6452 20.8245 13.851 16.1692C 13.1894 17.303 12.8093 18.6275 12.8093 20.0379C 12.8093 22.7058 14.1679 25.0606 16.2323 26.4394C 14.9722 26.4003 13.7841 26.053 12.7462 25.4773L 12.7462 25.5745C 12.7462 29.3005 15.3977 32.4104 18.9192 33.1187C 18.2727 33.2955 17.5934 33.3902 16.8914 33.3902C 16.3952 33.3902 15.9129 33.3409 15.4444 33.2525C 16.4255 36.3081 19.2652 38.5328 22.6313 38.596C 19.9975 40.6591 16.6818 41.8876 13.077 41.8876C 12.4558 41.8876 11.8434 41.8535 11.2424 41.7816C 14.6465 43.9646 18.6907 45.2361 23.0354 45.2361C 37.1881 45.2361 44.9255 33.5152 44.9255 23.346C 44.9255 23.0139 44.9205 22.6806 44.904 22.3497C 46.4066 21.2664 47.7121 19.9104 48.7412 18.3699C 47.3636 18.9823 45.8801 19.3939 44.3245 19.5795C 45.9205 18.6288 47.1414 17.1212 47.7159 15.322Z"/>
</defs>
</svg>
