<svg width="61" height="60" viewBox="0 0 61 60" version="1.1" xmlns="http://www.w3.org/2000/svg" xmlns:xlink="http://www.w3.org/1999/xlink">
<title>Soc_fb</title>
<desc>Created using Figma</desc>
<g id="Canvas" transform="translate(-2366 -5587)">
<g id="Soc_fb">
<use xlink:href="#path0_fill" transform="translate(2366 5587)" fill="#40434A"/>
</g>
</g>
<defs>
<path id="path0_fill" d="M 60.0025 30C 60.0025 46.5669 46.5707 60 30.0051 60C 13.4318 60 -9.33204e-09 46.5669 -9.33204e-09 30C -9.33204e-09 13.4293 13.4318 -6.77325e-09 30.0051 -6.77325e-09C 46.5707 -6.77325e-09 60.0025 13.4293 60.0025 30ZM 24.9924 48.75L 32.779 48.75L 32.779 30.0126L 38.0354 30.0126L 38.7159 23.3939L 32.779 23.3939L 32.779 19.5013C 32.779 18.0417 33.75 17.6995 34.4306 17.6995L 38.6199 17.6995L 38.6199 11.2727L 32.8523 11.25C 26.4482 11.25 24.9924 16.0429 24.9924 19.1086L 24.9924 23.3939L 21.2891 23.3939L 21.2891 30.0126L 24.9924 30.0126L 24.9924 48.75Z"/>
</defs>
</svg>
