<svg width="61" height="60" viewBox="0 0 61 60" version="1.1" xmlns="http://www.w3.org/2000/svg" xmlns:xlink="http://www.w3.org/1999/xlink">
<title>Soc_inst</title>
<desc>Created using Figma</desc>
<g id="Canvas" transform="translate(-2646 -5587)">
<g id="Soc_inst">
<use xlink:href="#path0_fill" transform="translate(2646 5587)" fill="#40434A"/>
<use xlink:href="#path1_fill" transform="translate(2646 5587)" fill="#40434A"/>
<use xlink:href="#path2_fill" transform="translate(2646 5587)" fill="#40434A"/>
</g>
</g>
<defs>
<path id="path0_fill" d="M 30.002 21.9468C 25.5596 21.9468 21.9515 25.5488 21.9515 29.9993C 21.9515 34.4478 25.5616 38.0538 30.002 38.0538C 34.4445 38.0538 38.0566 34.4478 38.0566 29.9993C 38.0566 25.5488 34.4445 21.9468 30.002 21.9468ZM 30.002 35.264C 27.0849 35.264 24.7354 32.9064 24.7354 29.9993C 24.7354 27.0922 27.0849 24.7347 30.002 24.7347C 32.8889 24.7347 35.2687 27.0922 35.2687 29.9993C 35.2687 32.9064 32.9192 35.264 30.002 35.264Z"/>
<path id="path1_fill" d="M 38.8605 19.0015C 37.8242 19.0015 37.002 19.8257 37.002 20.8621C 37.002 21.8964 37.8242 22.7186 38.8605 22.7186C 39.8969 22.7186 40.7211 21.8964 40.7211 20.8621C 40.7211 19.8257 39.8949 19.0015 38.8605 19.0015Z"/>
<path id="path2_fill" d="M 30.0061 0C 13.4323 0 0 13.4283 0 30C 0 46.5677 13.4323 60 30.0061 60C 46.5697 60 60.0061 46.5697 60.0061 30C 60.0061 13.4283 46.5697 0 30.0061 0ZM 45.4889 36.596C 45.4889 41.4909 41.4909 45.4869 36.5677 45.4869L 23.4364 45.4869C 18.5111 45.4869 14.5131 41.4889 14.5131 36.6263L 14.5131 23.402C 14.5131 18.5091 18.5091 14.5131 23.4364 14.5131L 36.5677 14.5131C 41.4929 14.5131 45.4889 18.5091 45.4889 23.402L 45.4889 36.596Z"/>
</defs>
</svg>
