<?xml version="1.0" encoding="iso-8859-1"?>
<!-- Generator: Adobe Illustrator 21.0.0, SVG Export Plug-In . SVG Version: 6.00 Build 0)  -->
<svg version="1.1" id="Layer_1" xmlns="http://www.w3.org/2000/svg" xmlns:xlink="http://www.w3.org/1999/xlink" x="0px" y="0px"
	 viewBox="0 0 100.354 100.352" style="enable-background:new 0 0 100.354 100.352; fill:#F2F2F2;" xml:space="preserve">
<g>
	<path d="M31.725,54.43c-16.34,0-29.633,13.296-29.633,29.639v1.642H61.36v-1.642C61.36,67.725,48.066,54.43,31.725,54.43z
		 M5.425,82.427c0.85-13.771,12.321-24.714,26.3-24.714c13.98,0,25.453,10.942,26.302,24.714H5.425z"/>
	<path d="M31.239,52.231c9.501,0,17.231-7.73,17.231-17.231s-7.729-17.231-17.231-17.231S14.008,25.498,14.008,35
		S21.738,52.231,31.239,52.231z M31.239,21.051c7.691,0,13.949,6.257,13.949,13.949s-6.257,13.949-13.949,13.949
		S17.29,42.691,17.29,35S23.548,21.051,31.239,21.051z"/>
	<path d="M31.237,45.629c3.244,0,6.087-2.072,7.075-5.156l-3.126-1.001c-0.551,1.719-2.137,2.875-3.949,2.875
		c-1.812,0-3.398-1.156-3.947-2.875l-3.127,0.997C25.148,43.555,27.991,45.629,31.237,45.629z"/>
	<path d="M71.145,47.195c-7.764,0-15.138,3.37-20.232,9.246l2.48,2.15c4.471-5.156,10.94-8.114,17.752-8.114
		c12.396,0,22.58,9.657,23.425,21.843H64.311v3.283h33.599v-1.642C97.909,59.202,85.902,47.195,71.145,47.195z"/>
	<path d="M70.71,45.557c8.62,0,15.634-7.013,15.634-15.633S79.33,14.291,70.71,14.291s-15.634,7.013-15.634,15.633
		S62.09,45.557,70.71,45.557z M70.71,17.573c6.811,0,12.351,5.541,12.351,12.351s-5.54,12.351-12.351,12.351
		s-12.351-5.541-12.351-12.351S63.899,17.573,70.71,17.573z"/>
	<path d="M70.708,39.629c2.614,0,4.905-1.669,5.702-4.153l-3.127-1.002c-0.358,1.12-1.394,1.873-2.575,1.873
		c-1.181,0-2.216-0.754-2.577-1.875l-3.125,1.007C65.806,37.961,68.098,39.629,70.708,39.629z"/>
</g>
</svg>
