<svg width="324" height="56" viewBox="0 0 324 56" version="1.1" xmlns="http://www.w3.org/2000/svg" xmlns:xlink="http://www.w3.org/1999/xlink">
<title>Vector</title>
<desc>Created using Figma</desc>
<g id="Canvas" transform="translate(-1555 -12)">
<g id="Vector">
<use xlink:href="#path0_fill" transform="translate(1555.21 12.4281)" fill="#FFFFFF"/>
<use xlink:href="#path1_fill" transform="translate(1555.21 12.4281)" fill="#FFFFFF"/>
<use xlink:href="#path2_fill" transform="translate(1555.21 12.4281)" fill="#FFFFFF"/>
<use xlink:href="#path3_fill" transform="translate(1555.21 12.4281)" fill="#FFFFFF"/>
<use xlink:href="#path4_fill" transform="translate(1555.21 12.4281)" fill="#FFFFFF"/>
<use xlink:href="#path5_fill" transform="translate(1555.21 12.4281)" fill="#FFFFFF"/>
<use xlink:href="#path6_fill" transform="translate(1555.21 12.4281)" fill="#FFFFFF"/>
<use xlink:href="#path7_fill" transform="translate(1555.21 12.4281)" fill="#FFFFFF"/>
<use xlink:href="#path8_fill" transform="translate(1555.21 12.4281)" fill="#FFFFFF"/>
<use xlink:href="#path9_fill" transform="translate(1555.21 12.4281)" fill="#FFFFFF"/>
<use xlink:href="#path10_fill" transform="translate(1555.21 12.4281)" fill="#FFFFFF"/>
<use xlink:href="#path11_fill" transform="translate(1555.21 12.4281)" fill="#FFFFFF"/>
</g>
</g>
<defs>
<path id="path0_fill" d="M 14.7854 15.0275L 7.98996 15.0275L 7.98996 41.6044L 5.36203 41.6044L 5.36203 15.0275L 0 15.0275L 0 13.4876L 5.36203 12.5052L 5.36203 10.275C 5.36203 6.73498 6.00795 4.14185 7.2998 2.49573C 8.60934 0.831907 10.7418 0 13.6971 0C 15.2898 0 16.8824 0.238952 18.4751 0.716858L 17.8646 3.00018C 16.4489 2.55768 15.042 2.33643 13.644 2.33643C 11.5912 2.33643 10.1312 2.94708 9.26411 4.1684C 8.41468 5.37201 7.98996 7.33679 7.98996 10.0626L 7.98996 12.7442L 14.7854 12.7442L 14.7854 15.0275Z"/>
<path id="path1_fill" d="M 44.2235 27.1345C 44.2235 31.8427 43.0821 35.5243 40.7992 38.1794C 38.5164 40.8167 35.3664 42.1354 31.3493 42.1354C 28.8187 42.1354 26.589 41.5247 24.66 40.3034C 22.7311 39.0821 21.2535 37.3298 20.2271 35.0464C 19.2007 32.7631 18.6875 30.1258 18.6875 27.1345C 18.6875 22.4262 19.8289 18.7623 22.1118 16.1426C 24.3946 13.5053 27.5269 12.1866 31.5086 12.1866C 35.4726 12.1866 38.5783 13.523 40.8258 16.1957C 43.0909 18.8508 44.2235 22.497 44.2235 27.1345ZM 21.4481 27.1345C 21.4481 31.0993 22.3153 34.1968 24.0495 36.4271C 25.8015 38.6396 28.2701 39.7458 31.4555 39.7458C 34.6409 39.7458 37.1007 38.6396 38.8349 36.4271C 40.5869 34.1968 41.4629 31.0993 41.4629 27.1345C 41.4629 23.1519 40.578 20.0632 38.8084 17.8684C 37.0564 15.6736 34.5878 14.5762 31.4024 14.5762C 28.217 14.5762 25.7572 15.6736 24.023 17.8684C 22.3064 20.0455 21.4481 23.1342 21.4481 27.1345Z"/>
<path id="path2_fill" d="M 63.5746 12.1866C 64.7957 12.1866 66.1052 12.3105 67.5032 12.5583L 66.9989 15.0806C 65.7955 14.7797 64.5479 14.6293 63.2561 14.6293C 60.7963 14.6293 58.7789 15.6736 57.2039 17.7622C 55.6289 19.8508 54.8414 22.4882 54.8414 25.6742L 54.8414 41.6044L 52.2135 41.6044L 52.2135 12.7442L 54.4432 12.7442L 54.7087 17.9481L 54.8945 17.9481C 56.0801 15.824 57.3454 14.3372 58.6904 13.4876C 60.0353 12.6203 61.6634 12.1866 63.5746 12.1866Z"/>
<path id="path3_fill" d="M 95.1363 39.799C 96.7997 39.799 98.2509 39.6573 99.4896 39.3741L 99.4896 41.4982C 98.2155 41.923 96.7467 42.1354 95.0832 42.1354C 92.5349 42.1354 90.6502 41.4539 89.4292 40.091C 88.2258 38.7281 87.6241 36.5864 87.6241 33.6658L 87.6241 15.0275L 83.3504 15.0275L 83.3504 13.4876L 87.6241 12.2928L 88.9514 5.76141L 90.3051 5.76141L 90.3051 12.7442L 98.7729 12.7442L 98.7729 15.0275L 90.3051 15.0275L 90.3051 33.2941C 90.3051 35.5067 90.6945 37.1439 91.4731 38.2059C 92.2517 39.2679 93.4728 39.799 95.1363 39.799Z"/>
<path id="path4_fill" d="M 117.381 42.1354C 113.187 42.1354 109.913 40.8433 107.559 38.259C 105.223 35.6748 104.055 32.0551 104.055 27.4C 104.055 22.7979 105.188 19.1163 107.453 16.355C 109.718 13.5761 112.771 12.1866 116.611 12.1866C 120.009 12.1866 122.69 13.3726 124.654 15.7444C 126.618 18.1162 127.6 21.3376 127.6 25.4087L 127.6 27.5327L 106.816 27.5327C 106.851 31.4976 107.772 34.5243 109.577 36.6129C 111.399 38.7015 114.001 39.7458 117.381 39.7458C 119.027 39.7458 120.469 39.6308 121.708 39.4007C 122.964 39.1706 124.548 38.675 126.459 37.9139L 126.459 40.3034C 124.831 41.0114 123.327 41.4893 121.946 41.7371C 120.566 42.0026 119.044 42.1354 117.381 42.1354ZM 116.611 14.5231C 113.833 14.5231 111.603 15.4435 109.922 17.2843C 108.241 19.1074 107.258 21.7447 106.975 25.1963L 124.813 25.1963C 124.813 21.8509 124.088 19.2402 122.637 17.364C 121.186 15.47 119.177 14.5231 116.611 14.5231Z"/>
<path id="path5_fill" d="M 147.217 42.1354C 143.023 42.1354 139.749 40.8433 137.395 38.259C 135.06 35.6748 133.892 32.0551 133.892 27.4C 133.892 22.7979 135.024 19.1163 137.289 16.355C 139.554 13.5761 142.607 12.1866 146.447 12.1866C 149.845 12.1866 152.526 13.3726 154.49 15.7444C 156.455 18.1162 157.437 21.3376 157.437 25.4087L 157.437 27.5327L 136.652 27.5327C 136.688 31.4976 137.608 34.5243 139.413 36.6129C 141.236 38.7015 143.837 39.7458 147.217 39.7458C 148.863 39.7458 150.305 39.6308 151.544 39.4007C 152.8 39.1706 154.384 38.675 156.295 37.9139L 156.295 40.3034C 154.667 41.0114 153.163 41.4893 151.783 41.7371C 150.402 42.0026 148.88 42.1354 147.217 42.1354ZM 146.447 14.5231C 143.669 14.5231 141.439 15.4435 139.758 17.2843C 138.077 19.1074 137.095 21.7447 136.811 25.1963L 154.65 25.1963C 154.65 21.8509 153.924 19.2402 152.473 17.364C 151.022 15.47 149.013 14.5231 146.447 14.5231Z"/>
<path id="path6_fill" d="M 185.521 41.6044L 185.521 22.8864C 185.521 19.9836 184.911 17.8773 183.689 16.5674C 182.468 15.2399 180.575 14.5762 178.009 14.5762C 174.558 14.5762 172.027 15.4523 170.417 17.2047C 168.824 18.9393 168.028 21.7624 168.028 25.6742L 168.028 41.6044L 165.4 41.6044L 165.4 12.7442L 167.63 12.7442L 168.134 16.7002L 168.294 16.7002C 170.169 13.6912 173.505 12.1866 178.301 12.1866C 184.849 12.1866 188.122 15.7001 188.122 22.7271L 188.122 41.6044L 185.521 41.6044Z"/>
<path id="path7_fill" d="M 214.986 41.6044L 214.322 37.0377L 214.11 37.0377C 212.659 38.8962 211.163 40.2149 209.624 40.9937C 208.102 41.7548 206.297 42.1354 204.209 42.1354C 201.377 42.1354 199.174 41.4097 197.599 39.9583C 196.024 38.5068 195.236 36.4979 195.236 33.9313C 195.236 31.117 196.404 28.931 198.74 27.3734C 201.094 25.8158 204.492 24.9927 208.933 24.9042L 214.428 24.7449L 214.428 22.8333C 214.428 20.0898 213.871 18.0189 212.756 16.6205C 211.641 15.2222 209.845 14.5231 207.367 14.5231C 204.695 14.5231 201.926 15.2665 199.059 16.7533L 198.077 14.47C 201.244 12.9832 204.377 12.2397 207.474 12.2397C 210.641 12.2397 213.004 13.0628 214.561 14.7089C 216.136 16.355 216.923 18.9216 216.923 22.4085L 216.923 41.6044L 214.986 41.6044ZM 204.368 39.7458C 207.447 39.7458 209.871 38.8697 211.641 37.1174C 213.428 35.3473 214.322 32.8959 214.322 29.7629L 214.322 26.9221L 209.279 27.1345C 205.226 27.3292 202.333 27.9664 200.598 29.0461C 198.882 30.1081 198.024 31.7719 198.024 34.0375C 198.024 35.843 198.572 37.2501 199.669 38.259C 200.784 39.2502 202.35 39.7458 204.368 39.7458Z"/>
<path id="path8_fill" d="M 248.804 12.7442L 248.804 14.5762L 242.831 14.9479C 244.424 16.9303 245.22 19.1074 245.22 21.4792C 245.22 24.2582 244.291 26.515 242.433 28.2496C 240.592 29.9665 238.115 30.825 235 30.825C 233.691 30.825 232.771 30.7719 232.24 30.6656C 231.196 31.2144 230.399 31.8604 229.851 32.6038C 229.302 33.3472 229.028 34.1349 229.028 34.9668C 229.028 35.8872 229.373 36.5598 230.063 36.9846C 230.771 37.4094 231.948 37.6218 233.594 37.6218L 238.637 37.6218C 241.769 37.6218 244.167 38.259 245.831 39.5334C 247.494 40.7902 248.326 42.6575 248.326 45.1356C 248.326 48.18 247.087 50.5253 244.61 52.1714C 242.15 53.8352 238.637 54.6672 234.071 54.6672C 230.444 54.6672 227.63 53.968 225.63 52.5696C 223.648 51.1713 222.657 49.2243 222.657 46.7286C 222.657 44.7462 223.268 43.1 224.489 41.7902C 225.727 40.4804 227.4 39.5865 229.506 39.1086C 228.639 38.7369 227.94 38.2148 227.409 37.5422C 226.895 36.8519 226.639 36.0642 226.639 35.1792C 226.639 33.2499 227.869 31.5507 230.329 30.0815C 228.647 29.3912 227.338 28.3115 226.4 26.8424C 225.462 25.3556 224.993 23.6564 224.993 21.7448C 224.993 18.8596 225.904 16.5497 227.727 14.8151C 229.568 13.0628 232.045 12.1866 235.16 12.1866C 237.053 12.1866 238.522 12.3725 239.566 12.7442L 248.804 12.7442ZM 225.444 46.4896C 225.444 50.4545 228.391 52.4369 234.284 52.4369C 241.858 52.4369 245.645 50.0208 245.645 45.1887C 245.645 43.454 245.052 42.1973 243.866 41.4185C 242.681 40.6397 240.761 40.2503 238.106 40.2503L 233.381 40.2503C 228.09 40.2503 225.444 42.3301 225.444 46.4896ZM 227.648 21.7448C 227.648 23.975 228.32 25.7096 229.665 26.9486C 231.028 28.1699 232.841 28.7806 235.107 28.7806C 237.513 28.7806 239.354 28.1699 240.628 26.9486C 241.92 25.7273 242.566 23.9573 242.566 21.6385C 242.566 19.1782 241.902 17.3374 240.575 16.1161C 239.265 14.8771 237.425 14.2576 235.053 14.2576C 232.753 14.2576 230.939 14.9213 229.612 16.2488C 228.302 17.5587 227.648 19.3906 227.648 21.7448Z"/>
<path id="path9_fill" d="M 266.403 42.1354C 262.209 42.1354 258.935 40.8433 256.581 38.259C 254.245 35.6748 253.077 32.0551 253.077 27.4C 253.077 22.7979 254.21 19.1163 256.475 16.355C 258.74 13.5761 261.793 12.1866 265.633 12.1866C 269.031 12.1866 271.712 13.3726 273.676 15.7444C 275.64 18.1162 276.622 21.3376 276.622 25.4087L 276.622 27.5327L 255.838 27.5327C 255.873 31.4976 256.794 34.5243 258.599 36.6129C 260.421 38.7015 263.023 39.7458 266.403 39.7458C 268.049 39.7458 269.491 39.6308 270.73 39.4007C 271.986 39.1706 273.57 38.675 275.481 37.9139L 275.481 40.3034C 273.853 41.0114 272.349 41.4893 270.969 41.7371C 269.588 42.0026 268.066 42.1354 266.403 42.1354ZM 265.633 14.5231C 262.855 14.5231 260.625 15.4435 258.944 17.2843C 257.263 19.1074 256.28 21.7447 255.997 25.1963L 273.835 25.1963C 273.835 21.8509 273.11 19.2402 271.659 17.364C 270.208 15.47 268.199 14.5231 265.633 14.5231Z"/>
<path id="path10_fill" d="M 295.947 12.1866C 297.168 12.1866 298.478 12.3105 299.876 12.5583L 299.371 15.0806C 298.168 14.7797 296.92 14.6293 295.629 14.6293C 293.169 14.6293 291.151 15.6736 289.576 17.7622C 288.001 19.8508 287.214 22.4882 287.214 25.6742L 287.214 41.6044L 284.586 41.6044L 284.586 12.7442L 286.816 12.7442L 287.081 17.9481L 287.267 17.9481C 288.453 15.824 289.718 14.3372 291.063 13.4876C 292.408 12.6203 294.036 12.1866 295.947 12.1866Z"/>
<path id="path11_fill" d="M 323.66 34.0906C 323.66 36.6749 322.678 38.6661 320.713 40.0645C 318.749 41.4451 315.962 42.1354 312.352 42.1354C 308.494 42.1354 305.432 41.5424 303.167 40.3565L 303.167 37.5156C 306.069 38.967 309.131 39.6927 312.352 39.6927C 315.201 39.6927 317.36 39.2237 318.829 38.2856C 320.315 37.3298 321.058 36.0642 321.058 34.4889C 321.058 33.0375 320.466 31.8162 319.28 30.825C 318.112 29.8337 316.183 28.8602 313.493 27.9044C 310.609 26.8601 308.582 25.9662 307.414 25.2228C 306.246 24.4617 305.362 23.6121 304.76 22.674C 304.176 21.7182 303.884 20.5588 303.884 19.1959C 303.884 17.0365 304.786 15.3284 306.591 14.0717C 308.414 12.815 310.954 12.1866 314.21 12.1866C 317.324 12.1866 320.28 12.7708 323.076 13.939L 322.094 16.3285C 319.262 15.1603 316.634 14.5762 314.21 14.5762C 311.856 14.5762 309.989 14.9656 308.609 15.7444C 307.229 16.5232 306.538 17.6029 306.538 18.9835C 306.538 20.488 307.069 21.6916 308.131 22.5944C 309.211 23.4971 311.308 24.506 314.422 25.6211C 317.024 26.5592 318.917 27.4088 320.103 28.1699C 321.288 28.9133 322.173 29.7629 322.757 30.7188C 323.359 31.6746 323.66 32.7985 323.66 34.0906Z"/>
</defs>
</svg>
