<svg width="764" height="394" viewBox="0 0 764 394" version="1.1" xmlns="http://www.w3.org/2000/svg" xmlns:xlink="http://www.w3.org/1999/xlink">
<title>Vector</title>
<desc>Created using Figma</desc>
<g id="Canvas" transform="translate(-1496 264)">
<g id="Vector" filter="url(#filter0_d)">
<use xlink:href="#path0_fill" transform="translate(1546 -238.5)" fill="#FFFFFF"/>
<use xlink:href="#path1_fill" transform="translate(1546 -238.5)" fill="#FFFFFF"/>
<use xlink:href="#path2_fill" transform="translate(1546 -238.5)" fill="#FFFFFF"/>
<use xlink:href="#path3_fill" transform="translate(1546 -238.5)" fill="#FFFFFF"/>
<use xlink:href="#path4_fill" transform="translate(1546 -238.5)" fill="#FFFFFF"/>
<use xlink:href="#path5_fill" transform="translate(1546 -238.5)" fill="#FFFFFF"/>
<use xlink:href="#path6_fill" transform="translate(1546 -238.5)" fill="#FFFFFF"/>
<use xlink:href="#path7_fill" transform="translate(1546 -238.5)" fill="#FFFFFF"/>
<use xlink:href="#path8_fill" transform="translate(1546 -238.5)" fill="#FFFFFF"/>
<use xlink:href="#path9_fill" transform="translate(1546 -238.5)" fill="#FFFFFF"/>
<use xlink:href="#path10_fill" transform="translate(1546 -238.5)" fill="#FFFFFF"/>
</g>
</g>
<defs>
<filter id="filter0_d" filterUnits="userSpaceOnUse" x="1496" y="-264" width="764" height="394" color-interpolation-filters="sRGB">
<feFlood flood-opacity="0" result="BackgroundImageFix"/>
<feColorMatrix in="SourceAlpha" type="matrix" values="0 0 0 0 0 0 0 0 0 0 0 0 0 0 0 0 0 0 255 0"/>
<feOffset dx="0" dy="25"/>
<feGaussianBlur stdDeviation="25"/>
<feColorMatrix type="matrix" values="0 0 0 0 0 0 0 0 0 0 0 0 0 0 0 0 0 0 0.1 0"/>
<feBlend mode="normal" in2="BackgroundImageFix" result="effect1_dropShadow"/>
<feBlend mode="normal" in="SourceGraphic" in2="effect1_dropShadow" result="shape"/>
</filter>
<path id="path0_fill" d="M 77.5184 78.6706C 77.5184 85.5356 75.7773 91.6435 72.295 96.9942C 68.8128 102.294 63.7912 106.434 57.2304 109.412C 50.6696 112.34 42.9733 113.804 34.1414 113.804C 26.7731 113.804 20.5908 113.299 15.5945 112.289C 10.5982 111.229 5.40005 109.412 0 106.838L 0 80.1849C 5.70285 83.1127 11.6328 85.4095 17.7899 87.0752C 23.9469 88.6906 29.5993 89.4982 34.747 89.4982C 39.1882 89.4982 42.4434 88.741 44.5125 87.2267C 46.5817 85.6618 47.6163 83.6679 47.6163 81.245C 47.6163 79.7306 47.1873 78.4182 46.3294 77.3077C 45.5219 76.1467 44.1845 74.9857 42.3172 73.8247C 40.5004 72.6637 35.605 70.2912 27.6311 66.7072C 20.4142 63.4261 14.9889 60.246 11.3552 57.1668C 7.77203 54.0876 5.09724 50.5541 3.33087 46.5663C 1.61497 42.5785 0.757016 37.8588 0.757016 32.4071C 0.757016 22.2105 4.4664 14.2602 11.8852 8.55609C 19.3039 2.85203 29.4984 0 42.4686 0C 53.9248 0 65.6081 2.65012 77.5184 7.95035L 68.3586 31.0442C 58.0127 26.2992 49.0799 23.9268 41.5602 23.9268C 37.6742 23.9268 34.848 24.6082 33.0816 25.9711C 31.3152 27.3341 30.432 29.0251 30.432 31.0442C 30.432 33.2148 31.5423 35.1582 33.7629 36.8745C 36.034 38.5907 42.1406 41.7204 52.0827 46.2635C 61.6211 50.5541 68.2324 55.1729 71.9165 60.1198C 75.6511 65.0162 77.5184 71.1998 77.5184 78.6706Z"/>
<path id="path1_fill" d="M 153.977 112.289L 150.268 101.613L 148.527 101.613C 146.054 105.55 142.597 108.579 138.155 110.699C 133.765 112.769 128.592 113.804 122.637 113.804C 113.199 113.804 105.856 111.078 100.607 105.626C 95.3588 100.124 92.7345 92.3755 92.7345 82.3808L 92.7345 26.5012L 122.334 26.5012L 122.334 73.3703C 122.334 78.9734 123.116 83.2136 124.681 86.0909C 126.296 88.9682 128.92 90.4068 132.554 90.4068C 137.651 90.4068 141.284 88.4129 143.455 84.4251C 145.625 80.3869 146.71 73.5975 146.71 64.0571L 146.71 26.5012L 176.309 26.5012L 176.309 112.289L 153.977 112.289Z"/>
<path id="path2_fill" d="M 302.049 112.289L 302.049 65.6472C 302.049 59.8421 301.242 55.501 299.627 52.6237C 298.062 49.696 295.564 48.2321 292.133 48.2321C 287.59 48.2321 284.26 50.1755 282.14 54.0624C 280.02 57.9492 278.96 64.0318 278.96 72.3103L 278.96 112.289L 249.285 112.289L 249.285 65.6472C 249.285 59.8421 248.528 55.501 247.014 52.6237C 245.5 49.696 243.053 48.2321 239.671 48.2321C 235.028 48.2321 231.647 50.3017 229.527 54.441C 227.408 58.5802 226.348 65.3443 226.348 74.7333L 226.348 112.289L 196.748 112.289L 196.748 26.5012L 219.08 26.5012L 222.79 37.1016L 224.531 37.1016C 226.802 33.1643 230.082 30.1608 234.372 28.0912C 238.712 26.0216 243.633 24.9868 249.134 24.9868C 261.499 24.9868 270.179 28.7474 275.175 36.2687L 277.522 36.2687C 279.945 32.7352 283.301 29.9842 287.59 28.0155C 291.931 25.9964 296.7 24.9868 301.898 24.9868C 312.042 24.9868 319.536 27.5864 324.381 32.7857C 329.226 37.985 331.649 45.8849 331.649 56.4853L 331.649 112.289L 302.049 112.289Z"/>
<path id="path3_fill" d="M 457.086 112.289L 457.086 65.6472C 457.086 59.8421 456.279 55.501 454.664 52.6237C 453.099 49.696 450.601 48.2321 447.169 48.2321C 442.627 48.2321 439.296 50.1755 437.177 54.0624C 435.057 57.9492 433.997 64.0318 433.997 72.3103L 433.997 112.289L 404.322 112.289L 404.322 65.6472C 404.322 59.8421 403.565 55.501 402.051 52.6237C 400.537 49.696 398.09 48.2321 394.708 48.2321C 390.065 48.2321 386.684 50.3017 384.564 54.441C 382.445 58.5802 381.385 65.3443 381.385 74.7333L 381.385 112.289L 351.785 112.289L 351.785 26.5012L 374.117 26.5012L 377.827 37.1016L 379.568 37.1016C 381.839 33.1643 385.119 30.1608 389.409 28.0912C 393.749 26.0216 398.67 24.9868 404.171 24.9868C 416.535 24.9868 425.216 28.7474 430.212 36.2687L 432.559 36.2687C 434.981 32.7352 438.338 29.9842 442.627 28.0155C 446.968 25.9964 451.737 24.9868 456.935 24.9868C 467.079 24.9868 474.573 27.5864 479.418 32.7857C 484.263 37.985 486.686 45.8849 486.686 56.4853L 486.686 112.289L 457.086 112.289Z"/>
<path id="path4_fill" d="M 548.231 113.804C 533.949 113.804 522.846 110.018 514.922 102.446C 507.049 94.8237 503.113 83.9961 503.113 69.9631C 503.113 55.4758 506.772 44.3705 514.09 36.6473C 521.407 28.8736 531.854 24.9868 545.43 24.9868C 558.35 24.9868 568.317 28.3689 575.332 35.133C 582.398 41.8466 585.93 51.5384 585.93 64.2085L 585.93 77.3834L 533.015 77.3834C 533.217 82.1788 534.958 85.9395 538.238 88.6653C 541.569 91.3911 546.086 92.7541 551.789 92.7541C 556.987 92.7541 561.756 92.2745 566.097 91.3154C 570.487 90.3059 575.231 88.6148 580.329 86.2423L 580.329 107.519C 575.686 109.891 570.891 111.532 565.945 112.441C 560.999 113.349 555.095 113.804 548.231 113.804ZM 546.49 45.1277C 543.008 45.1277 540.081 46.2382 537.708 48.4593C 535.387 50.6298 534.024 54.0624 533.621 58.7569L 559.056 58.7569C 558.955 54.6176 557.769 51.3113 555.498 48.8379C 553.278 46.3644 550.275 45.1277 546.49 45.1277Z"/>
<path id="path5_fill" d="M 654.44 24.9868C 657.014 24.9868 659.462 25.1887 661.783 25.5926L 663.449 25.8954L 660.799 53.8352C 658.377 53.2295 655.021 52.9266 650.731 52.9266C 644.271 52.9266 639.578 54.4157 636.651 57.3939C 633.723 60.3217 632.26 64.5619 632.26 70.1145L 632.26 112.289L 602.661 112.289L 602.661 26.5012L 624.69 26.5012L 629.307 40.206L 630.746 40.206C 633.219 35.663 636.651 32.0033 641.041 29.227C 645.482 26.4002 649.949 24.9868 654.44 24.9868Z"/>
<path id="path6_fill" d="M 54.4295 153.422C 47.3135 153.422 41.7621 156.349 37.7751 162.205C 33.7882 168.01 31.7947 176.036 31.7947 186.283C 31.7947 207.585 39.8947 218.236 56.0949 218.236C 60.9903 218.236 65.7342 217.554 70.3268 216.191C 74.9194 214.829 79.5372 213.188 84.1802 211.27L 84.1802 236.56C 74.9446 240.648 64.4978 242.693 52.8397 242.693C 36.1349 242.693 23.3161 237.847 14.3833 228.155C 5.50098 218.463 1.05982 204.455 1.05982 186.132C 1.05982 174.673 3.2047 164.603 7.49446 155.92C 11.8347 147.238 18.0422 140.575 26.1171 135.931C 34.2424 131.236 43.7808 128.889 54.7323 128.889C 66.6931 128.889 78.1241 131.489 89.0251 136.688L 79.8652 160.236C 75.7773 158.318 71.6894 156.703 67.6015 155.39C 63.5136 154.078 59.123 153.422 54.4295 153.422Z"/>
<path id="path7_fill" d="M 160.033 241.178L 154.356 229.821L 153.75 229.821C 149.763 234.768 145.7 238.15 141.562 239.967C 137.424 241.784 132.074 242.693 125.513 242.693C 117.438 242.693 111.079 240.27 106.436 235.424C 101.793 230.578 99.4719 223.763 99.4719 214.98C 99.4719 205.843 102.651 199.054 109.01 194.612C 115.369 190.119 124.58 187.595 136.641 187.04L 150.949 186.586L 150.949 185.374C 150.949 178.307 147.467 174.774 140.502 174.774C 134.244 174.774 126.296 176.894 116.656 181.134L 108.102 161.599C 118.095 156.45 130.711 153.876 145.953 153.876C 156.955 153.876 165.458 156.602 171.464 162.053C 177.52 167.505 180.548 175.127 180.548 184.92L 180.548 241.178L 160.033 241.178ZM 138.08 221.795C 141.663 221.795 144.716 220.659 147.24 218.387C 149.813 216.116 151.1 213.163 151.1 209.528L 151.1 202.865L 144.287 203.168C 134.547 203.521 129.677 207.105 129.677 213.92C 129.677 219.17 132.478 221.795 138.08 221.795Z"/>
<path id="path8_fill" d="M 305.986 241.178L 305.986 194.536C 305.986 188.731 305.178 184.39 303.563 181.513C 301.999 178.585 299.501 177.121 296.069 177.121C 291.527 177.121 288.196 179.065 286.076 182.951C 283.957 186.838 282.897 192.921 282.897 201.199L 282.897 241.178L 253.222 241.178L 253.222 194.536C 253.222 188.731 252.465 184.39 250.951 181.513C 249.437 178.585 246.989 177.121 243.608 177.121C 238.965 177.121 235.583 179.191 233.464 183.33C 231.344 187.469 230.284 194.233 230.284 203.622L 230.284 241.178L 200.685 241.178L 200.685 155.39L 223.017 155.39L 226.726 165.991L 228.467 165.991C 230.738 162.053 234.019 159.05 238.309 156.98C 242.649 154.911 247.569 153.876 253.07 153.876C 265.435 153.876 274.116 157.637 279.112 165.158L 281.459 165.158C 283.881 161.624 287.237 158.873 291.527 156.905C 295.867 154.885 300.636 153.876 305.835 153.876C 315.979 153.876 323.473 156.475 328.318 161.675C 333.163 166.874 335.585 174.774 335.585 185.374L 335.585 241.178L 305.986 241.178Z"/>
<path id="path9_fill" d="M 407.199 242.693C 402.859 242.693 398.973 241.986 395.541 240.573C 392.109 239.109 388.703 236.509 385.321 232.774L 383.959 232.774C 384.867 238.781 385.321 242.516 385.321 243.98L 385.321 293L 355.722 293L 355.722 155.39L 379.795 155.39L 383.959 166.294L 385.321 166.294C 390.822 158.015 398.418 153.876 408.107 153.876C 417.595 153.876 425.039 157.813 430.439 165.688C 435.839 173.562 438.539 184.365 438.539 198.095C 438.539 211.926 435.713 222.829 430.061 230.805C 424.459 238.73 416.838 242.693 407.199 242.693ZM 397.282 177.121C 392.942 177.121 389.888 178.686 388.122 181.816C 386.406 184.895 385.473 189.488 385.321 195.596L 385.321 197.943C 385.321 205.313 386.305 210.639 388.274 213.92C 390.242 217.201 393.346 218.842 397.585 218.842C 401.37 218.842 404.12 217.226 405.836 213.996C 407.552 210.715 408.41 205.313 408.41 197.792C 408.41 190.422 407.552 185.147 405.836 181.967C 404.12 178.736 401.269 177.121 397.282 177.121Z"/>
<path id="path10_fill" d="M 521.735 214.829C 521.735 224.016 518.607 230.956 512.349 235.651C 506.091 240.345 497.107 242.693 485.399 242.693C 479.04 242.693 473.514 242.339 468.82 241.633C 464.127 240.976 459.332 239.74 454.437 237.922L 454.437 214.223C 459.029 216.242 464.051 217.908 469.501 219.22C 475.002 220.533 479.898 221.189 484.188 221.189C 490.597 221.189 493.802 219.725 493.802 216.797C 493.802 215.283 492.893 213.945 491.076 212.784C 489.31 211.573 484.112 209.251 475.482 205.818C 467.609 202.587 462.108 198.928 458.979 194.839C 455.85 190.7 454.285 185.475 454.285 179.166C 454.285 171.19 457.364 164.981 463.521 160.539C 469.678 156.097 478.384 153.876 489.638 153.876C 495.29 153.876 500.59 154.507 505.535 155.769C 510.532 156.98 515.705 158.772 521.054 161.145L 513.03 180.226C 509.093 178.459 504.93 176.97 500.539 175.758C 496.148 174.496 492.565 173.865 489.789 173.865C 484.944 173.865 482.522 175.052 482.522 177.424C 482.522 178.888 483.355 180.15 485.02 181.21C 486.736 182.219 491.632 184.314 499.706 187.494C 505.712 189.968 510.178 192.391 513.106 194.763C 516.083 197.136 518.253 199.937 519.616 203.168C 521.029 206.348 521.735 210.235 521.735 214.829Z"/>
</defs>
</svg>
