<svg xmlns="http://www.w3.org/2000/svg" viewBox="0 0 48.13 48.19"><defs><style>.cls-adv_2-1{fill:#fff}</style></defs><title>deliver</title><g id="Layer_2" data-name="Layer 2"><path class="cls-adv_2-1" d="M48.1 2.72v2.77q0 1.97-.21 3.89a40.84 40.84 0 0 1-.63 4.31A28.59 28.59 0 0 1 46.09 18a18.64 18.64 0 0 1-1.92 3.91 18.94 18.94 0 0 1-3.17 3.5 16.76 16.76 0 0 1-2.65 1.85q-1.71 1-4.38 2.39t-3.52 1.9l-1.15.61-1.36.75q-.49.28-.82.52v7.73a2.16 2.16 0 0 1 0 .3 1 1 0 0 1-.09.3 1.49 1.49 0 0 1-.19.28l-.21.23L21 47.81a1.44 1.44 0 0 1-1 .38h-.3a.16.16 0 0 1-.12 0 1.35 1.35 0 0 1-1-1.08l-1.83-7.73-3.37-3.75q-2.67-3-3.23-3.66l-9-2.06a1.4 1.4 0 0 1-1.1-1 1.37 1.37 0 0 1 .3-1.43l5.48-6A1.53 1.53 0 0 1 7 20.91h8.34l.28-.49q.14-.26.28-.56a5.67 5.67 0 0 1 .28-.54q.14-.23.33-.63l.28-.59.33-.66.7-1.38.8-1.57.73-1.43q.49-1 .82-1.5t.75-1.29A12.45 12.45 0 0 1 21.74 9q.4-.54.82-1a18.41 18.41 0 0 1 7.64-5.52 35.58 35.58 0 0 1 3.45-1.08Q35.45.94 37 .68t3.07-.42Q41.64.09 42.71 0t2.11 0h1.83a1.49 1.49 0 0 1 1 .45 1.5 1.5 0 0 1 .45 1q-.04.47 0 1.27zM10.28 40.66a7.82 7.82 0 0 1 .45-.8 10.43 10.43 0 0 1 .63-.91l2.2 2q-.33.61-1 2.06a11 11 0 0 1-1.27 2.11 7.1 7.1 0 0 1-1.78 1.48 8.09 8.09 0 0 1-3.09 1 34.3 34.3 0 0 1-4.83.28L.1 48v-1.55a23.63 23.63 0 0 1 .56-5.79 6.93 6.93 0 0 1 1.44-3.11 10 10 0 0 1 2.7-1.83 20.08 20.08 0 0 0 2.44-1.41l1.83 2.34a16.54 16.54 0 0 1-2.91 1.73q-.7.38-1.05.59a4 4 0 0 0-.8.68 2.69 2.69 0 0 0-.63 1.08 12.39 12.39 0 0 0-.35 1.66A21.08 21.08 0 0 0 3.1 45a17.29 17.29 0 0 0 3.12-.3 5 5 0 0 0 1.92-.8 4.3 4.3 0 0 0 1-1 12.38 12.38 0 0 0 .75-1.41zM45.1 3a38.48 38.48 0 0 0-13.87 2.3 15.34 15.34 0 0 0-6.42 4.59q-.38.47-.84 1.17t-.82 1.29q-.35.59-.91 1.64t-.8 1.55q-.24.49-.87 1.76t-.77 1.5q-1.64 3.33-2.3 4.36l-.16.23a.82.82 0 0 1-.16.16l-.18.15-.23.12-.26.07H7.7l-3.38 3.58L11.17 29a1.23 1.23 0 0 1 .45.19 2.61 2.61 0 0 1 .4.33l7.22 8.06a1.65 1.65 0 0 1 .38.66l1.31 5.67 3.19-3.47v-7.81a1.27 1.27 0 0 1 0-.35 1.72 1.72 0 0 1 .12-.3 2.54 2.54 0 0 1 .16-.28.84.84 0 0 1 .23-.23q.55-.47 4.37-2.55.84-.52 3.33-1.78t4.17-2.25a16.34 16.34 0 0 0 2.5-1.73 15.81 15.81 0 0 0 2.65-2.91 16.54 16.54 0 0 0 1.62-3.33Q45.24 11.63 45.1 3zM35 9.26a6.18 6.18 0 0 1 1.66.84A5.62 5.62 0 0 1 38 11.39a6.21 6.21 0 0 1 .84 1.66 6.11 6.11 0 0 1-.53 4.95 5.84 5.84 0 0 1-2.18 2.18 6.13 6.13 0 0 1-6 0A5.84 5.84 0 0 1 27.9 18a5.94 5.94 0 0 1-.8-3 6 6 0 0 1 6-6 6 6 0 0 1 1.9.26zM36.1 15a3 3 0 0 0-.4-1.5 2.87 2.87 0 0 0-1.1-1.1 3 3 0 0 0-1.5-.4 2.86 2.86 0 0 0-2.13.89 3 3 0 0 0 0 4.22 2.83 2.83 0 0 0 2.11.89 3 3 0 0 0 3-3z" id="Layer_1-2" data-name="Layer 1"/></g></svg>