<svg xmlns="http://www.w3.org/2000/svg" viewBox="0 0 75.5 47.5"><defs><style>.cls-adv_1-1{fill:#fff}</style></defs><title>pool</title><g id="Layer_2" data-name="Layer 2"><path class="cls-adv_1-1" d="M75.5 34.18V38a2.43 2.43 0 0 1-.75 1.81 2.5 2.5 0 0 1-1.75.69H59a4 4 0 0 0-.31-1 4.31 4.31 0 0 0-.76-1.16 7.36 7.36 0 0 0-.75-.72l-.21-.16H72.5v-2.63a3.65 3.65 0 0 0-.71-.42l-.28-.14-9.42-5.2a3 3 0 0 1-.42-5 7.75 7.75 0 0 0 2.53-4 16.81 16.81 0 0 0 .8-4.9V8.86c0-1.21-.86-2.5-2.56-3.84a8.93 8.93 0 0 0-5.65-2 9.11 9.11 0 0 0-5.65 2C49.38 6.4 48.5 7.68 48.5 8.86v.36A15 15 0 0 0 45.84 7a6.75 6.75 0 0 1 .29-.69 8.57 8.57 0 0 1 1.76-2.41 14.72 14.72 0 0 1 2.53-2A12.25 12.25 0 0 1 53.51.52 11.37 11.37 0 0 1 56.79 0a11.71 11.71 0 0 1 5.35 1.34 12.43 12.43 0 0 1 4.24 3.4A6.66 6.66 0 0 1 68 8.86v6.33a19.87 19.87 0 0 1-1.06 6.14 10.51 10.51 0 0 1-3.4 5.11L73 31.65l.14.09a1.75 1.75 0 0 1 .36.16l.49.28a4.87 4.87 0 0 1 .56.4 5.58 5.58 0 0 1 .49.47 2.17 2.17 0 0 1 .35.54 1.32 1.32 0 0 1 .11.59zM13.14 5a9.11 9.11 0 0 1 5.65-2 8.93 8.93 0 0 1 5.65 2C26.14 6.36 27 7.65 27 8.86v.41l.14-.14a17.24 17.24 0 0 1 2.55-2.06 7.73 7.73 0 0 0-1.31-2.33 12.43 12.43 0 0 0-4.24-3.4A11.71 11.71 0 0 0 18.79 0a11.37 11.37 0 0 0-3.28.52 12.25 12.25 0 0 0-3.09 1.41 14.72 14.72 0 0 0-2.53 2 8.57 8.57 0 0 0-1.76 2.4 5.86 5.86 0 0 0-.63 2.53v6.33a18.25 18.25 0 0 0 1.17 6 11.51 11.51 0 0 0 3.56 5.25l-9.7 5.25c-.19.09-.43.21-.71.37a6.57 6.57 0 0 0-1.12.89 1.81 1.81 0 0 0-.7 1.23V38a2.43 2.43 0 0 0 .75 1.81 2.48 2.48 0 0 0 1.78.72h14A4.46 4.46 0 0 1 18 38.08c.24-.22.47-.42.67-.58H3v-2.67a3.15 3.15 0 0 1 .75-.42l.18-.09L13.64 29a1.55 1.55 0 0 0 .42-.26l.35-.33a2.2 2.2 0 0 0 .3-.37 2 2 0 0 0 .24-.45 4.21 4.21 0 0 0 .16-.46 1.58 1.58 0 0 0 .07-.47 2.89 2.89 0 0 0-1.08-2.63 7.14 7.14 0 0 1-1.61-1.87 11.3 11.3 0 0 1-1.15-2.44 17.58 17.58 0 0 1-.63-2.44 12 12 0 0 1-.21-2.11V8.86c0-1.18.88-2.46 2.64-3.86zm43.21 35.59a1.32 1.32 0 0 1 .15.59V45a2.43 2.43 0 0 1-.75 1.81 2.5 2.5 0 0 1-1.75.69H21.53a2.48 2.48 0 0 1-1.78-.72A2.43 2.43 0 0 1 19 45v-3.82a1.31 1.31 0 0 1 .21-.68 2.56 2.56 0 0 1 .49-.59 6.57 6.57 0 0 1 1.12-.91c.28-.16.52-.28.71-.37l2.12-1.15L28.27 35l3-1.6a11.51 11.51 0 0 1-3.56-5.25 18.25 18.25 0 0 1-1.17-6v-6.29a5.48 5.48 0 0 1 .5-2.23c0-.1.08-.2.13-.3a8.57 8.57 0 0 1 1.76-2.41 13 13 0 0 1 1.11-1 14.53 14.53 0 0 1 1.42-1 10 10 0 0 1 1.06-.6 13.44 13.44 0 0 1 2-.81A11.37 11.37 0 0 1 37.79 7 11.66 11.66 0 0 1 43 8.28l.12.06a13.62 13.62 0 0 1 2.38 1.51 11.59 11.59 0 0 1 1.88 1.89 9 9 0 0 1 .9 1.38 5.88 5.88 0 0 1 .72 2.74v6.33a19.87 19.87 0 0 1-1.06 6.14 10.51 10.51 0 0 1-3.4 5.11l3.28 1.82 4.06 2.24L54 38.65l.14.09a1.75 1.75 0 0 1 .36.16l.49.28a4.87 4.87 0 0 1 .56.4 5.58 5.58 0 0 1 .49.47 1.76 1.76 0 0 1 .3.45.41.41 0 0 1 .01.09zm-2.85 1.24a3.65 3.65 0 0 0-.71-.42l-.28-.14-3.42-1.89-6-3.31a3 3 0 0 1-.42-5 7.75 7.75 0 0 0 2.53-4 16.81 16.81 0 0 0 .8-4.9v-6.31a3 3 0 0 0-.16-.92 6.85 6.85 0 0 0-2.4-2.94l-.44-.3a8.77 8.77 0 0 0-5.21-1.7 8.91 8.91 0 0 0-5.29 1.78l-.36.26c-1.72 1.33-2.59 2.57-2.64 3.73v6.42a12 12 0 0 0 .21 2.11 17.58 17.58 0 0 0 .63 2.44 11.3 11.3 0 0 0 1.15 2.44 7.14 7.14 0 0 0 1.61 1.87 2.89 2.89 0 0 1 1.08 2.63 1.58 1.58 0 0 1-.07.47 4.21 4.21 0 0 1-.16.46 1.79 1.79 0 0 1-.2.39v.06a2.2 2.2 0 0 1-.3.37l-.35.33a1.55 1.55 0 0 1-.42.26l-9.71 5.3-.18.09a3.15 3.15 0 0 0-.75.42v2.67H53.5z" id="Layer_1-2" data-name="Layer 1"/></g></svg>