<svg xmlns="http://www.w3.org/2000/svg" viewBox="0 0 70.47 50.88"><defs><style>.cls-adv_3-1{fill:#fff}</style></defs><title>mix</title><g id="Layer_2" data-name="Layer 2"><path class="cls-adv_3-1" d="M51.62 6.06a2.85 2.85 0 0 1 0-2.25 3 3 0 0 1 .66-1 2.92 2.92 0 0 1 2.11-.88 2.84 2.84 0 0 1 2.12.86 2.92 2.92 0 0 1 .88 2.14 2.88 2.88 0 0 1-.86 2.12 3 3 0 0 1-.41.35 2.67 2.67 0 0 1-.45.25 3.28 3.28 0 0 1-.5.17 2.86 2.86 0 0 1-.51.08 3.84 3.84 0 0 1-.5 0 2.82 2.82 0 0 1-.51-.08 3.17 3.17 0 0 1-.5-.17 2.48 2.48 0 0 1-.45-.25 3 3 0 0 1-1.08-1.34zM70 32.22L51.8 50.45a1.48 1.48 0 0 1-.73.4 1.44 1.44 0 0 1-.86-.07 1.38 1.38 0 0 1-.93-1.33l-1.06-12.33-11.7-11.7-.7.7a1.42 1.42 0 0 1-1.08.45 1.51 1.51 0 0 1-1.06-.46 1.43 1.43 0 0 1-.45-1A1.46 1.46 0 0 1 33.7 24l1.76-1.76a1.48 1.48 0 0 1 1-.45 1.42 1.42 0 0 1 1.08.45l13.2 13.16a1.5 1.5 0 0 1 .46 1v.06h10.36l4-4-9.56-.84a1.5 1.5 0 0 1-1-.46L41.83 18a1.42 1.42 0 0 1-.45-1.08 1.48 1.48 0 0 1 .45-1l1.76-1.76a1.46 1.46 0 0 1 1.06-.46 1.43 1.43 0 0 1 1 .45 1.51 1.51 0 0 1 .46 1.06 1.41 1.41 0 0 1-.45 1.08l-.7.7 11.7 11.7L69 29.7a1.35 1.35 0 0 1 1.31.94 1.37 1.37 0 0 1-.31 1.58zm-18.61 6.23l.18 2h6l2-2zm.68 7.49l3.49-3.49h-3.81zm-15.51-35.4A5.08 5.08 0 0 1 32.83 9a5.08 5.08 0 0 1-1.54-3.73 5.08 5.08 0 0 1 1.54-3.73 5.28 5.28 0 0 1 7.46 0 5.08 5.08 0 0 1 1.54 3.73A5.08 5.08 0 0 1 40.28 9a5.08 5.08 0 0 1-3.72 1.54zm.55-3.1a2.25 2.25 0 0 0 1.67-2.17 2.18 2.18 0 0 0-.66-1.59 2.42 2.42 0 0 0-.75-.51 2 2 0 0 0-1.69 0 2.44 2.44 0 0 0-.75.51 2.16 2.16 0 0 0-.66 1.59 2.25 2.25 0 0 0 1.67 2.17 2.28 2.28 0 0 0 1.16 0zM26.51 15a1.5 1.5 0 0 0-2.06-.51L6 25.54a2 2 0 1 1-2-3.43L22.39 11a1.5 1.5 0 0 0 .52-2l-1-1.71A1.5 1.5 0 0 0 19.3 8.8l.26.43L2.42 19.54a5 5 0 0 0 1.37 9.14 5 5 0 0 0 1.21.15 5 5 0 0 0 2.57-.72L24.72 17.8l.26.43a1.5 1.5 0 1 0 2.57-1.55z" id="Layer_1-2" data-name="Layer 1"/></g></svg>